G04*
G04 #@! TF.GenerationSoftware,Altium Limited,Altium Designer,23.8.1 (32)*
G04*
G04 Layer_Color=8388736*
%FSLAX44Y44*%
%MOMM*%
G71*
G04*
G04 #@! TF.SameCoordinates,7BD4B443-AC8F-467E-A65E-793A9AF9F4B1*
G04*
G04*
G04 #@! TF.FilePolarity,Negative*
G04*
G01*
G75*
%ADD51C,1.5000*%
%ADD62R,0.9000X1.0000*%
%ADD63R,1.5000X1.0500*%
%ADD64R,1.0500X1.5000*%
%ADD65R,1.0000X0.9000*%
%ADD66R,0.7000X0.9000*%
%ADD67R,0.9000X0.7000*%
%ADD68R,0.9000X0.9000*%
%ADD69R,0.9000X0.3000*%
%ADD70R,0.3000X0.9000*%
%ADD71R,4.7000X4.7000*%
%ADD72R,2.6000X2.1000*%
%ADD73R,0.8000X0.7000*%
%ADD74R,1.5000X0.9000*%
%ADD75R,2.1000X0.9000*%
%ADD76R,2.5000X2.1000*%
%ADD77R,2.1000X2.6000*%
%ADD78R,1.9000X1.1000*%
%ADD79R,1.5000X1.3000*%
%ADD80R,0.8000X1.1000*%
%ADD81R,0.8000X0.4000*%
%ADD82C,1.0000*%
%ADD83C,0.1000*%
%ADD84C,1.2000*%
%ADD85C,1.6000*%
%ADD86C,1.8000*%
%ADD87O,2.7000X1.4000*%
%ADD88O,2.2000X1.1000*%
%ADD89C,0.8000*%
D51*
X-28000Y658000D02*
D03*
Y703000D02*
D03*
X-16000Y784750D02*
D03*
Y759250D02*
D03*
D62*
X662000Y762750D02*
D03*
Y745750D02*
D03*
X380250Y807000D02*
D03*
Y790000D02*
D03*
X178750Y726750D02*
D03*
Y743750D02*
D03*
X78750Y765750D02*
D03*
Y748750D02*
D03*
D63*
X709000Y710750D02*
D03*
Y693750D02*
D03*
X672000Y710750D02*
D03*
Y693750D02*
D03*
X709000Y838750D02*
D03*
Y821750D02*
D03*
X267250Y869500D02*
D03*
Y852500D02*
D03*
X470000Y826500D02*
D03*
Y843500D02*
D03*
X361000Y790750D02*
D03*
Y807750D02*
D03*
X289000Y834250D02*
D03*
Y817250D02*
D03*
X448750Y880500D02*
D03*
Y863500D02*
D03*
X401000Y807000D02*
D03*
Y790000D02*
D03*
X427250Y807000D02*
D03*
Y790000D02*
D03*
X148000Y840250D02*
D03*
Y857250D02*
D03*
X427000Y833500D02*
D03*
Y850500D02*
D03*
X419000Y868250D02*
D03*
Y885250D02*
D03*
X194750Y839500D02*
D03*
Y856500D02*
D03*
X215750Y848000D02*
D03*
Y865000D02*
D03*
X396250Y833500D02*
D03*
Y850500D02*
D03*
X366000Y833500D02*
D03*
Y850500D02*
D03*
D64*
X707500Y791250D02*
D03*
X690500D02*
D03*
X612500Y838250D02*
D03*
X629500D02*
D03*
X265000Y710500D02*
D03*
X282000D02*
D03*
X380000Y736500D02*
D03*
X363000D02*
D03*
X388000Y767500D02*
D03*
X371000D02*
D03*
D65*
X652500Y662250D02*
D03*
X635500D02*
D03*
X559500Y741250D02*
D03*
X576500D02*
D03*
X559500Y705250D02*
D03*
X576500D02*
D03*
X559500Y775250D02*
D03*
X576500D02*
D03*
X755500Y734250D02*
D03*
X738500D02*
D03*
X194750Y642750D02*
D03*
X177750D02*
D03*
X84000Y720000D02*
D03*
X101000D02*
D03*
X41000Y740500D02*
D03*
X24000D02*
D03*
X161750Y708250D02*
D03*
X178750D02*
D03*
D66*
X663500Y819750D02*
D03*
X682500D02*
D03*
X673000Y838750D02*
D03*
D67*
X24000Y765750D02*
D03*
X49000Y784750D02*
D03*
Y775250D02*
D03*
X24000Y784750D02*
D03*
X49000Y765750D02*
D03*
X49000Y666250D02*
D03*
Y685250D02*
D03*
X30000Y675750D02*
D03*
X57500Y850000D02*
D03*
Y831000D02*
D03*
X76500Y840500D02*
D03*
D68*
X217750Y642750D02*
D03*
Y665250D02*
D03*
X298500Y710500D02*
D03*
Y694500D02*
D03*
X233250Y846750D02*
D03*
Y862750D02*
D03*
D69*
X201000Y792000D02*
D03*
X259000D02*
D03*
Y788000D02*
D03*
Y784000D02*
D03*
Y780000D02*
D03*
Y776000D02*
D03*
Y772000D02*
D03*
Y768000D02*
D03*
Y764000D02*
D03*
Y760000D02*
D03*
Y756000D02*
D03*
Y752000D02*
D03*
Y748000D02*
D03*
X201000D02*
D03*
Y752000D02*
D03*
Y756000D02*
D03*
Y760000D02*
D03*
Y764000D02*
D03*
Y768000D02*
D03*
Y772000D02*
D03*
Y776000D02*
D03*
Y780000D02*
D03*
Y784000D02*
D03*
Y788000D02*
D03*
D70*
X208000Y799000D02*
D03*
X212000D02*
D03*
X216000D02*
D03*
X220000D02*
D03*
X224000D02*
D03*
X228000D02*
D03*
X232000D02*
D03*
X236000D02*
D03*
X240000D02*
D03*
X244000D02*
D03*
X248000D02*
D03*
X252000D02*
D03*
Y741000D02*
D03*
X248000D02*
D03*
X244000D02*
D03*
X240000D02*
D03*
X236000D02*
D03*
X232000D02*
D03*
X228000D02*
D03*
X224000D02*
D03*
X220000D02*
D03*
X216000D02*
D03*
X212000D02*
D03*
X208000D02*
D03*
D71*
X230000Y770000D02*
D03*
D72*
X132500Y684750D02*
D03*
Y642750D02*
D03*
X84000Y684750D02*
D03*
Y642750D02*
D03*
D73*
X248750Y862750D02*
D03*
Y852750D02*
D03*
D74*
X366000Y900250D02*
D03*
Y870250D02*
D03*
D75*
X369000Y885000D02*
D03*
D76*
X390000Y885250D02*
D03*
D77*
X336000Y885000D02*
D03*
X294000D02*
D03*
D78*
X171000Y823000D02*
D03*
Y848000D02*
D03*
D79*
X312750Y834250D02*
D03*
X334750D02*
D03*
Y817250D02*
D03*
X312750D02*
D03*
D80*
X9700Y896000D02*
D03*
Y834000D02*
D03*
D81*
Y887500D02*
D03*
Y882500D02*
D03*
Y877500D02*
D03*
Y872500D02*
D03*
Y867500D02*
D03*
Y862500D02*
D03*
Y857500D02*
D03*
Y852500D02*
D03*
Y847500D02*
D03*
Y842500D02*
D03*
X22700Y835000D02*
D03*
Y840000D02*
D03*
Y845000D02*
D03*
Y850000D02*
D03*
Y855000D02*
D03*
Y860000D02*
D03*
Y870000D02*
D03*
Y875000D02*
D03*
Y880000D02*
D03*
Y885000D02*
D03*
Y890000D02*
D03*
Y895000D02*
D03*
D82*
X749000Y689250D02*
D03*
Y664250D02*
D03*
Y676750D02*
D03*
Y651750D02*
D03*
X748000Y836750D02*
D03*
Y811750D02*
D03*
Y824250D02*
D03*
Y799250D02*
D03*
X144000Y887000D02*
D03*
X169000D02*
D03*
X156500D02*
D03*
X181500D02*
D03*
X63000D02*
D03*
X88000D02*
D03*
X75500D02*
D03*
X100500D02*
D03*
D83*
X565000Y830250D02*
D03*
Y660250D02*
D03*
X320000Y770000D02*
D03*
X120000D02*
D03*
D84*
X645000Y855250D02*
D03*
X715000Y745250D02*
D03*
X685000Y730250D02*
D03*
X715000Y675250D02*
D03*
X610000Y640250D02*
D03*
X540000Y765250D02*
D03*
Y735250D02*
D03*
Y705250D02*
D03*
X594000D02*
D03*
X610000Y689250D02*
D03*
X646000Y706250D02*
D03*
X655000Y726250D02*
D03*
X588000Y788250D02*
D03*
X690000Y711250D02*
D03*
X707000Y771250D02*
D03*
X651000Y688250D02*
D03*
X613000Y818250D02*
D03*
X656000Y790250D02*
D03*
X709000Y807250D02*
D03*
X577000Y759250D02*
D03*
X593000Y748250D02*
D03*
X329500Y858500D02*
D03*
X256000Y832000D02*
D03*
X272000Y757750D02*
D03*
X257500Y811500D02*
D03*
X232500Y724750D02*
D03*
X272750Y742500D02*
D03*
X196000Y725750D02*
D03*
X251750Y727000D02*
D03*
X196500Y810750D02*
D03*
X448750Y895250D02*
D03*
X43750Y831000D02*
D03*
X89250Y840500D02*
D03*
X49000Y701750D02*
D03*
X215250Y830500D02*
D03*
X232500Y665250D02*
D03*
X245250Y710000D02*
D03*
X161750Y692500D02*
D03*
X406500Y767500D02*
D03*
X453750Y826750D02*
D03*
X119500Y720000D02*
D03*
X59500Y741000D02*
D03*
X64500Y775250D02*
D03*
D85*
X471500Y794750D02*
D03*
Y769750D02*
D03*
Y744750D02*
D03*
Y719750D02*
D03*
Y694750D02*
D03*
Y669750D02*
D03*
X247000Y897000D02*
D03*
X217000D02*
D03*
D86*
X-3000Y645500D02*
D03*
Y715500D02*
D03*
D87*
X-35000Y821800D02*
D03*
Y908200D02*
D03*
D88*
X18600Y821800D02*
D03*
Y908200D02*
D03*
D89*
X412500Y830000D02*
D03*
X380000D02*
D03*
X395000Y750000D02*
D03*
X160000Y645000D02*
D03*
X165000Y735000D02*
D03*
X5000Y800000D02*
D03*
X295000Y860000D02*
D03*
X25000Y710000D02*
D03*
X40000Y630000D02*
D03*
X55000Y650000D02*
D03*
X100000Y665000D02*
D03*
X125000D02*
D03*
X175000Y670000D02*
D03*
X220000Y695000D02*
D03*
X450000Y635000D02*
D03*
X480000D02*
D03*
Y650000D02*
D03*
X450000D02*
D03*
X420000Y730000D02*
D03*
X485000Y875000D02*
D03*
Y905000D02*
D03*
X120000Y855000D02*
D03*
X40000Y905000D02*
D03*
X45000Y860000D02*
D03*
X65000Y800000D02*
D03*
X155000Y775000D02*
D03*
X115000Y810000D02*
D03*
X90000Y805000D02*
D03*
Y825000D02*
D03*
X285000Y769000D02*
D03*
X224000Y788000D02*
D03*
X212000D02*
D03*
X224000Y776000D02*
D03*
X248000Y788000D02*
D03*
X236000D02*
D03*
X248000Y776000D02*
D03*
X236000D02*
D03*
X248000Y764000D02*
D03*
X236000D02*
D03*
X248000Y752000D02*
D03*
X236000D02*
D03*
X212000Y776000D02*
D03*
X224000Y764000D02*
D03*
X212000D02*
D03*
X224000Y752000D02*
D03*
X212000D02*
D03*
X430000Y630000D02*
D03*
Y642500D02*
D03*
Y655000D02*
D03*
Y667500D02*
D03*
Y680000D02*
D03*
Y692500D02*
D03*
X415000D02*
D03*
X400000D02*
D03*
X385000D02*
D03*
X370000D02*
D03*
X355000D02*
D03*
X337500D02*
D03*
X320000D02*
D03*
X277500D02*
D03*
X260000D02*
D03*
Y680000D02*
D03*
Y667500D02*
D03*
Y655000D02*
D03*
Y630000D02*
D03*
Y642500D02*
D03*
M02*
