G04*
G04 #@! TF.GenerationSoftware,Altium Limited,Altium Designer,23.8.1 (32)*
G04*
G04 Layer_Physical_Order=2*
G04 Layer_Color=16711680*
%FSLAX44Y44*%
%MOMM*%
G71*
G04*
G04 #@! TF.SameCoordinates,7BD4B443-AC8F-467E-A65E-793A9AF9F4B1*
G04*
G04*
G04 #@! TF.FilePolarity,Positive*
G04*
G01*
G75*
%ADD15C,0.4000*%
%ADD16C,0.3810*%
%ADD17C,0.2000*%
%ADD35C,0.3000*%
%ADD49C,0.9000*%
%ADD50C,1.1000*%
%ADD51C,1.5000*%
%ADD52C,1.4000*%
%ADD53C,1.7000*%
%ADD54O,2.6000X1.3000*%
%ADD55O,2.1000X1.0000*%
%ADD56C,0.7000*%
%ADD57R,0.8000X0.6000*%
%ADD58R,0.8000X0.4000*%
%ADD59R,1.5000X2.4000*%
G36*
X769392Y625858D02*
X591500D01*
Y681460D01*
X592673Y681946D01*
X598090Y676530D01*
X599381Y675667D01*
X600905Y675363D01*
X616095D01*
X617619Y675667D01*
X618910Y676530D01*
X635554Y693173D01*
X644293D01*
X645026Y691903D01*
X644477Y690952D01*
X644000Y689172D01*
Y687328D01*
X644477Y685548D01*
X645399Y683952D01*
X646702Y682648D01*
X648298Y681727D01*
X650078Y681250D01*
X651922D01*
X652167Y681316D01*
X672116Y661366D01*
X672116Y661366D01*
X673439Y660482D01*
X675000Y660172D01*
X675000Y660172D01*
X743886D01*
X745009Y659049D01*
X745555Y658733D01*
Y657267D01*
X745009Y656951D01*
X743799Y655741D01*
X742943Y654259D01*
X742500Y652606D01*
Y650894D01*
X742943Y649241D01*
X743799Y647759D01*
X745009Y646549D01*
X746491Y645693D01*
X748144Y645250D01*
X749856D01*
X751509Y645693D01*
X752991Y646549D01*
X754201Y647759D01*
X755057Y649241D01*
X755500Y650894D01*
Y652606D01*
X755057Y654259D01*
X754201Y655741D01*
X752991Y656951D01*
X752445Y657267D01*
Y658733D01*
X752991Y659049D01*
X754201Y660259D01*
X755057Y661741D01*
X755500Y663394D01*
Y665106D01*
X755057Y666759D01*
X754201Y668241D01*
X752991Y669451D01*
X752445Y669767D01*
Y671233D01*
X752991Y671549D01*
X754201Y672759D01*
X755057Y674241D01*
X755500Y675894D01*
Y677606D01*
X755057Y679259D01*
X754201Y680741D01*
X752991Y681951D01*
X752445Y682267D01*
Y683733D01*
X752991Y684049D01*
X754201Y685259D01*
X755057Y686741D01*
X755500Y688394D01*
Y690106D01*
X755057Y691759D01*
X754201Y693241D01*
X752991Y694451D01*
X751509Y695307D01*
X749856Y695750D01*
X748268D01*
X688884Y755134D01*
X688248Y755558D01*
X688634Y756828D01*
X731657D01*
X731657Y756828D01*
X733218Y757139D01*
X734541Y758023D01*
X750884Y774366D01*
X750884Y774366D01*
X751768Y775689D01*
X752078Y777250D01*
Y794136D01*
X753201Y795259D01*
X754057Y796741D01*
X754500Y798394D01*
Y800106D01*
X754057Y801759D01*
X753201Y803241D01*
X751991Y804451D01*
X751445Y804767D01*
Y806233D01*
X751991Y806549D01*
X753201Y807759D01*
X754057Y809241D01*
X754500Y810894D01*
Y812606D01*
X754057Y814259D01*
X753201Y815741D01*
X751991Y816951D01*
X751445Y817267D01*
Y818733D01*
X751991Y819049D01*
X753201Y820259D01*
X754057Y821741D01*
X754500Y823394D01*
Y825106D01*
X754057Y826759D01*
X753201Y828241D01*
X751991Y829451D01*
X751945Y829478D01*
Y830945D01*
X752298Y831149D01*
X753601Y832452D01*
X754523Y834048D01*
X754912Y835500D01*
X748000D01*
X741088D01*
X741477Y834048D01*
X742399Y832452D01*
X743702Y831149D01*
X744055Y830945D01*
Y829478D01*
X744009Y829451D01*
X742799Y828241D01*
X741943Y826759D01*
X741500Y825106D01*
Y823394D01*
X741943Y821741D01*
X742799Y820259D01*
X744009Y819049D01*
X744555Y818733D01*
Y817267D01*
X744009Y816951D01*
X742799Y815741D01*
X741943Y814259D01*
X741500Y812606D01*
Y810894D01*
X741943Y809241D01*
X742799Y807759D01*
X744009Y806549D01*
X744555Y806233D01*
Y804767D01*
X744009Y804451D01*
X742799Y803241D01*
X741943Y801759D01*
X741500Y800106D01*
Y798394D01*
X741943Y796741D01*
X742799Y795259D01*
X743922Y794136D01*
Y778939D01*
X729967Y764985D01*
X712431D01*
X711905Y766255D01*
X712601Y766952D01*
X713523Y768548D01*
X714000Y770328D01*
Y772171D01*
X713523Y773952D01*
X712601Y775548D01*
X711298Y776851D01*
X709702Y777773D01*
X707922Y778250D01*
X706078D01*
X704298Y777773D01*
X702702Y776851D01*
X701399Y775548D01*
X701272Y775328D01*
X634500D01*
X634106Y775250D01*
X630000D01*
Y777250D01*
X640500D01*
Y777268D01*
X647000D01*
X648524Y777571D01*
X649815Y778435D01*
X654725Y783345D01*
X655078Y783250D01*
X656921D01*
X658702Y783727D01*
X660298Y784649D01*
X661601Y785952D01*
X662523Y787548D01*
X663000Y789328D01*
Y791171D01*
X662523Y792952D01*
X661601Y794548D01*
X660298Y795851D01*
X658702Y796773D01*
X656921Y797250D01*
X655078D01*
X653298Y796773D01*
X651702Y795851D01*
X650399Y794548D01*
X649477Y792952D01*
X649000Y791171D01*
Y789328D01*
X649095Y788975D01*
X645351Y785231D01*
X640500D01*
Y785250D01*
X630000D01*
Y787250D01*
X640500D01*
Y795250D01*
X630000D01*
Y795750D01*
X621250D01*
Y781250D01*
Y766750D01*
X630000D01*
Y767250D01*
X634106D01*
X634500Y767172D01*
X701272D01*
X701399Y766952D01*
X702095Y766255D01*
X701569Y764985D01*
X611702D01*
X611334Y765480D01*
X611973Y766750D01*
X618750D01*
Y781250D01*
Y795750D01*
X610000D01*
Y795250D01*
X599500D01*
Y787250D01*
X610000D01*
Y785750D01*
X606750D01*
Y781250D01*
Y776750D01*
X610000D01*
Y775250D01*
X605894D01*
X605500Y775328D01*
X605106Y775250D01*
X599500D01*
Y767250D01*
X601422D01*
Y764750D01*
X601422Y764750D01*
X601732Y763189D01*
X602616Y761866D01*
X606459Y758023D01*
X607782Y757139D01*
X609343Y756828D01*
X609343Y756828D01*
X609710D01*
X610095Y755558D01*
X609459Y755134D01*
X609459Y755134D01*
X607116Y752791D01*
X606232Y751468D01*
X605922Y749907D01*
X605922Y749907D01*
Y748000D01*
X604000D01*
Y747078D01*
X601216D01*
X600000Y747328D01*
Y749172D01*
X599523Y750952D01*
X598601Y752548D01*
X597298Y753851D01*
X595702Y754773D01*
X593922Y755250D01*
X592078D01*
X590298Y754773D01*
X588702Y753851D01*
X587399Y752548D01*
X586477Y750952D01*
X586000Y749172D01*
Y747328D01*
X586477Y745548D01*
X587399Y743952D01*
X588702Y742649D01*
X590298Y741727D01*
X592078Y741250D01*
X593570D01*
X594028Y740751D01*
X593807Y739979D01*
X593372Y739482D01*
X584399D01*
X580981Y742899D01*
Y753466D01*
X581298Y753649D01*
X582601Y754952D01*
X583523Y756548D01*
X584000Y758328D01*
Y760172D01*
X583523Y761952D01*
X582601Y763548D01*
X581298Y764851D01*
X579702Y765773D01*
X577922Y766250D01*
X576078D01*
X574298Y765773D01*
X572702Y764851D01*
X571399Y763548D01*
X570477Y761952D01*
X570000Y760172D01*
Y758328D01*
X570477Y756548D01*
X571399Y754952D01*
X572702Y753649D01*
X573018Y753466D01*
Y741250D01*
X573322Y739726D01*
X574185Y738435D01*
X579935Y732685D01*
X581018Y731960D01*
Y695250D01*
X581322Y693726D01*
X582185Y692435D01*
X589196Y685423D01*
X588710Y684250D01*
X530608D01*
Y803250D01*
X593500D01*
Y864642D01*
X769392D01*
Y625858D01*
D02*
G37*
G36*
X730375Y702107D02*
X729895Y700976D01*
X729787Y700899D01*
X728595Y701136D01*
X638500D01*
Y704250D01*
X625500D01*
Y700000D01*
X629323D01*
X629849Y698730D01*
X617900Y686781D01*
X616762Y687438D01*
X617000Y688328D01*
Y690172D01*
X616523Y691952D01*
X615601Y693548D01*
X614298Y694851D01*
X614078Y694978D01*
Y700500D01*
X616000D01*
Y708000D01*
Y715500D01*
Y723000D01*
Y730500D01*
Y738000D01*
Y748000D01*
X617199Y748172D01*
X624801D01*
X626000Y748000D01*
Y738000D01*
Y733500D01*
X625500D01*
Y729250D01*
X632000D01*
Y726750D01*
X625500D01*
Y722500D01*
X626000D01*
Y711000D01*
X625500D01*
Y706750D01*
X638500D01*
Y711000D01*
X638000D01*
Y716422D01*
X649157D01*
X649157Y716422D01*
X650717Y716732D01*
X652041Y717616D01*
X653760Y719335D01*
X654078Y719250D01*
X655921D01*
X657702Y719727D01*
X659298Y720648D01*
X660601Y721952D01*
X661523Y723548D01*
X662000Y725328D01*
Y727171D01*
X661523Y728952D01*
X660601Y730548D01*
X659298Y731851D01*
X657739Y732751D01*
Y733139D01*
X657739Y733140D01*
X657429Y734700D01*
X656544Y736023D01*
X656544Y736023D01*
X654184Y738384D01*
X652861Y739268D01*
X651300Y739578D01*
X651300Y739578D01*
X638000D01*
Y748000D01*
X639199Y748172D01*
X684311D01*
X730375Y702107D01*
D02*
G37*
G36*
X742503Y677616D02*
X742500Y677606D01*
Y675894D01*
X742943Y674241D01*
X743799Y672759D01*
X745009Y671549D01*
X745555Y671233D01*
Y669767D01*
X745009Y669451D01*
X743886Y668328D01*
X676689D01*
X657934Y687083D01*
X658000Y687328D01*
Y689172D01*
X657523Y690952D01*
X656973Y691903D01*
X657707Y693173D01*
X726946D01*
X742503Y677616D01*
D02*
G37*
G36*
X492500Y625000D02*
X425000D01*
Y675000D01*
X265000D01*
Y622500D01*
X-52500D01*
X-52500Y813000D01*
X-1000D01*
Y917500D01*
X492500D01*
Y625000D01*
D02*
G37*
%LPC*%
G36*
X749250Y843662D02*
Y838000D01*
X754912D01*
X754523Y839452D01*
X753601Y841048D01*
X752298Y842351D01*
X750702Y843273D01*
X749250Y843662D01*
D02*
G37*
G36*
X746750D02*
X745298Y843273D01*
X743702Y842351D01*
X742399Y841048D01*
X741477Y839452D01*
X741088Y838000D01*
X746750D01*
Y843662D01*
D02*
G37*
G36*
X604250Y785750D02*
X599000D01*
Y782500D01*
X604250D01*
Y785750D01*
D02*
G37*
G36*
Y780000D02*
X599000D01*
Y776750D01*
X604250D01*
Y780000D01*
D02*
G37*
G36*
X24100Y915847D02*
X19850D01*
Y909450D01*
X31498D01*
X31165Y911126D01*
X29507Y913607D01*
X27026Y915265D01*
X24100Y915847D01*
D02*
G37*
G36*
X17350D02*
X13100D01*
X10174Y915265D01*
X7693Y913607D01*
X6035Y911126D01*
X5702Y909450D01*
X17350D01*
Y915847D01*
D02*
G37*
G36*
X31498Y906950D02*
X19850D01*
Y900553D01*
X24100D01*
X27026Y901135D01*
X29507Y902793D01*
X31165Y905274D01*
X31498Y906950D01*
D02*
G37*
G36*
X17350D02*
X5702D01*
X6035Y905274D01*
X7693Y902793D01*
X10174Y901135D01*
X13100Y900553D01*
X17350D01*
Y906950D01*
D02*
G37*
G36*
X101793Y893500D02*
X99207D01*
X96818Y892510D01*
X95092Y890784D01*
X94250Y890730D01*
X93408Y890784D01*
X91682Y892510D01*
X89293Y893500D01*
X86707D01*
X84318Y892510D01*
X82592Y890784D01*
X81750Y890730D01*
X80908Y890784D01*
X79182Y892510D01*
X76793Y893500D01*
X74207D01*
X71818Y892510D01*
X70092Y890784D01*
X69250Y890730D01*
X68408Y890784D01*
X66682Y892510D01*
X64293Y893500D01*
X61707D01*
X59318Y892510D01*
X57490Y890682D01*
X56500Y888293D01*
Y885707D01*
X57490Y883318D01*
X59318Y881490D01*
X61707Y880500D01*
X64293D01*
X66682Y881490D01*
X68408Y883216D01*
X69250Y883270D01*
X70092Y883216D01*
X71818Y881490D01*
X74207Y880500D01*
X76793D01*
X79182Y881490D01*
X80908Y883216D01*
X81750Y883270D01*
X82592Y883216D01*
X84318Y881490D01*
X86707Y880500D01*
X89293D01*
X91682Y881490D01*
X93408Y883216D01*
X94250Y883270D01*
X95092Y883216D01*
X96818Y881490D01*
X99207Y880500D01*
X101793D01*
X104182Y881490D01*
X106010Y883318D01*
X107000Y885707D01*
Y888293D01*
X106010Y890682D01*
X104182Y892510D01*
X101793Y893500D01*
D02*
G37*
G36*
X236000Y911569D02*
X147000D01*
X145634Y911297D01*
X144477Y910523D01*
X122477Y888523D01*
X121703Y887366D01*
X121431Y886000D01*
Y877728D01*
X91039Y847336D01*
X90642Y847500D01*
X87858D01*
X85285Y846434D01*
X83316Y844465D01*
X82250Y841892D01*
Y839108D01*
X83316Y836535D01*
X85285Y834566D01*
X87858Y833500D01*
X90642D01*
X93215Y834566D01*
X95184Y836535D01*
X96250Y839108D01*
Y841892D01*
X96086Y842289D01*
X127523Y873727D01*
X128297Y874884D01*
X128569Y876250D01*
Y884522D01*
X148478Y904431D01*
X208330D01*
X208904Y903046D01*
X208522Y902664D01*
X207000Y898989D01*
Y898250D01*
X217000D01*
X227000D01*
Y898989D01*
X225478Y902664D01*
X225096Y903046D01*
X225671Y904431D01*
X234522D01*
X238251Y900702D01*
X237500Y898890D01*
Y895110D01*
X238946Y891619D01*
X241619Y888946D01*
X245110Y887500D01*
X248890D01*
X252381Y888946D01*
X255054Y891619D01*
X255805Y893431D01*
X267250D01*
X268616Y893703D01*
X269773Y894477D01*
X276978Y901682D01*
X437272D01*
X441914Y897039D01*
X441750Y896642D01*
Y893858D01*
X442816Y891285D01*
X444785Y889316D01*
X447358Y888250D01*
X450142D01*
X452715Y889316D01*
X454684Y891285D01*
X455750Y893858D01*
Y896642D01*
X454684Y899215D01*
X452715Y901184D01*
X450142Y902250D01*
X447358D01*
X446961Y902086D01*
X441273Y907773D01*
X440116Y908547D01*
X438750Y908819D01*
X275500D01*
X274134Y908547D01*
X272977Y907773D01*
X265772Y900569D01*
X255805D01*
X255054Y902381D01*
X252381Y905054D01*
X248890Y906500D01*
X245110D01*
X243298Y905749D01*
X238523Y910523D01*
X237366Y911297D01*
X236000Y911569D01*
D02*
G37*
G36*
X142750Y894000D02*
X142608D01*
X140035Y892934D01*
X138066Y890965D01*
X137000Y888392D01*
Y888250D01*
X142750D01*
Y894000D01*
D02*
G37*
G36*
X227000Y895750D02*
X218250D01*
Y887000D01*
X218989D01*
X222665Y888522D01*
X225478Y891336D01*
X227000Y895011D01*
Y895750D01*
D02*
G37*
G36*
X215750D02*
X207000D01*
Y895011D01*
X208522Y891336D01*
X211335Y888522D01*
X215011Y887000D01*
X215750D01*
Y895750D01*
D02*
G37*
G36*
X145392Y894000D02*
X145250D01*
Y887000D01*
Y880000D01*
X145392D01*
X147965Y881066D01*
X149624Y882724D01*
X150245Y882994D01*
X151474Y882833D01*
X152818Y881490D01*
X153441Y881232D01*
Y879750D01*
X153441Y879750D01*
X153674Y878579D01*
X154337Y877587D01*
X175087Y856837D01*
X175087Y856837D01*
X176079Y856174D01*
X177250Y855941D01*
X177250Y855941D01*
X185483D01*
X208625Y832799D01*
X208250Y831892D01*
Y829108D01*
X209316Y826535D01*
X209396Y826454D01*
X208822Y825069D01*
X184250D01*
X182884Y824797D01*
X181727Y824023D01*
X161227Y803523D01*
X160453Y802366D01*
X160181Y801000D01*
Y753728D01*
X144272Y737819D01*
X81500D01*
X80134Y737547D01*
X78977Y736773D01*
X50789Y708586D01*
X50392Y708750D01*
X47608D01*
X45035Y707684D01*
X43066Y705715D01*
X42000Y703142D01*
Y700358D01*
X43066Y697785D01*
X45035Y695816D01*
X47608Y694750D01*
X50392D01*
X52965Y695816D01*
X54934Y697785D01*
X56000Y700358D01*
Y703142D01*
X55836Y703539D01*
X82978Y730681D01*
X145750D01*
X147116Y730953D01*
X148273Y731727D01*
X166273Y749727D01*
X167047Y750884D01*
X167319Y752250D01*
Y799522D01*
X185728Y817931D01*
X191822D01*
X191998Y817625D01*
X192282Y816431D01*
X190566Y814715D01*
X189500Y812142D01*
Y809358D01*
X189875Y808451D01*
X186587Y805163D01*
X185924Y804171D01*
X185691Y803000D01*
X185691Y803000D01*
Y733000D01*
X185691Y733000D01*
X185924Y731830D01*
X186587Y730837D01*
X189375Y728049D01*
X189000Y727142D01*
Y724358D01*
X190066Y721785D01*
X192035Y719816D01*
X194608Y718750D01*
X197392D01*
X199965Y719816D01*
X201934Y721785D01*
X203000Y724358D01*
Y727142D01*
X201934Y729715D01*
X199965Y731684D01*
X197392Y732750D01*
X194608D01*
X193701Y732375D01*
X191809Y734267D01*
Y801733D01*
X194201Y804126D01*
X195108Y803750D01*
X197892D01*
X200465Y804816D01*
X202434Y806785D01*
X202965Y808066D01*
X251346D01*
X251566Y807535D01*
X253535Y805566D01*
X256108Y804500D01*
X258892D01*
X261465Y805566D01*
X263434Y807535D01*
X264500Y810108D01*
Y812892D01*
X263434Y815465D01*
X262468Y816431D01*
X263089Y817931D01*
X292745D01*
X294110Y818203D01*
X295268Y818977D01*
X327884Y851593D01*
X328108Y851500D01*
X330892D01*
X333465Y852566D01*
X335434Y854535D01*
X336500Y857108D01*
Y859892D01*
X335434Y862465D01*
X333465Y864434D01*
X330892Y865500D01*
X328108D01*
X325535Y864434D01*
X323566Y862465D01*
X322500Y859892D01*
Y857108D01*
X322736Y856538D01*
X291266Y825069D01*
X221678D01*
X221104Y826454D01*
X221184Y826535D01*
X222250Y829108D01*
Y831892D01*
X221184Y834465D01*
X219215Y836434D01*
X216642Y837500D01*
X213858D01*
X212951Y837125D01*
X188913Y861163D01*
X187920Y861826D01*
X186750Y862059D01*
X186750Y862059D01*
X178517D01*
X160555Y880021D01*
X160182Y881490D01*
X161908Y883216D01*
X162750Y883270D01*
X163592Y883216D01*
X165318Y881490D01*
X167707Y880500D01*
X170293D01*
X172682Y881490D01*
X174408Y883216D01*
X175250Y883270D01*
X176092Y883216D01*
X177818Y881490D01*
X180207Y880500D01*
X182793D01*
X185182Y881490D01*
X187010Y883318D01*
X188000Y885707D01*
Y888293D01*
X187010Y890682D01*
X185182Y892510D01*
X182793Y893500D01*
X180207D01*
X177818Y892510D01*
X176092Y890784D01*
X175250Y890730D01*
X174408Y890784D01*
X172682Y892510D01*
X170293Y893500D01*
X167707D01*
X165318Y892510D01*
X163592Y890784D01*
X162750Y890730D01*
X161908Y890784D01*
X160182Y892510D01*
X157793Y893500D01*
X155207D01*
X152818Y892510D01*
X151474Y891167D01*
X150245Y891006D01*
X149624Y891276D01*
X147965Y892934D01*
X145392Y894000D01*
D02*
G37*
G36*
X142750Y885750D02*
X137000D01*
Y885608D01*
X138066Y883035D01*
X140035Y881066D01*
X142608Y880000D01*
X142750D01*
Y885750D01*
D02*
G37*
G36*
X24100Y829447D02*
X19850D01*
Y823050D01*
X31498D01*
X31165Y824726D01*
X29507Y827207D01*
X27026Y828865D01*
X24100Y829447D01*
D02*
G37*
G36*
X17350D02*
X13100D01*
X10174Y828865D01*
X7693Y827207D01*
X6035Y824726D01*
X5702Y823050D01*
X17350D01*
Y829447D01*
D02*
G37*
G36*
X31498Y820550D02*
X19850D01*
Y814153D01*
X24100D01*
X27026Y814735D01*
X29507Y816393D01*
X31165Y818874D01*
X31498Y820550D01*
D02*
G37*
G36*
X17350D02*
X5702D01*
X6035Y818874D01*
X7693Y816393D01*
X10174Y814735D01*
X13100Y814153D01*
X17350D01*
Y820550D01*
D02*
G37*
G36*
X473390Y804250D02*
X469610D01*
X466119Y802804D01*
X463446Y800131D01*
X462000Y796640D01*
Y792860D01*
X463446Y789369D01*
X466119Y786696D01*
X469610Y785250D01*
X473390D01*
X476881Y786696D01*
X479554Y789369D01*
X481000Y792860D01*
Y796640D01*
X479554Y800131D01*
X476881Y802804D01*
X473390Y804250D01*
D02*
G37*
G36*
X-14210Y793750D02*
X-17790D01*
X-21098Y792380D01*
X-23630Y789848D01*
X-25000Y786540D01*
Y782960D01*
X-23630Y779652D01*
X-21098Y777120D01*
X-17790Y775750D01*
X-14210D01*
X-10902Y777120D01*
X-8370Y779652D01*
X-7000Y782960D01*
Y786540D01*
X-8370Y789848D01*
X-10902Y792380D01*
X-14210Y793750D01*
D02*
G37*
G36*
X347500Y795000D02*
X292500D01*
Y751286D01*
X291114Y750712D01*
X281913Y759913D01*
X280921Y760576D01*
X279750Y760809D01*
X279750Y760809D01*
X278310D01*
X277934Y761715D01*
X275965Y763684D01*
X273392Y764750D01*
X270608D01*
X268035Y763684D01*
X266066Y761715D01*
X265000Y759142D01*
Y756358D01*
X266066Y753785D01*
X268035Y751816D01*
X270532Y750781D01*
X270633Y750494D01*
X270754Y749250D01*
X268785Y748434D01*
X266816Y746465D01*
X265750Y743892D01*
Y741108D01*
X266816Y738535D01*
X268785Y736566D01*
X271358Y735500D01*
X274142D01*
X276715Y736566D01*
X278684Y738535D01*
X279060Y739441D01*
X288733D01*
X296730Y731445D01*
X296156Y730059D01*
X258060D01*
X257684Y730965D01*
X255715Y732934D01*
X253142Y734000D01*
X250358D01*
X247785Y732934D01*
X245816Y730965D01*
X244750Y728392D01*
Y725608D01*
X245692Y723334D01*
X245057Y721834D01*
X240438D01*
X239423Y723173D01*
X239500Y723358D01*
Y726142D01*
X238434Y728715D01*
X236465Y730684D01*
X233892Y731750D01*
X231108D01*
X228535Y730684D01*
X226566Y728715D01*
X225500Y726142D01*
Y723358D01*
X226566Y720785D01*
X228535Y718816D01*
X231108Y717750D01*
X233892D01*
X234849Y718146D01*
X236383Y716612D01*
X237375Y715949D01*
X238546Y715716D01*
X238546Y715716D01*
X302508D01*
X317887Y700337D01*
X318880Y699674D01*
X320050Y699441D01*
X320050Y699441D01*
X461537D01*
X462551Y697969D01*
X462000Y696640D01*
Y692860D01*
X463446Y689369D01*
X466119Y686696D01*
X469610Y685250D01*
X473390D01*
X476881Y686696D01*
X479554Y689369D01*
X481000Y692860D01*
Y696640D01*
X479554Y700131D01*
X477994Y701691D01*
X478615Y703191D01*
X481200D01*
X481200Y703191D01*
X482370Y703424D01*
X483363Y704087D01*
X489663Y710387D01*
X489663Y710387D01*
X490326Y711380D01*
X490559Y712550D01*
X490559Y712550D01*
Y752500D01*
X490326Y753671D01*
X489663Y754663D01*
X489663Y754663D01*
X479672Y764654D01*
X481000Y767860D01*
Y771640D01*
X479554Y775131D01*
X476881Y777804D01*
X473390Y779250D01*
X469610D01*
X466119Y777804D01*
X463446Y775131D01*
X462000Y771640D01*
Y767860D01*
X463446Y764369D01*
X466119Y761696D01*
X469610Y760250D01*
X473390D01*
X474828Y760846D01*
X484441Y751233D01*
Y738094D01*
X483055Y737520D01*
X480038Y740538D01*
X481000Y742860D01*
Y746640D01*
X479554Y750131D01*
X476881Y752804D01*
X473390Y754250D01*
X469610D01*
X466119Y752804D01*
X463446Y750131D01*
X462000Y746640D01*
Y742860D01*
X463446Y739369D01*
X466119Y736696D01*
X469610Y735250D01*
X473390D01*
X475712Y736212D01*
X480941Y730983D01*
Y725407D01*
X480892Y725397D01*
X479441Y725244D01*
X476881Y727804D01*
X473390Y729250D01*
X469610D01*
X466119Y727804D01*
X463446Y725131D01*
X462484Y722809D01*
X319017D01*
X298212Y743614D01*
X298786Y745000D01*
X347500D01*
Y795000D01*
D02*
G37*
G36*
X-14210Y768250D02*
X-17790D01*
X-21098Y766880D01*
X-23630Y764348D01*
X-25000Y761040D01*
Y757460D01*
X-23630Y754152D01*
X-21098Y751620D01*
X-17790Y750250D01*
X-14210D01*
X-10902Y751620D01*
X-8370Y754152D01*
X-7000Y757460D01*
Y761040D01*
X-8370Y764348D01*
X-10902Y766880D01*
X-14210Y768250D01*
D02*
G37*
G36*
X147500Y795000D02*
X92500D01*
Y745000D01*
X147500D01*
Y795000D01*
D02*
G37*
G36*
X-1618Y726000D02*
X-4382D01*
X-7053Y725284D01*
X-9447Y723902D01*
X-11402Y721947D01*
X-12784Y719553D01*
X-13500Y716882D01*
Y714118D01*
X-12784Y711447D01*
X-11402Y709053D01*
X-9447Y707098D01*
X-7053Y705716D01*
X-4382Y705000D01*
X-1618D01*
X1053Y705716D01*
X3447Y707098D01*
X5402Y709053D01*
X6784Y711447D01*
X7500Y714118D01*
Y716882D01*
X6784Y719553D01*
X5402Y721947D01*
X3447Y723902D01*
X1053Y725284D01*
X-1618Y726000D01*
D02*
G37*
G36*
X45142Y838000D02*
X42358D01*
X39785Y836934D01*
X37816Y834965D01*
X36750Y832392D01*
Y829608D01*
X37816Y827035D01*
X39431Y825419D01*
Y797728D01*
X-30523Y727773D01*
X-31297Y726616D01*
X-31569Y725250D01*
Y711263D01*
X-33098Y710630D01*
X-35630Y708098D01*
X-37000Y704790D01*
Y701210D01*
X-35630Y697902D01*
X-33098Y695370D01*
X-29790Y694000D01*
X-26210D01*
X-22902Y695370D01*
X-20370Y697902D01*
X-19000Y701210D01*
Y704790D01*
X-20370Y708098D01*
X-22902Y710630D01*
X-24431Y711263D01*
Y723772D01*
X45523Y793727D01*
X46297Y794884D01*
X46569Y796250D01*
Y824591D01*
X47715Y825066D01*
X49684Y827035D01*
X50750Y829608D01*
Y832392D01*
X49684Y834965D01*
X47715Y836934D01*
X45142Y838000D01*
D02*
G37*
G36*
X473489Y679750D02*
X472750D01*
Y671000D01*
X481500D01*
Y671739D01*
X479978Y675415D01*
X477164Y678228D01*
X473489Y679750D01*
D02*
G37*
G36*
X470250D02*
X469511D01*
X465835Y678228D01*
X463022Y675415D01*
X461500Y671739D01*
Y671000D01*
X470250D01*
Y679750D01*
D02*
G37*
G36*
X481500Y668500D02*
X472750D01*
Y659750D01*
X473489D01*
X477164Y661272D01*
X479978Y664085D01*
X481500Y667761D01*
Y668500D01*
D02*
G37*
G36*
X470250D02*
X461500D01*
Y667761D01*
X463022Y664085D01*
X465835Y661272D01*
X469511Y659750D01*
X470250D01*
Y668500D01*
D02*
G37*
G36*
X-26210Y667000D02*
X-29790D01*
X-33098Y665630D01*
X-35630Y663098D01*
X-37000Y659790D01*
Y656210D01*
X-35630Y652902D01*
X-33098Y650370D01*
X-29790Y649000D01*
X-26210D01*
X-22902Y650370D01*
X-20370Y652902D01*
X-19000Y656210D01*
Y659790D01*
X-20370Y663098D01*
X-22902Y665630D01*
X-26210Y667000D01*
D02*
G37*
G36*
X-1618Y656000D02*
X-4382D01*
X-7053Y655284D01*
X-9447Y653902D01*
X-11402Y651947D01*
X-12784Y649553D01*
X-13500Y646882D01*
Y644118D01*
X-12784Y641447D01*
X-11402Y639053D01*
X-9447Y637098D01*
X-7053Y635716D01*
X-4382Y635000D01*
X-1618D01*
X1053Y635716D01*
X3447Y637098D01*
X5402Y639053D01*
X6784Y641447D01*
X7500Y644118D01*
Y646882D01*
X6784Y649553D01*
X5402Y651947D01*
X3447Y653902D01*
X1053Y655284D01*
X-1618Y656000D01*
D02*
G37*
%LPD*%
D15*
X645250Y705500D02*
X646000Y706250D01*
X625343Y705500D02*
X645250D01*
X594000Y705250D02*
Y725250D01*
X610000Y689250D02*
Y705500D01*
X623465Y725657D02*
X625808Y728000D01*
X623465Y707379D02*
Y725657D01*
X625808Y728000D02*
X632000D01*
X623465Y707379D02*
X625343Y705500D01*
X632000Y728000D02*
X632313Y728313D01*
X654907Y726250D02*
X655000D01*
X632000Y720500D02*
X649157D01*
X654907Y726250D01*
X653661Y727589D02*
Y733140D01*
X632000Y735500D02*
X651300D01*
X653661Y733140D01*
Y727589D02*
X655000Y726250D01*
X588000Y788250D02*
X595000Y781250D01*
X605500D01*
X634500Y771250D02*
X707000D01*
X609343Y760907D02*
X731657D01*
X610000Y749907D02*
X612343Y752250D01*
X610000Y743000D02*
Y749907D01*
X686000Y752250D02*
X749000Y689250D01*
X612343Y752250D02*
X686000D01*
X651000Y688250D02*
X675000Y664250D01*
X749000D01*
X731657Y760907D02*
X748000Y777250D01*
Y799250D01*
X605500Y764750D02*
X609343Y760907D01*
X605500Y764750D02*
Y771250D01*
X598250Y743000D02*
X610000D01*
X596750Y728000D02*
X610000D01*
X594000Y725250D02*
X596750Y728000D01*
X593000Y748250D02*
X598250Y743000D01*
D16*
X585000Y695250D02*
X600905Y679345D01*
X616095D01*
X585000Y695250D02*
Y735500D01*
X610000D01*
X582750D02*
X585000D01*
X616095Y679345D02*
X633905Y697155D01*
X728595D01*
X749000Y676750D01*
X647000Y781250D02*
X656000Y790250D01*
X634500Y781250D02*
X647000D01*
X577000Y741250D02*
Y759250D01*
Y741250D02*
X582750Y735500D01*
D17*
X279750Y757750D02*
X317750Y719750D01*
X471500D01*
X322750Y709750D02*
X479750D01*
X481200Y706250D02*
X487500Y712550D01*
X479750Y709750D02*
X484000Y714000D01*
X290000Y742500D02*
X322750Y709750D01*
X321250Y706250D02*
X477092D01*
X481200D01*
X300500Y727000D02*
X321250Y706250D01*
X471500Y768500D02*
X487500Y752500D01*
X471500Y744750D02*
X484000Y732250D01*
X487500Y712550D02*
Y752500D01*
X484000Y714000D02*
Y732250D01*
X320050Y702500D02*
X463750D01*
X303775Y718775D02*
X320050Y702500D01*
X463750D02*
X471500Y694750D01*
X238546Y718775D02*
X303775D01*
X232571Y724750D02*
X238546Y718775D01*
X232500Y724750D02*
X232571D01*
X471500Y768500D02*
Y769750D01*
X251750Y727000D02*
X300500D01*
X272750Y742500D02*
X290000D01*
X272000Y757750D02*
X279750D01*
X196500Y810750D02*
X196875Y811125D01*
X257125D02*
X257500Y811500D01*
X196875Y811125D02*
X257125D01*
X188750Y803000D02*
X196500Y810750D01*
X188750Y733000D02*
Y803000D01*
Y733000D02*
X196000Y725750D01*
X186750Y859000D02*
X215250Y830500D01*
X177250Y859000D02*
X186750D01*
X156500Y879750D02*
X177250Y859000D01*
X156500Y879750D02*
Y887000D01*
D35*
X329500Y858255D02*
Y858500D01*
X292745Y821500D02*
X329500Y858255D01*
X163750Y801000D02*
X184250Y821500D01*
X292745D01*
X163750Y752250D02*
Y801000D01*
X145750Y734250D02*
X163750Y752250D01*
X81500Y734250D02*
X145750D01*
X49000Y701750D02*
X81500Y734250D01*
X438750Y905250D02*
X448750Y895250D01*
X267250Y897000D02*
X275500Y905250D01*
X438750D01*
X247000Y897000D02*
X267250D01*
X-28000Y725250D02*
X43000Y796250D01*
X-28000Y703000D02*
Y725250D01*
X43000Y796250D02*
Y830250D01*
X43750Y831000D01*
X125000Y876250D02*
Y886000D01*
X89250Y840500D02*
X125000Y876250D01*
Y886000D02*
X147000Y908000D01*
X236000D02*
X247000Y897000D01*
X147000Y908000D02*
X236000D01*
D49*
X749000Y689250D02*
D03*
Y664250D02*
D03*
Y676750D02*
D03*
Y651750D02*
D03*
X748000Y836750D02*
D03*
Y811750D02*
D03*
Y824250D02*
D03*
Y799250D02*
D03*
X144000Y887000D02*
D03*
X169000D02*
D03*
X156500D02*
D03*
X181500D02*
D03*
X63000D02*
D03*
X88000D02*
D03*
X75500D02*
D03*
X100500D02*
D03*
D50*
X645000Y855250D02*
D03*
X715000Y745250D02*
D03*
X685000Y730250D02*
D03*
X715000Y675250D02*
D03*
X610000Y640250D02*
D03*
X540000Y765250D02*
D03*
Y735250D02*
D03*
Y705250D02*
D03*
X594000D02*
D03*
X610000Y689250D02*
D03*
X646000Y706250D02*
D03*
X655000Y726250D02*
D03*
X588000Y788250D02*
D03*
X690000Y711250D02*
D03*
X707000Y771250D02*
D03*
X651000Y688250D02*
D03*
X613000Y818250D02*
D03*
X656000Y790250D02*
D03*
X709000Y807250D02*
D03*
X577000Y759250D02*
D03*
X593000Y748250D02*
D03*
X329500Y858500D02*
D03*
X256000Y832000D02*
D03*
X272000Y757750D02*
D03*
X257500Y811500D02*
D03*
X232500Y724750D02*
D03*
X272750Y742500D02*
D03*
X196000Y725750D02*
D03*
X251750Y727000D02*
D03*
X196500Y810750D02*
D03*
X448750Y895250D02*
D03*
X43750Y831000D02*
D03*
X89250Y840500D02*
D03*
X49000Y701750D02*
D03*
X215250Y830500D02*
D03*
X232500Y665250D02*
D03*
X245250Y710000D02*
D03*
X161750Y692500D02*
D03*
X406500Y767500D02*
D03*
X453750Y826750D02*
D03*
X119500Y720000D02*
D03*
X59500Y741000D02*
D03*
X64500Y775250D02*
D03*
D51*
X471500Y794750D02*
D03*
Y769750D02*
D03*
Y744750D02*
D03*
Y719750D02*
D03*
Y694750D02*
D03*
Y669750D02*
D03*
X247000Y897000D02*
D03*
X217000D02*
D03*
D52*
X-28000Y658000D02*
D03*
Y703000D02*
D03*
X-16000Y784750D02*
D03*
Y759250D02*
D03*
D53*
X-3000Y645500D02*
D03*
Y715500D02*
D03*
D54*
X-35000Y821800D02*
D03*
Y908200D02*
D03*
D55*
X18600Y821800D02*
D03*
Y908200D02*
D03*
D56*
X412500Y830000D02*
D03*
X380000D02*
D03*
X395000Y750000D02*
D03*
X160000Y645000D02*
D03*
X165000Y735000D02*
D03*
X5000Y800000D02*
D03*
X295000Y860000D02*
D03*
X25000Y710000D02*
D03*
X40000Y630000D02*
D03*
X55000Y650000D02*
D03*
X100000Y665000D02*
D03*
X125000D02*
D03*
X175000Y670000D02*
D03*
X220000Y695000D02*
D03*
X450000Y635000D02*
D03*
X480000D02*
D03*
Y650000D02*
D03*
X450000D02*
D03*
X420000Y730000D02*
D03*
X485000Y875000D02*
D03*
Y905000D02*
D03*
X120000Y855000D02*
D03*
X40000Y905000D02*
D03*
X45000Y860000D02*
D03*
X65000Y800000D02*
D03*
X155000Y775000D02*
D03*
X115000Y810000D02*
D03*
X90000Y805000D02*
D03*
Y825000D02*
D03*
X285000Y769000D02*
D03*
X224000Y788000D02*
D03*
X212000D02*
D03*
X224000Y776000D02*
D03*
X248000Y788000D02*
D03*
X236000D02*
D03*
X248000Y776000D02*
D03*
X236000D02*
D03*
X248000Y764000D02*
D03*
X236000D02*
D03*
X248000Y752000D02*
D03*
X236000D02*
D03*
X212000Y776000D02*
D03*
X224000Y764000D02*
D03*
X212000D02*
D03*
X224000Y752000D02*
D03*
X212000D02*
D03*
X430000Y630000D02*
D03*
Y642500D02*
D03*
Y655000D02*
D03*
Y667500D02*
D03*
Y680000D02*
D03*
Y692500D02*
D03*
X415000D02*
D03*
X400000D02*
D03*
X385000D02*
D03*
X370000D02*
D03*
X355000D02*
D03*
X337500D02*
D03*
X320000D02*
D03*
X277500D02*
D03*
X260000D02*
D03*
Y680000D02*
D03*
Y667500D02*
D03*
Y655000D02*
D03*
Y630000D02*
D03*
Y642500D02*
D03*
D57*
X610000Y705500D02*
D03*
Y713000D02*
D03*
Y720500D02*
D03*
Y728000D02*
D03*
Y735500D02*
D03*
Y743000D02*
D03*
X632000Y705500D02*
D03*
Y713000D02*
D03*
Y720500D02*
D03*
Y728000D02*
D03*
Y735500D02*
D03*
Y743000D02*
D03*
D58*
X605500Y791250D02*
D03*
Y781250D02*
D03*
Y771250D02*
D03*
X634500Y791250D02*
D03*
Y781250D02*
D03*
Y771250D02*
D03*
D59*
X620000Y781250D02*
D03*
M02*
