G04*
G04 #@! TF.GenerationSoftware,Altium Limited,Altium Designer,23.8.1 (32)*
G04*
G04 Layer_Physical_Order=1*
G04 Layer_Color=255*
%FSLAX44Y44*%
%MOMM*%
G71*
G04*
G04 #@! TF.SameCoordinates,7BD4B443-AC8F-467E-A65E-793A9AF9F4B1*
G04*
G04*
G04 #@! TF.FilePolarity,Positive*
G04*
G01*
G75*
%ADD10R,0.8000X0.9000*%
%ADD11R,1.4000X0.9500*%
%ADD12R,0.9500X1.4000*%
%ADD13R,0.9000X0.8000*%
%ADD14R,0.6000X0.8000*%
%ADD15C,0.4000*%
%ADD16C,0.3810*%
%ADD17C,0.2000*%
%ADD18R,0.8000X0.6000*%
%ADD19R,0.9000X0.5000*%
%ADD20R,0.5000X0.5000*%
%ADD21R,0.8000X0.8000*%
%ADD22R,0.8000X0.2000*%
%ADD23R,0.2000X0.8000*%
%ADD24R,4.6000X4.6000*%
%ADD25R,2.5000X2.0000*%
%ADD26R,0.7000X0.6000*%
%ADD27R,1.4000X0.8000*%
%ADD28R,2.0000X0.8000*%
%ADD29R,2.4000X2.0000*%
%ADD30R,2.0000X2.5000*%
%ADD31R,1.8000X1.0000*%
%ADD32R,1.4000X1.2000*%
%ADD33R,0.7000X1.0000*%
%ADD34R,0.7000X0.3000*%
%ADD35C,0.3000*%
%ADD36C,0.6000*%
%ADD37C,0.5000*%
%ADD38R,0.5000X2.7692*%
%ADD39R,2.1583X0.5000*%
%ADD40R,2.3761X0.5000*%
%ADD41R,2.7000X0.5000*%
%ADD42R,5.0000X0.5000*%
%ADD43R,0.5000X4.2606*%
%ADD44R,0.5000X2.7180*%
%ADD45R,0.5000X2.7455*%
%ADD46R,0.5000X3.1400*%
%ADD47R,0.5000X4.6045*%
%ADD48R,0.9000X4.9087*%
%ADD49C,0.9000*%
%ADD50C,1.1000*%
%ADD51C,1.5000*%
%ADD52C,1.4000*%
%ADD53C,1.7000*%
%ADD54O,2.6000X1.3000*%
%ADD55O,2.1000X1.0000*%
%ADD56C,0.7000*%
G36*
X492500Y625000D02*
X425000D01*
Y675000D01*
X303029D01*
Y676492D01*
X303117Y676935D01*
Y688500D01*
X304500D01*
Y700500D01*
X292500D01*
Y688500D01*
X293941D01*
Y676935D01*
X294029Y676492D01*
Y675000D01*
X284530D01*
Y675705D01*
X283702D01*
X283557Y676054D01*
X282026Y676688D01*
X277530D01*
X273026D01*
X271495Y676054D01*
X271350Y675705D01*
X270530D01*
Y675000D01*
X265000D01*
Y622500D01*
X-52500D01*
Y813000D01*
X-1000D01*
Y850089D01*
X500Y850711D01*
X1234Y849977D01*
X2392Y849203D01*
X3757Y848931D01*
X4200D01*
Y841500D01*
X3700D01*
Y835250D01*
X9700D01*
Y832750D01*
X3700D01*
Y826500D01*
X5629D01*
X6336Y825177D01*
X6035Y824726D01*
X5702Y823050D01*
X18600D01*
Y821800D01*
X19850D01*
Y814153D01*
X24100D01*
X27026Y814735D01*
X29312Y816262D01*
X30273Y816114D01*
X30958Y815864D01*
X31030Y815577D01*
X21477Y806023D01*
X20703Y804866D01*
X20431Y803500D01*
Y789750D01*
X18000D01*
Y788319D01*
X-7737D01*
X-8370Y789848D01*
X-10902Y792380D01*
X-14210Y793750D01*
X-17790D01*
X-21098Y792380D01*
X-23630Y789848D01*
X-25000Y786540D01*
Y782960D01*
X-23630Y779652D01*
X-21098Y777120D01*
X-17790Y775750D01*
X-14210D01*
X-10902Y777120D01*
X-8370Y779652D01*
X-7737Y781181D01*
X18000D01*
Y779750D01*
X30000D01*
Y789750D01*
X27569D01*
Y802022D01*
X37773Y812227D01*
X38547Y813384D01*
X38819Y814750D01*
Y824072D01*
X40319Y824845D01*
X42358Y824000D01*
X45142D01*
X47715Y825066D01*
X49684Y827035D01*
X49849Y827431D01*
X51500D01*
Y826000D01*
X63500D01*
Y836000D01*
X51500D01*
Y834569D01*
X49849D01*
X49684Y834965D01*
X47715Y836934D01*
X45142Y838000D01*
X42358D01*
X40319Y837155D01*
X38819Y837928D01*
Y846431D01*
X51500D01*
Y845000D01*
X63500D01*
Y855000D01*
X51500D01*
Y853569D01*
X28200D01*
Y863500D01*
X17200D01*
Y857575D01*
X17187Y857554D01*
X15700Y856710D01*
X15438Y856857D01*
X15200Y857180D01*
Y864000D01*
Y872820D01*
X15221Y872852D01*
X15700Y873105D01*
X17200Y872200D01*
Y866500D01*
X28200D01*
Y876431D01*
X32000D01*
X33366Y876703D01*
X34523Y877477D01*
X65728Y908681D01*
X251272D01*
X277477Y882477D01*
X278634Y881703D01*
X280000Y881431D01*
X282000D01*
Y870500D01*
X306000D01*
Y899500D01*
X297569D01*
Y902022D01*
X298728Y903181D01*
X356500D01*
Y901500D01*
X366000D01*
X375500D01*
Y903181D01*
X445686D01*
X445985Y901681D01*
X444785Y901184D01*
X442816Y899215D01*
X441750Y896642D01*
Y893858D01*
X442816Y891285D01*
X444785Y889316D01*
X445181Y889151D01*
Y887250D01*
X439750D01*
Y873750D01*
X457750D01*
Y887250D01*
X452319D01*
Y889151D01*
X452715Y889316D01*
X454684Y891285D01*
X455750Y893858D01*
Y896642D01*
X455616Y896966D01*
X456888Y897816D01*
X466431Y888272D01*
Y850250D01*
X461000D01*
Y836750D01*
X479000D01*
Y850250D01*
X473568D01*
Y889750D01*
X473297Y891116D01*
X472523Y892273D01*
X455523Y909273D01*
X454366Y910047D01*
X453000Y910319D01*
X375950D01*
X375608Y910547D01*
X374243Y910819D01*
X357757D01*
X356392Y910547D01*
X356050Y910319D01*
X297250D01*
X295884Y910047D01*
X294727Y909273D01*
X291477Y906023D01*
X290703Y904866D01*
X290431Y903500D01*
Y899500D01*
X282000D01*
Y890168D01*
X280500Y889547D01*
X255273Y914773D01*
X254116Y915547D01*
X252750Y915819D01*
X64250D01*
X62884Y915547D01*
X61727Y914773D01*
X30522Y883569D01*
X28200D01*
Y891000D01*
X28700D01*
Y893750D01*
X22700D01*
Y895000D01*
X21450D01*
Y899000D01*
X18266D01*
X17286Y900500D01*
X17309Y900553D01*
X17350D01*
Y906950D01*
X5702D01*
X6035Y905274D01*
X6336Y904823D01*
X5629Y903500D01*
X3700D01*
Y897250D01*
X9700D01*
Y894750D01*
X3700D01*
Y888500D01*
X4200D01*
Y881069D01*
X3787D01*
X2422Y880797D01*
X1264Y880023D01*
X500Y879259D01*
X-1000Y879881D01*
Y917500D01*
X492500D01*
Y625000D01*
D02*
G37*
G36*
X769392Y625858D02*
X591500D01*
Y684250D01*
X530608D01*
Y803250D01*
X594000D01*
Y864642D01*
X769392D01*
Y625858D01*
D02*
G37*
%LPC*%
G36*
X24100Y915847D02*
X19850D01*
Y909450D01*
X31498D01*
X31165Y911126D01*
X29507Y913607D01*
X27026Y915265D01*
X24100Y915847D01*
D02*
G37*
G36*
X17350D02*
X13100D01*
X10174Y915265D01*
X7693Y913607D01*
X6035Y911126D01*
X5702Y909450D01*
X17350D01*
Y915847D01*
D02*
G37*
G36*
X31498Y906950D02*
X19850D01*
Y900553D01*
X24100D01*
X27026Y901135D01*
X29507Y902793D01*
X31165Y905274D01*
X31498Y906950D01*
D02*
G37*
G36*
X218989Y907000D02*
X218250D01*
Y898250D01*
X227000D01*
Y898989D01*
X225478Y902664D01*
X222665Y905478D01*
X218989Y907000D01*
D02*
G37*
G36*
X215750D02*
X215011D01*
X211335Y905478D01*
X208522Y902664D01*
X207000Y898989D01*
Y898250D01*
X215750D01*
Y907000D01*
D02*
G37*
G36*
X23950Y899000D02*
Y896250D01*
X28700D01*
Y899000D01*
X23950D01*
D02*
G37*
G36*
X364750Y899000D02*
X356500D01*
Y893750D01*
X364750D01*
Y899000D01*
D02*
G37*
G36*
X142750Y894000D02*
X142608D01*
X140035Y892934D01*
X138066Y890965D01*
X137000Y888392D01*
Y888250D01*
X142750D01*
Y894000D01*
D02*
G37*
G36*
X248890Y906500D02*
X245110D01*
X241619Y905054D01*
X238946Y902381D01*
X237500Y898890D01*
Y895110D01*
X238946Y891619D01*
X241619Y888946D01*
X245110Y887500D01*
X248890D01*
X252381Y888946D01*
X255054Y891619D01*
X256500Y895110D01*
Y898890D01*
X255054Y902381D01*
X252381Y905054D01*
X248890Y906500D01*
D02*
G37*
G36*
X227000Y895750D02*
X218250D01*
Y887000D01*
X218989D01*
X222665Y888522D01*
X225478Y891336D01*
X227000Y895011D01*
Y895750D01*
D02*
G37*
G36*
X215750D02*
X207000D01*
Y895011D01*
X208522Y891336D01*
X211335Y888522D01*
X215011Y887000D01*
X215750D01*
Y895750D01*
D02*
G37*
G36*
X348000Y899500D02*
X324000D01*
Y870500D01*
X332431D01*
Y867376D01*
X330556Y865500D01*
X328108D01*
X325535Y864434D01*
X323566Y862465D01*
X322500Y859892D01*
Y857108D01*
X323349Y855059D01*
X322582Y853559D01*
X280500D01*
X280500Y853559D01*
X279329Y853326D01*
X278337Y852663D01*
X277636Y851962D01*
X276250Y852536D01*
Y859250D01*
X258250D01*
Y856824D01*
X258091Y856585D01*
X256750Y855709D01*
X256250Y855809D01*
X256250Y855809D01*
X255311D01*
X254250Y856869D01*
Y857750D01*
X254250Y859250D01*
Y867750D01*
X243250D01*
Y865809D01*
X239250D01*
Y868750D01*
X227250D01*
Y856750D01*
X239250D01*
Y859691D01*
X242189D01*
X243250Y858631D01*
Y857750D01*
X243250Y856250D01*
Y847750D01*
X245691D01*
Y845267D01*
X240450Y840026D01*
X239250Y840947D01*
Y852750D01*
X227250D01*
Y840750D01*
X230191D01*
Y837017D01*
X223750Y830576D01*
X222250Y831197D01*
Y831892D01*
X221184Y834465D01*
X219215Y836434D01*
X216642Y837500D01*
X213858D01*
X211285Y836434D01*
X209316Y834465D01*
X208250Y831892D01*
Y829108D01*
X208625Y828201D01*
X205837Y825413D01*
X205174Y824420D01*
X204941Y823250D01*
X204941Y823250D01*
Y819059D01*
X201750D01*
X201750Y819059D01*
X200579Y818826D01*
X199587Y818163D01*
X199587Y818163D01*
X198799Y817375D01*
X197892Y817750D01*
X195108D01*
X192535Y816684D01*
X191559Y815708D01*
X190059Y816330D01*
Y821733D01*
X196913Y828587D01*
X197576Y829579D01*
X197809Y830750D01*
X197809Y830750D01*
Y832750D01*
X203750D01*
Y844431D01*
X206750D01*
Y841250D01*
X224750D01*
Y854750D01*
X206750D01*
Y851569D01*
X204250D01*
Y855250D01*
X194750D01*
X185250D01*
Y851569D01*
X182000D01*
Y855000D01*
X160000D01*
Y841000D01*
X167941D01*
Y837000D01*
X167941Y837000D01*
X168174Y835829D01*
X168837Y834837D01*
X172288Y831386D01*
X171714Y830000D01*
X160000D01*
Y826059D01*
X156267D01*
X151059Y831267D01*
Y833500D01*
X157000D01*
Y847000D01*
X139000D01*
X138559Y848317D01*
Y850000D01*
X146750D01*
Y857250D01*
Y864500D01*
X142536D01*
X141961Y865886D01*
X149517Y873441D01*
X171000D01*
X171000Y873441D01*
X172171Y873674D01*
X173163Y874337D01*
X179584Y880758D01*
X180207Y880500D01*
X182793D01*
X185182Y881490D01*
X187010Y883318D01*
X188000Y885707D01*
Y888293D01*
X187010Y890682D01*
X185182Y892510D01*
X182793Y893500D01*
X180207D01*
X177818Y892510D01*
X176092Y890784D01*
X175250Y890730D01*
X174408Y890784D01*
X172682Y892510D01*
X170293Y893500D01*
X167707D01*
X165318Y892510D01*
X163592Y890784D01*
X162750Y890730D01*
X161908Y890784D01*
X160182Y892510D01*
X157793Y893500D01*
X155207D01*
X152818Y892510D01*
X151474Y891167D01*
X150245Y891006D01*
X149624Y891276D01*
X147965Y892934D01*
X145392Y894000D01*
X145250D01*
Y887000D01*
X144000D01*
Y885750D01*
X137000D01*
Y885608D01*
X138066Y883035D01*
X140035Y881066D01*
X141266Y880556D01*
X141559Y879084D01*
X129337Y866863D01*
X128674Y865870D01*
X128441Y864700D01*
X128441Y864700D01*
Y838995D01*
X127055Y838421D01*
X103559Y861918D01*
Y881232D01*
X104182Y881490D01*
X106010Y883318D01*
X107000Y885707D01*
Y888293D01*
X106010Y890682D01*
X104182Y892510D01*
X101793Y893500D01*
X99207D01*
X96818Y892510D01*
X95092Y890784D01*
X94250Y890730D01*
X93408Y890784D01*
X91682Y892510D01*
X89293Y893500D01*
X86707D01*
X84318Y892510D01*
X82592Y890784D01*
X81750Y890730D01*
X80908Y890784D01*
X79182Y892510D01*
X76793Y893500D01*
X74207D01*
X71818Y892510D01*
X70092Y890784D01*
X69250Y890730D01*
X68408Y890784D01*
X66682Y892510D01*
X64293Y893500D01*
X61707D01*
X59318Y892510D01*
X57490Y890682D01*
X56500Y888293D01*
Y885707D01*
X57490Y883318D01*
X59318Y881490D01*
X60253Y881102D01*
Y880706D01*
X60253Y880705D01*
X60486Y879535D01*
X61149Y878543D01*
X90727Y848965D01*
X90070Y847500D01*
X87858D01*
X85285Y846434D01*
X84000Y845150D01*
X82500Y845500D01*
X82500Y845500D01*
X70500D01*
Y835500D01*
X72931D01*
Y794478D01*
X66772Y788319D01*
X55000D01*
Y789750D01*
X43000D01*
Y780750D01*
X42500D01*
Y776500D01*
X49000D01*
X55500D01*
Y780750D01*
X56821Y781181D01*
X68250D01*
X69616Y781453D01*
X70773Y782227D01*
X79023Y790477D01*
X79797Y791634D01*
X80069Y793000D01*
Y835500D01*
X82500D01*
Y835500D01*
X84000Y835851D01*
X85285Y834566D01*
X87858Y833500D01*
X90642D01*
X93215Y834566D01*
X95184Y836535D01*
X96250Y839108D01*
Y841320D01*
X97715Y841977D01*
X143306Y796386D01*
X142732Y795000D01*
X92500D01*
Y745000D01*
X147500D01*
Y790232D01*
X148886Y790806D01*
X179247Y760445D01*
X178673Y759059D01*
X173036D01*
X173036Y759059D01*
X171865Y758826D01*
X170873Y758163D01*
X170872Y758163D01*
X147587Y734877D01*
X146924Y733885D01*
X146691Y732714D01*
X146691Y732714D01*
Y696750D01*
X118000D01*
Y688319D01*
X98500D01*
Y696750D01*
X87569D01*
Y714000D01*
X90500D01*
Y726000D01*
X77500D01*
Y714000D01*
X80431D01*
Y696750D01*
X69500D01*
Y672750D01*
X80431D01*
Y671228D01*
X79022Y669818D01*
X55000D01*
Y671250D01*
X43000D01*
Y661250D01*
X55000D01*
Y662681D01*
X80500D01*
X81866Y662953D01*
X83023Y663727D01*
X86523Y667227D01*
X87297Y668384D01*
X87569Y669750D01*
Y672750D01*
X98500D01*
Y681181D01*
X118000D01*
Y672750D01*
X141964D01*
X142538Y671364D01*
X130337Y659163D01*
X129674Y658170D01*
X129441Y657000D01*
X129441Y657000D01*
Y654750D01*
X118000D01*
Y635418D01*
X116500Y634797D01*
X106023Y645273D01*
X104866Y646047D01*
X103500Y646319D01*
X98500D01*
Y654750D01*
X69500D01*
Y646319D01*
X28978D01*
X14773Y660523D01*
X13616Y661297D01*
X12250Y661569D01*
X-19737D01*
X-20370Y663098D01*
X-22902Y665630D01*
X-26210Y667000D01*
X-29790D01*
X-33098Y665630D01*
X-35630Y663098D01*
X-37000Y659790D01*
Y656210D01*
X-35630Y652902D01*
X-33098Y650370D01*
X-29790Y649000D01*
X-26210D01*
X-22902Y650370D01*
X-20370Y652902D01*
X-19737Y654431D01*
X-11039D01*
X-10418Y652931D01*
X-11402Y651947D01*
X-12784Y649553D01*
X-13500Y646882D01*
Y644118D01*
X-12784Y641447D01*
X-11402Y639053D01*
X-9447Y637098D01*
X-7053Y635716D01*
X-4382Y635000D01*
X-1618D01*
X1053Y635716D01*
X3447Y637098D01*
X5402Y639053D01*
X6784Y641447D01*
X7500Y644118D01*
Y646882D01*
X6784Y649553D01*
X5402Y651947D01*
X4418Y652931D01*
X5039Y654431D01*
X10772D01*
X24977Y640227D01*
X26134Y639453D01*
X27500Y639181D01*
X69500D01*
Y630750D01*
X98500D01*
Y639181D01*
X102022D01*
X113977Y627227D01*
X115134Y626453D01*
X116500Y626181D01*
X175993D01*
X177358Y626453D01*
X178516Y627227D01*
X180273Y628984D01*
X181047Y630142D01*
X181319Y631507D01*
Y636750D01*
X184250D01*
Y648750D01*
X171250D01*
Y636750D01*
X174181D01*
Y633319D01*
X147000D01*
Y654750D01*
X136697D01*
X136076Y656250D01*
X151913Y672087D01*
X151913Y672087D01*
X152576Y673080D01*
X152809Y674250D01*
X152809Y674250D01*
Y731448D01*
X171250Y749889D01*
X172750Y749268D01*
Y737250D01*
X184750D01*
Y740691D01*
X186250D01*
X186250Y740691D01*
X187421Y740924D01*
X188413Y741587D01*
X193614Y746788D01*
X195000Y746214D01*
Y745000D01*
X204500D01*
Y744500D01*
X205000D01*
Y741295D01*
X204941Y741000D01*
Y728809D01*
X202310D01*
X201934Y729715D01*
X199965Y731684D01*
X197392Y732750D01*
X194608D01*
X192035Y731684D01*
X190066Y729715D01*
X189000Y727142D01*
Y724358D01*
X190066Y721785D01*
X192035Y719816D01*
X194608Y718750D01*
X197392D01*
X199965Y719816D01*
X201934Y721785D01*
X202310Y722691D01*
X204941D01*
Y717767D01*
X192587Y705413D01*
X191924Y704420D01*
X191691Y703250D01*
X191691Y703250D01*
Y648750D01*
X188250D01*
Y636750D01*
X201250D01*
Y639691D01*
X211750D01*
Y636750D01*
X223750D01*
Y648750D01*
X211750D01*
Y645809D01*
X201250D01*
Y648750D01*
X197809D01*
Y701983D01*
X210163Y714337D01*
X210163Y714337D01*
X210826Y715330D01*
X211059Y716500D01*
X211059Y716500D01*
Y725750D01*
Y735000D01*
X236900D01*
X236924Y733500D01*
X234799Y731375D01*
X233892Y731750D01*
X231108D01*
X228535Y730684D01*
X226566Y728715D01*
X225500Y726142D01*
Y723358D01*
X226566Y720785D01*
X228535Y718816D01*
X231108Y717750D01*
X233892D01*
X236465Y718816D01*
X238434Y720785D01*
X239500Y723358D01*
Y726142D01*
X239125Y727049D01*
X242163Y730087D01*
X242826Y731079D01*
X243059Y732250D01*
X243059Y732250D01*
Y735000D01*
X248941D01*
Y733413D01*
X247785Y732934D01*
X245816Y730965D01*
X244750Y728392D01*
Y725608D01*
X245816Y723035D01*
X247785Y721066D01*
X250358Y720000D01*
X253142D01*
X255715Y721066D01*
X257684Y723035D01*
X258750Y725608D01*
Y728392D01*
X257684Y730965D01*
X255715Y732934D01*
X255059Y733206D01*
Y741000D01*
X255000Y741295D01*
Y744500D01*
X255500D01*
Y745000D01*
X258704D01*
X259000Y744941D01*
X264561D01*
X265750Y743892D01*
Y741108D01*
X266816Y738535D01*
X268785Y736566D01*
X271358Y735500D01*
X274142D01*
X276715Y736566D01*
X277441Y737292D01*
X278941Y736671D01*
Y719500D01*
X275250D01*
Y701500D01*
X288750D01*
Y706422D01*
X292500D01*
Y704500D01*
X304500D01*
Y716500D01*
X292500D01*
Y714578D01*
X288750D01*
Y719500D01*
X285059D01*
Y759500D01*
X284826Y760670D01*
X284346Y761388D01*
X284217Y762372D01*
X283109Y765047D01*
X281345Y767345D01*
X279047Y769109D01*
X276371Y770217D01*
X275388Y770346D01*
X274671Y770826D01*
X273500Y771059D01*
X265500D01*
Y772941D01*
X287733D01*
X288941Y771733D01*
Y744000D01*
X288941Y744000D01*
X289174Y742830D01*
X289837Y741837D01*
X297337Y734337D01*
X298330Y733674D01*
X299500Y733441D01*
X356250D01*
Y727500D01*
X369750D01*
Y745500D01*
X356250D01*
Y739559D01*
X347500D01*
Y774053D01*
X349000Y774674D01*
X358337Y765337D01*
X358337Y765337D01*
X359329Y764674D01*
X360500Y764441D01*
X360500Y764441D01*
X364250D01*
Y758500D01*
X377750D01*
Y776500D01*
X364250D01*
Y770559D01*
X361767D01*
X353182Y779143D01*
Y783500D01*
X359750D01*
Y790750D01*
Y798000D01*
X351500D01*
Y794786D01*
X350114Y794212D01*
X340913Y803413D01*
X339921Y804076D01*
X338750Y804309D01*
X338750Y804309D01*
X325844D01*
X325270Y805695D01*
X325663Y806087D01*
X325663Y806087D01*
X326326Y807079D01*
X326559Y808250D01*
Y809250D01*
X343750D01*
Y825250D01*
X343750D01*
Y826250D01*
X343750D01*
Y828964D01*
X345136Y829538D01*
X357941Y816733D01*
Y814500D01*
X352000D01*
Y801000D01*
X370000D01*
Y814500D01*
X364059D01*
Y818000D01*
X364059Y818000D01*
X363826Y819171D01*
X363163Y820163D01*
X358462Y824864D01*
X359036Y826250D01*
X364750D01*
Y832250D01*
X356500D01*
Y828786D01*
X355114Y828212D01*
X346913Y836413D01*
X345920Y837076D01*
X344750Y837309D01*
X343750Y838307D01*
Y842250D01*
X325750D01*
Y838772D01*
X325500Y837309D01*
X324329Y837076D01*
X323337Y836413D01*
X323337Y836413D01*
X323136Y836211D01*
X321750Y836786D01*
Y842250D01*
X303750D01*
Y826250D01*
X303750D01*
Y825250D01*
X303750D01*
Y820309D01*
X298000D01*
Y824000D01*
X280000D01*
Y810500D01*
X285941D01*
Y808267D01*
X277809Y800135D01*
X276309Y800756D01*
Y811500D01*
Y841983D01*
X277341Y843016D01*
X277448Y843087D01*
X278913Y844551D01*
X278913Y844552D01*
X278984Y844659D01*
X281767Y847441D01*
X357000D01*
Y843750D01*
X375000D01*
Y846931D01*
X387250D01*
Y843750D01*
X405250D01*
Y846931D01*
X418000D01*
Y843750D01*
X436000D01*
Y846931D01*
X438931D01*
Y810569D01*
X436250D01*
Y813750D01*
X418250D01*
Y810569D01*
X410000D01*
Y813750D01*
X392000D01*
Y810059D01*
X386250D01*
Y813500D01*
X374250D01*
Y800500D01*
X386250D01*
Y803941D01*
X392000D01*
Y800250D01*
X410000D01*
Y803431D01*
X418250D01*
Y800250D01*
X436250D01*
Y803431D01*
X457772D01*
X462751Y798452D01*
X462000Y796640D01*
Y792860D01*
X463446Y789369D01*
X466119Y786696D01*
X469610Y785250D01*
X473390D01*
X476881Y786696D01*
X479554Y789369D01*
X481000Y792860D01*
Y796640D01*
X479554Y800131D01*
X476881Y802804D01*
X473390Y804250D01*
X469610D01*
X467798Y803499D01*
X461773Y809523D01*
X460616Y810297D01*
X459250Y810569D01*
X446069D01*
Y848500D01*
X445797Y849866D01*
X445023Y851023D01*
X443023Y853023D01*
X441866Y853797D01*
X440500Y854069D01*
X436000D01*
Y857250D01*
X418000D01*
Y854069D01*
X405250D01*
Y857250D01*
X387250D01*
Y854069D01*
X375000D01*
Y857250D01*
X369569D01*
Y864250D01*
X375000D01*
Y872164D01*
X376000Y873250D01*
X404000D01*
Y881681D01*
X410000D01*
Y878500D01*
X428000D01*
Y892000D01*
X410000D01*
Y888819D01*
X404000D01*
Y897250D01*
X377000D01*
X376000Y897250D01*
X375500Y898543D01*
Y899000D01*
X367250D01*
Y893750D01*
X374500D01*
X375500Y893750D01*
X376000Y892457D01*
Y891000D01*
X357000D01*
Y888569D01*
X348000D01*
Y899500D01*
D02*
G37*
G36*
X276750Y876750D02*
X268500D01*
Y870750D01*
X276750D01*
Y876750D01*
D02*
G37*
G36*
X266000D02*
X257750D01*
Y870750D01*
X266000D01*
Y876750D01*
D02*
G37*
G36*
X428500Y875500D02*
X420250D01*
Y869500D01*
X428500D01*
Y875500D01*
D02*
G37*
G36*
X417750D02*
X409500D01*
Y869500D01*
X417750D01*
Y875500D01*
D02*
G37*
G36*
X225250Y872250D02*
X217000D01*
Y866250D01*
X225250D01*
Y872250D01*
D02*
G37*
G36*
X214500D02*
X206250D01*
Y866250D01*
X214500D01*
Y872250D01*
D02*
G37*
G36*
X458250Y870750D02*
X450000D01*
Y864750D01*
X458250D01*
Y870750D01*
D02*
G37*
G36*
X447500D02*
X439250D01*
Y864750D01*
X447500D01*
Y870750D01*
D02*
G37*
G36*
X276750Y868250D02*
X268500D01*
Y862250D01*
X276750D01*
Y868250D01*
D02*
G37*
G36*
X266000D02*
X257750D01*
Y862250D01*
X266000D01*
Y868250D01*
D02*
G37*
G36*
X428500Y867000D02*
X420250D01*
Y861000D01*
X428500D01*
Y867000D01*
D02*
G37*
G36*
X417750D02*
X409500D01*
Y861000D01*
X417750D01*
Y867000D01*
D02*
G37*
G36*
X157500Y864500D02*
X149250D01*
Y858500D01*
X157500D01*
Y864500D01*
D02*
G37*
G36*
X225250Y863750D02*
X217000D01*
Y857750D01*
X225250D01*
Y863750D01*
D02*
G37*
G36*
X214500D02*
X206250D01*
Y857750D01*
X214500D01*
Y863750D01*
D02*
G37*
G36*
X204250Y863750D02*
X196000D01*
Y857750D01*
X204250D01*
Y863750D01*
D02*
G37*
G36*
X193500D02*
X185250D01*
Y857750D01*
X193500D01*
Y863750D01*
D02*
G37*
G36*
X458250Y862250D02*
X450000D01*
Y856250D01*
X458250D01*
Y862250D01*
D02*
G37*
G36*
X447500D02*
X439250D01*
Y856250D01*
X447500D01*
Y862250D01*
D02*
G37*
G36*
X157500Y856000D02*
X149250D01*
Y850000D01*
X157500D01*
Y856000D01*
D02*
G37*
G36*
X298500Y841500D02*
X290250D01*
Y835500D01*
X298500D01*
Y841500D01*
D02*
G37*
G36*
X287750D02*
X279500D01*
Y835500D01*
X287750D01*
Y841500D01*
D02*
G37*
G36*
X405750Y840750D02*
X397500D01*
Y834750D01*
X405750D01*
Y840750D01*
D02*
G37*
G36*
X395000D02*
X386750D01*
Y834750D01*
X395000D01*
Y840750D01*
D02*
G37*
G36*
X375500D02*
X367250D01*
Y834750D01*
X375500D01*
Y840750D01*
D02*
G37*
G36*
X364750D02*
X356500D01*
Y834750D01*
X364750D01*
Y840750D01*
D02*
G37*
G36*
X436500D02*
X428250D01*
Y834750D01*
X436500D01*
Y840750D01*
D02*
G37*
G36*
X425750D02*
X417500D01*
Y834750D01*
X425750D01*
Y840750D01*
D02*
G37*
G36*
X479500Y833750D02*
X471250D01*
Y827750D01*
X479500D01*
Y833750D01*
D02*
G37*
G36*
X468750D02*
X460500D01*
Y827750D01*
X468750D01*
Y833750D01*
D02*
G37*
G36*
X298500Y833000D02*
X290250D01*
Y827000D01*
X298500D01*
Y833000D01*
D02*
G37*
G36*
X287750D02*
X279500D01*
Y827000D01*
X287750D01*
Y833000D01*
D02*
G37*
G36*
X436500Y832250D02*
X428250D01*
Y826250D01*
X436500D01*
Y832250D01*
D02*
G37*
G36*
X425750D02*
X417500D01*
Y826250D01*
X425750D01*
Y832250D01*
D02*
G37*
G36*
X405750Y832250D02*
X397500D01*
Y826250D01*
X405750D01*
Y832250D01*
D02*
G37*
G36*
X395000D02*
X386750D01*
Y826250D01*
X395000D01*
Y832250D01*
D02*
G37*
G36*
X375500Y832250D02*
X367250D01*
Y826250D01*
X375500D01*
Y832250D01*
D02*
G37*
G36*
X479500Y825250D02*
X471250D01*
Y819250D01*
X479500D01*
Y825250D01*
D02*
G37*
G36*
X468750D02*
X460500D01*
Y819250D01*
X468750D01*
Y825250D01*
D02*
G37*
G36*
X17350Y820550D02*
X5702D01*
X6035Y818874D01*
X7693Y816393D01*
X10174Y814735D01*
X13100Y814153D01*
X17350D01*
Y820550D01*
D02*
G37*
G36*
X370500Y798000D02*
X362250D01*
Y792000D01*
X370500D01*
Y798000D01*
D02*
G37*
G36*
X386750Y797000D02*
X381500D01*
Y791250D01*
X386750D01*
Y797000D01*
D02*
G37*
G36*
X379000D02*
X373750D01*
Y791250D01*
X379000D01*
Y797000D01*
D02*
G37*
G36*
X436750Y797250D02*
X428500D01*
Y791250D01*
X436750D01*
Y797250D01*
D02*
G37*
G36*
X410500D02*
X402250D01*
Y791250D01*
X410500D01*
Y797250D01*
D02*
G37*
G36*
X426000D02*
X417750D01*
Y791250D01*
X426000D01*
Y797250D01*
D02*
G37*
G36*
X399750D02*
X391500D01*
Y791250D01*
X399750D01*
Y797250D01*
D02*
G37*
G36*
X370500Y789500D02*
X362250D01*
Y783500D01*
X370500D01*
Y789500D01*
D02*
G37*
G36*
X386750Y788750D02*
X381500D01*
Y783000D01*
X386750D01*
Y788750D01*
D02*
G37*
G36*
X379000D02*
X373750D01*
Y783000D01*
X379000D01*
Y788750D01*
D02*
G37*
G36*
X436750Y788750D02*
X428500D01*
Y782750D01*
X436750D01*
Y788750D01*
D02*
G37*
G36*
X426000D02*
X417750D01*
Y782750D01*
X426000D01*
Y788750D01*
D02*
G37*
G36*
X410500D02*
X402250D01*
Y782750D01*
X410500D01*
Y788750D01*
D02*
G37*
G36*
X399750D02*
X391500D01*
Y782750D01*
X399750D01*
Y788750D01*
D02*
G37*
G36*
X395250Y777000D02*
X389250D01*
Y768750D01*
X395250D01*
Y777000D01*
D02*
G37*
G36*
X386750D02*
X380750D01*
Y768750D01*
X386750D01*
Y777000D01*
D02*
G37*
G36*
X473390Y779250D02*
X469610D01*
X466119Y777804D01*
X463446Y775131D01*
X462000Y771640D01*
Y767860D01*
X463446Y764369D01*
X466119Y761696D01*
X469610Y760250D01*
X473390D01*
X476881Y761696D01*
X479554Y764369D01*
X481000Y767860D01*
Y771640D01*
X479554Y775131D01*
X476881Y777804D01*
X473390Y779250D01*
D02*
G37*
G36*
X55500Y774000D02*
X49000D01*
X42500D01*
Y769750D01*
X43000D01*
Y760750D01*
X55000D01*
Y762691D01*
X72750D01*
Y759250D01*
X84750D01*
Y772250D01*
X72750D01*
Y768809D01*
X56610D01*
X55500Y769750D01*
Y774000D01*
D02*
G37*
G36*
X395250Y766250D02*
X389250D01*
Y758000D01*
X395250D01*
Y766250D01*
D02*
G37*
G36*
X386750D02*
X380750D01*
Y758000D01*
X386750D01*
Y766250D01*
D02*
G37*
G36*
X48000Y747000D02*
X42250D01*
Y741750D01*
X48000D01*
Y747000D01*
D02*
G37*
G36*
X39750D02*
X34000D01*
Y741750D01*
X39750D01*
Y747000D01*
D02*
G37*
G36*
X387250Y746000D02*
X381250D01*
Y737750D01*
X387250D01*
Y746000D01*
D02*
G37*
G36*
X378750D02*
X372750D01*
Y737750D01*
X378750D01*
Y746000D01*
D02*
G37*
G36*
X473390Y754250D02*
X469610D01*
X466119Y752804D01*
X463446Y750131D01*
X462000Y746640D01*
Y742860D01*
X463446Y739369D01*
X466119Y736696D01*
X469610Y735250D01*
X473390D01*
X476881Y736696D01*
X479554Y739369D01*
X481000Y742860D01*
Y746640D01*
X479554Y750131D01*
X476881Y752804D01*
X473390Y754250D01*
D02*
G37*
G36*
X30000Y770750D02*
X18000D01*
Y760750D01*
X20431D01*
Y746500D01*
X17500D01*
Y735319D01*
X17500Y734500D01*
X16282Y733819D01*
X14478D01*
X-7634Y755930D01*
X-7000Y757460D01*
Y761040D01*
X-8370Y764348D01*
X-10902Y766880D01*
X-14210Y768250D01*
X-17790D01*
X-21098Y766880D01*
X-23630Y764348D01*
X-25000Y761040D01*
Y757460D01*
X-23630Y754152D01*
X-21098Y751620D01*
X-17790Y750250D01*
X-14210D01*
X-12680Y750883D01*
X10477Y727727D01*
X11634Y726953D01*
X13000Y726681D01*
X68250D01*
X69616Y726953D01*
X70773Y727727D01*
X81273Y738227D01*
X82047Y739384D01*
X82319Y740750D01*
Y742250D01*
X84750D01*
Y755250D01*
X72750D01*
Y742250D01*
X73082D01*
X73703Y740750D01*
X66772Y733819D01*
X49425D01*
X48000Y734000D01*
X48000Y735319D01*
Y739250D01*
X34000D01*
X34000Y734000D01*
X32575Y733819D01*
X31718D01*
X30500Y734500D01*
X30500Y735319D01*
Y746500D01*
X27569D01*
Y760750D01*
X30000D01*
Y770750D01*
D02*
G37*
G36*
X387250Y735250D02*
X381250D01*
Y727000D01*
X387250D01*
Y735250D01*
D02*
G37*
G36*
X378750D02*
X372750D01*
Y727000D01*
X378750D01*
Y735250D01*
D02*
G37*
G36*
X108000Y726500D02*
X102250D01*
Y721250D01*
X108000D01*
Y726500D01*
D02*
G37*
G36*
X99750D02*
X94000D01*
Y721250D01*
X99750D01*
Y726500D01*
D02*
G37*
G36*
X108000Y718750D02*
X102250D01*
Y713500D01*
X108000D01*
Y718750D01*
D02*
G37*
G36*
X99750D02*
X94000D01*
Y713500D01*
X99750D01*
Y718750D01*
D02*
G37*
G36*
X272250Y720000D02*
X266250D01*
Y711750D01*
X272250D01*
Y720000D01*
D02*
G37*
G36*
X263750D02*
X257750D01*
Y711750D01*
X263750D01*
Y720000D01*
D02*
G37*
G36*
X473390Y729250D02*
X469610D01*
X466119Y727804D01*
X463446Y725131D01*
X462000Y721640D01*
Y717860D01*
X463446Y714369D01*
X466119Y711696D01*
X469610Y710250D01*
X473390D01*
X476881Y711696D01*
X479554Y714369D01*
X481000Y717860D01*
Y721640D01*
X479554Y725131D01*
X476881Y727804D01*
X473390Y729250D01*
D02*
G37*
G36*
X168750Y714750D02*
X163000D01*
Y709500D01*
X168750D01*
Y714750D01*
D02*
G37*
G36*
X160500D02*
X154750D01*
Y709500D01*
X160500D01*
Y714750D01*
D02*
G37*
G36*
X-1618Y726000D02*
X-4382D01*
X-7053Y725284D01*
X-9447Y723902D01*
X-11402Y721947D01*
X-12784Y719553D01*
X-13500Y716882D01*
Y714118D01*
X-12784Y711447D01*
X-11402Y709053D01*
X-9447Y707098D01*
X-7053Y705716D01*
X-4382Y705000D01*
X-1618D01*
X1053Y705716D01*
X3447Y707098D01*
X5402Y709053D01*
X6784Y711447D01*
X7500Y714118D01*
Y716882D01*
X6784Y719553D01*
X5402Y721947D01*
X3447Y723902D01*
X1053Y725284D01*
X-1618Y726000D01*
D02*
G37*
G36*
X184750Y733250D02*
X172750D01*
Y720250D01*
X175691D01*
Y714250D01*
X172250D01*
Y702250D01*
X185250D01*
Y714250D01*
X181809D01*
Y720250D01*
X184750D01*
Y733250D01*
D02*
G37*
G36*
X168750Y707000D02*
X163000D01*
Y701750D01*
X168750D01*
Y707000D01*
D02*
G37*
G36*
X160500D02*
X154750D01*
Y701750D01*
X160500D01*
Y707000D01*
D02*
G37*
G36*
X272250Y709250D02*
X266250D01*
Y701000D01*
X272250D01*
Y709250D01*
D02*
G37*
G36*
X263750D02*
X257750D01*
Y701000D01*
X263750D01*
Y709250D01*
D02*
G37*
G36*
X473390Y704250D02*
X469610D01*
X466119Y702804D01*
X463446Y700131D01*
X462000Y696640D01*
Y692860D01*
X463446Y689369D01*
X466119Y686696D01*
X469610Y685250D01*
X473390D01*
X476881Y686696D01*
X479554Y689369D01*
X481000Y692860D01*
Y696640D01*
X479554Y700131D01*
X476881Y702804D01*
X473390Y704250D01*
D02*
G37*
G36*
X50392Y708750D02*
X47608D01*
X45035Y707684D01*
X43066Y705715D01*
X42000Y703142D01*
Y700358D01*
X43066Y697785D01*
X45035Y695816D01*
X45431Y695651D01*
Y690250D01*
X43000D01*
Y680250D01*
X55000D01*
Y690250D01*
X52569D01*
Y695651D01*
X52965Y695816D01*
X54934Y697785D01*
X56000Y700358D01*
Y703142D01*
X54934Y705715D01*
X52965Y707684D01*
X50392Y708750D01*
D02*
G37*
G36*
X284530Y681955D02*
X278780D01*
Y678205D01*
X284530D01*
Y681955D01*
D02*
G37*
G36*
X276280D02*
X270530D01*
Y678205D01*
X276280D01*
Y681955D01*
D02*
G37*
G36*
X473489Y679750D02*
X472750D01*
Y671000D01*
X481500D01*
Y671739D01*
X479978Y675415D01*
X477164Y678228D01*
X473489Y679750D01*
D02*
G37*
G36*
X470250D02*
X469511D01*
X465835Y678228D01*
X463022Y675415D01*
X461500Y671739D01*
Y671000D01*
X470250D01*
Y679750D01*
D02*
G37*
G36*
X-26210Y712000D02*
X-29790D01*
X-33098Y710630D01*
X-35630Y708098D01*
X-37000Y704790D01*
Y701210D01*
X-35630Y697902D01*
X-33098Y695370D01*
X-31569Y694737D01*
Y688250D01*
X-31297Y686884D01*
X-30523Y685727D01*
X-18023Y673227D01*
X-16866Y672453D01*
X-15500Y672181D01*
X24000D01*
Y670750D01*
X36000D01*
Y680750D01*
X24000D01*
Y679319D01*
X-14022D01*
X-24431Y689728D01*
Y694737D01*
X-22902Y695370D01*
X-20370Y697902D01*
X-19000Y701210D01*
Y704790D01*
X-20370Y708098D01*
X-22902Y710630D01*
X-26210Y712000D01*
D02*
G37*
G36*
X224250Y671750D02*
X219000D01*
Y666500D01*
X224250D01*
Y671750D01*
D02*
G37*
G36*
X216500D02*
X211250D01*
Y666500D01*
X216500D01*
Y671750D01*
D02*
G37*
G36*
X481500Y668500D02*
X472750D01*
Y659750D01*
X473489D01*
X477164Y661272D01*
X479978Y664085D01*
X481500Y667761D01*
Y668500D01*
D02*
G37*
G36*
X470250D02*
X461500D01*
Y667761D01*
X463022Y664085D01*
X465835Y661272D01*
X469511Y659750D01*
X470250D01*
Y668500D01*
D02*
G37*
G36*
X224250Y664000D02*
X219000D01*
Y658750D01*
X224250D01*
Y664000D01*
D02*
G37*
G36*
X216500D02*
X211250D01*
Y658750D01*
X216500D01*
Y664000D01*
D02*
G37*
%LPD*%
G36*
X256500Y849441D02*
X256500Y849441D01*
X258250D01*
Y845750D01*
X269508D01*
X270300Y844601D01*
X270390Y844250D01*
X270191Y843250D01*
X270191Y843250D01*
Y814559D01*
X263810D01*
X263434Y815465D01*
X261465Y817434D01*
X258892Y818500D01*
X256108D01*
X253535Y817434D01*
X251566Y815465D01*
X250500Y812892D01*
Y810108D01*
X251566Y807535D01*
X252600Y806500D01*
X251979Y805000D01*
X223500D01*
Y805500D01*
X219059D01*
Y809983D01*
X250913Y841837D01*
X250913Y841837D01*
X251576Y842830D01*
X251809Y844000D01*
X251809Y844000D01*
Y847750D01*
X254250D01*
Y848729D01*
X255750Y849590D01*
X256500Y849441D01*
D02*
G37*
%LPC*%
G36*
X619750Y847750D02*
X613750D01*
Y839500D01*
X619750D01*
Y847750D01*
D02*
G37*
G36*
X611250D02*
X605250D01*
Y839500D01*
X611250D01*
Y847750D01*
D02*
G37*
G36*
X749250Y843662D02*
Y838000D01*
X754912D01*
X754523Y839452D01*
X753601Y841048D01*
X752298Y842351D01*
X750702Y843273D01*
X749250Y843662D01*
D02*
G37*
G36*
X746750D02*
X745298Y843273D01*
X743702Y842351D01*
X742399Y841048D01*
X741477Y839452D01*
X741088Y838000D01*
X746750D01*
Y843662D01*
D02*
G37*
G36*
X619750Y837000D02*
X613750D01*
Y828750D01*
X619750D01*
Y837000D01*
D02*
G37*
G36*
X611250D02*
X605250D01*
Y828750D01*
X611250D01*
Y837000D01*
D02*
G37*
G36*
X583000Y781250D02*
X570000D01*
Y769250D01*
X572519D01*
Y764668D01*
X571399Y763548D01*
X570477Y761952D01*
X570000Y760172D01*
Y758328D01*
X570477Y756548D01*
X571399Y754952D01*
X572702Y753649D01*
X574298Y752727D01*
X576078Y752250D01*
X577922D01*
X579702Y752727D01*
X581298Y753649D01*
X582601Y754952D01*
X583523Y756548D01*
X584000Y758328D01*
Y760172D01*
X583523Y761952D01*
X582601Y763548D01*
X581298Y764851D01*
X580481Y765323D01*
Y769250D01*
X583000D01*
Y781250D01*
D02*
G37*
G36*
X593922Y755250D02*
X592078D01*
X590298Y754773D01*
X588702Y753851D01*
X587399Y752548D01*
X586477Y750952D01*
X586000Y749172D01*
Y747328D01*
X586234Y746454D01*
X585257Y745231D01*
X583000D01*
Y747250D01*
X570000D01*
Y735250D01*
X583000D01*
Y737269D01*
X587768D01*
X589292Y737571D01*
X590583Y738435D01*
X593399Y741250D01*
X593922D01*
X595702Y741727D01*
X597298Y742649D01*
X598601Y743952D01*
X599523Y745548D01*
X600000Y747328D01*
Y749172D01*
X599523Y750952D01*
X598601Y752548D01*
X597298Y753851D01*
X595702Y754773D01*
X593922Y755250D01*
D02*
G37*
G36*
X636250Y847250D02*
X622750D01*
Y829250D01*
X636250D01*
Y834268D01*
X641768D01*
Y816500D01*
X642072Y814976D01*
X642935Y813685D01*
X652019Y804601D01*
Y796034D01*
X651702Y795851D01*
X650399Y794548D01*
X649477Y792952D01*
X649000Y791171D01*
Y789328D01*
X649477Y787548D01*
X650399Y785952D01*
X651702Y784649D01*
X653298Y783727D01*
X655078Y783250D01*
X655424D01*
X658018Y780655D01*
Y769250D01*
X656000D01*
Y758119D01*
X655490Y758018D01*
X654166Y757134D01*
X654166Y757134D01*
X651616Y754584D01*
X650732Y753260D01*
X650422Y751700D01*
X650422Y751700D01*
Y739800D01*
X650422Y739800D01*
X650472Y739548D01*
Y731621D01*
X649399Y730548D01*
X648477Y728952D01*
X648000Y727171D01*
Y725328D01*
X648477Y723548D01*
X649399Y721952D01*
X650702Y720648D01*
X650922Y720522D01*
Y719328D01*
X563578D01*
Y735250D01*
X566000D01*
Y747250D01*
X563578D01*
Y769250D01*
X566000D01*
Y781250D01*
X553000D01*
Y769250D01*
X555422D01*
Y747250D01*
X553000D01*
Y735250D01*
X555422D01*
Y715250D01*
Y711250D01*
X553000D01*
Y699250D01*
X566000D01*
Y711172D01*
X570000D01*
Y699250D01*
X583000D01*
Y701172D01*
X588272D01*
X588399Y700952D01*
X589702Y699649D01*
X591298Y698727D01*
X593078Y698250D01*
X594921D01*
X596702Y698727D01*
X598298Y699649D01*
X599601Y700952D01*
X599728Y701172D01*
X608311D01*
X612282Y697200D01*
X611625Y696061D01*
X610922Y696250D01*
X609078D01*
X607298Y695773D01*
X605702Y694851D01*
X604399Y693548D01*
X603477Y691952D01*
X603000Y690172D01*
Y688328D01*
X603477Y686548D01*
X604399Y684952D01*
X605702Y683649D01*
X605922Y683522D01*
Y667250D01*
X605922Y667250D01*
X606232Y665689D01*
X607116Y664366D01*
X612116Y659366D01*
X612116Y659366D01*
X613439Y658482D01*
X615000Y658172D01*
X615000Y658172D01*
X629000D01*
Y656250D01*
X631422D01*
Y644482D01*
X631422Y644482D01*
X631732Y642921D01*
X632616Y641598D01*
X634848Y639366D01*
X636171Y638482D01*
X637732Y638172D01*
X739500D01*
X739500Y638172D01*
X741061Y638482D01*
X742384Y639366D01*
X748268Y645250D01*
X749856D01*
X751509Y645693D01*
X752991Y646549D01*
X754201Y647759D01*
X755057Y649241D01*
X755500Y650894D01*
Y652606D01*
X755057Y654259D01*
X754201Y655741D01*
X752991Y656951D01*
X752445Y657267D01*
Y658733D01*
X752991Y659049D01*
X754201Y660259D01*
X755057Y661741D01*
X755500Y663394D01*
Y665106D01*
X755057Y666759D01*
X754201Y668241D01*
X752991Y669451D01*
X752445Y669767D01*
Y671233D01*
X752991Y671549D01*
X754201Y672759D01*
X755057Y674241D01*
X755500Y675894D01*
Y677606D01*
X755057Y679259D01*
X754201Y680741D01*
X752991Y681951D01*
X752445Y682267D01*
Y683733D01*
X752991Y684049D01*
X754201Y685259D01*
X755057Y686741D01*
X755500Y688394D01*
Y690106D01*
X755057Y691759D01*
X754201Y693241D01*
X752991Y694451D01*
X751509Y695307D01*
X749856Y695750D01*
X748144D01*
X746491Y695307D01*
X745009Y694451D01*
X743799Y693241D01*
X742943Y691759D01*
X742500Y690106D01*
Y688394D01*
X742943Y686741D01*
X743799Y685259D01*
X745009Y684049D01*
X745555Y683733D01*
Y682267D01*
X745009Y681951D01*
X743799Y680741D01*
X742943Y679259D01*
X742500Y677606D01*
Y675894D01*
X742943Y674241D01*
X743799Y672759D01*
X745009Y671549D01*
X745555Y671233D01*
Y669767D01*
X745009Y669451D01*
X743799Y668241D01*
X742943Y666759D01*
X742500Y665106D01*
Y663394D01*
X742943Y661741D01*
X743799Y660259D01*
X745009Y659049D01*
X745555Y658733D01*
Y657267D01*
X745009Y656951D01*
X743799Y655741D01*
X742943Y654259D01*
X742500Y652606D01*
Y651018D01*
X737811Y646328D01*
X639578D01*
Y656250D01*
X642000D01*
Y668250D01*
X629000D01*
Y666328D01*
X616689D01*
X614078Y668939D01*
Y683522D01*
X614298Y683649D01*
X615601Y684952D01*
X616523Y686548D01*
X617000Y688328D01*
Y690172D01*
X616812Y690875D01*
X617950Y691532D01*
X624116Y685366D01*
X624116Y685366D01*
X625439Y684482D01*
X627000Y684172D01*
X627000Y684172D01*
X645272D01*
X645399Y683952D01*
X646702Y682648D01*
X648298Y681727D01*
X650078Y681250D01*
X651922D01*
X653702Y681727D01*
X655298Y682648D01*
X656601Y683952D01*
X657523Y685548D01*
X658000Y687328D01*
Y689172D01*
X657954Y689342D01*
X659057Y690133D01*
X659282Y689982D01*
X660843Y689672D01*
X663000D01*
Y687000D01*
X667922D01*
Y670939D01*
X663311Y666328D01*
X659000D01*
Y668250D01*
X646000D01*
Y656250D01*
X659000D01*
Y658172D01*
X665000D01*
X665000Y658172D01*
X666561Y658482D01*
X667884Y659366D01*
X674884Y666366D01*
X675768Y667689D01*
X676078Y669250D01*
Y687000D01*
X681000D01*
Y689672D01*
X700000D01*
Y687000D01*
X718000D01*
Y700500D01*
X700000D01*
Y697828D01*
X681000D01*
Y700500D01*
X663000D01*
Y699157D01*
X661730Y698631D01*
X659078Y701282D01*
Y715250D01*
Y720522D01*
X659298Y720648D01*
X660601Y721952D01*
X661523Y723548D01*
X662000Y725328D01*
Y727171D01*
X661523Y728952D01*
X660601Y730548D01*
X659298Y731851D01*
X658629Y732238D01*
Y739250D01*
X668000D01*
Y741672D01*
X692500D01*
X692500Y741672D01*
X694061Y741982D01*
X695384Y742866D01*
X709884Y757366D01*
X710768Y758689D01*
X711078Y760250D01*
X711078Y760250D01*
Y765522D01*
X711298Y765649D01*
X712601Y766952D01*
X712728Y767172D01*
X717000D01*
X717000Y767172D01*
X718561Y767482D01*
X719884Y768366D01*
X723884Y772366D01*
X723884Y772366D01*
X724768Y773689D01*
X725078Y775250D01*
Y797561D01*
X735189Y807672D01*
X742886D01*
X744009Y806549D01*
X744555Y806233D01*
Y804767D01*
X744009Y804451D01*
X742799Y803241D01*
X741943Y801759D01*
X741500Y800106D01*
Y798518D01*
X735616Y792634D01*
X734732Y791311D01*
X734422Y789750D01*
X734422Y789750D01*
Y740250D01*
X732000D01*
Y728250D01*
X745000D01*
Y740250D01*
X742578D01*
Y788061D01*
X747268Y792750D01*
X748856D01*
X750509Y793193D01*
X751991Y794049D01*
X753201Y795259D01*
X754057Y796741D01*
X754500Y798394D01*
Y800106D01*
X754057Y801759D01*
X753201Y803241D01*
X751991Y804451D01*
X751445Y804767D01*
Y806233D01*
X751991Y806549D01*
X753201Y807759D01*
X754057Y809241D01*
X754500Y810894D01*
Y812606D01*
X754057Y814259D01*
X753760Y814773D01*
X754776Y815553D01*
X756019Y814311D01*
Y753631D01*
X755026Y752638D01*
X754917Y752565D01*
X752685Y750333D01*
X751822Y749042D01*
X751518Y747518D01*
Y740250D01*
X749000D01*
Y728250D01*
X762000D01*
Y740250D01*
X759482D01*
Y745869D01*
X760474Y746861D01*
X760583Y746935D01*
X762815Y749166D01*
X763678Y750458D01*
X763981Y751982D01*
Y815960D01*
X763678Y817484D01*
X762815Y818775D01*
X755518Y826072D01*
X754227Y826935D01*
X753920Y826996D01*
X753201Y828241D01*
X751991Y829451D01*
X751945Y829478D01*
Y830945D01*
X752298Y831149D01*
X753601Y832452D01*
X754523Y834048D01*
X754912Y835500D01*
X748000D01*
X741088D01*
X741477Y834048D01*
X742399Y832452D01*
X743702Y831149D01*
X744055Y830945D01*
Y829478D01*
X744009Y829451D01*
X742799Y828241D01*
X742793Y828231D01*
X737649D01*
X724315Y841565D01*
X723024Y842428D01*
X721500Y842731D01*
X718000D01*
Y845500D01*
X700000D01*
Y842731D01*
X678000D01*
Y844750D01*
X668000D01*
Y842731D01*
X662500D01*
X660976Y842428D01*
X660682Y842231D01*
X636250D01*
Y847250D01*
D02*
G37*
G36*
X718500Y718000D02*
X710250D01*
Y712000D01*
X718500D01*
Y718000D01*
D02*
G37*
G36*
X707750D02*
X699500D01*
Y712000D01*
X707750D01*
Y718000D01*
D02*
G37*
G36*
X681500D02*
X673250D01*
Y712000D01*
X681500D01*
Y718000D01*
D02*
G37*
G36*
X670750D02*
X662500D01*
Y712000D01*
X670750D01*
Y718000D01*
D02*
G37*
G36*
X718500Y709500D02*
X710250D01*
Y703500D01*
X718500D01*
Y709500D01*
D02*
G37*
G36*
X707750D02*
X699500D01*
Y703500D01*
X707750D01*
Y709500D01*
D02*
G37*
G36*
X681500Y709500D02*
X673250D01*
Y703500D01*
X681500D01*
Y709500D01*
D02*
G37*
G36*
X670750D02*
X662500D01*
Y703500D01*
X670750D01*
Y709500D01*
D02*
G37*
%LPD*%
G36*
X733185Y821435D02*
X734476Y820572D01*
X736000Y820268D01*
X742793D01*
X742799Y820259D01*
X744009Y819049D01*
X744555Y818733D01*
Y817267D01*
X744009Y816951D01*
X742886Y815828D01*
X733500D01*
X731939Y815518D01*
X730616Y814634D01*
X730616Y814634D01*
X718116Y802134D01*
X717232Y800811D01*
X716922Y799250D01*
X716922Y799250D01*
Y776939D01*
X715311Y775328D01*
X712728D01*
X712601Y775548D01*
X711298Y776851D01*
X709702Y777773D01*
X707922Y778250D01*
X706078D01*
X704298Y777773D01*
X702702Y776851D01*
X701399Y775548D01*
X700477Y773952D01*
X700000Y772171D01*
Y770328D01*
X700477Y768548D01*
X701399Y766952D01*
X702702Y765649D01*
X702922Y765522D01*
Y761939D01*
X690811Y749828D01*
X682868D01*
X682483Y751098D01*
X682884Y751366D01*
X693384Y761866D01*
X693384Y761866D01*
X694268Y763189D01*
X694578Y764750D01*
X694578Y764750D01*
Y782250D01*
X697250D01*
Y800250D01*
X694578D01*
Y817407D01*
X694268Y818968D01*
X693384Y820291D01*
X693384Y820291D01*
X691041Y822634D01*
X689718Y823518D01*
X688157Y823828D01*
X687500Y824801D01*
Y825750D01*
X677500D01*
Y813750D01*
X686422D01*
Y800250D01*
X683750D01*
Y782250D01*
X686422D01*
Y766439D01*
X678311Y758328D01*
X668000D01*
Y769250D01*
X665982D01*
Y782304D01*
X665678Y783828D01*
X664815Y785120D01*
X662473Y787462D01*
X662523Y787548D01*
X663000Y789328D01*
Y791171D01*
X662523Y792952D01*
X661601Y794548D01*
X660298Y795851D01*
X659982Y796034D01*
Y806250D01*
X659678Y807774D01*
X658815Y809065D01*
X649732Y818149D01*
Y834268D01*
X662000D01*
X663524Y834572D01*
X663818Y834769D01*
X668000D01*
Y832750D01*
X678000D01*
Y834769D01*
X700000D01*
Y832000D01*
X718000D01*
Y834769D01*
X719851D01*
X733185Y821435D01*
D02*
G37*
G36*
X650922Y699593D02*
X650922Y699593D01*
X651232Y698032D01*
X652116Y696709D01*
X652385Y696441D01*
X652057Y695597D01*
X651779Y695250D01*
X650078D01*
X648298Y694773D01*
X646702Y693851D01*
X645399Y692548D01*
X645272Y692328D01*
X628689D01*
X612884Y708134D01*
X611561Y709018D01*
X610000Y709328D01*
X610000Y709328D01*
X600334D01*
X599925Y709902D01*
X600579Y711172D01*
X650922D01*
Y699593D01*
D02*
G37*
%LPC*%
G36*
X718500Y829000D02*
X710250D01*
Y823000D01*
X718500D01*
Y829000D01*
D02*
G37*
G36*
X707750D02*
X699500D01*
Y823000D01*
X707750D01*
Y829000D01*
D02*
G37*
G36*
X669000Y826250D02*
X664750D01*
Y821000D01*
X669000D01*
Y826250D01*
D02*
G37*
G36*
X662250D02*
X658000D01*
Y821000D01*
X662250D01*
Y826250D01*
D02*
G37*
G36*
X718500Y820500D02*
X710250D01*
Y814500D01*
X718500D01*
Y820500D01*
D02*
G37*
G36*
X707750D02*
X699500D01*
Y814500D01*
X707750D01*
Y820500D01*
D02*
G37*
G36*
X669000Y818500D02*
X664750D01*
Y813250D01*
X669000D01*
Y818500D01*
D02*
G37*
G36*
X662250D02*
X658000D01*
Y813250D01*
X662250D01*
Y818500D01*
D02*
G37*
G36*
X714750Y800750D02*
X708750D01*
Y792500D01*
X714750D01*
Y800750D01*
D02*
G37*
G36*
X706250D02*
X700250D01*
Y792500D01*
X706250D01*
Y800750D01*
D02*
G37*
G36*
X714750Y790000D02*
X708750D01*
Y781750D01*
X714750D01*
Y790000D01*
D02*
G37*
G36*
X706250D02*
X700250D01*
Y781750D01*
X706250D01*
Y790000D01*
D02*
G37*
%LPD*%
D10*
X662000Y762750D02*
D03*
Y745750D02*
D03*
X380250Y807000D02*
D03*
Y790000D02*
D03*
X178750Y726750D02*
D03*
Y743750D02*
D03*
X78750Y765750D02*
D03*
Y748750D02*
D03*
D11*
X709000Y710750D02*
D03*
Y693750D02*
D03*
X672000Y710750D02*
D03*
Y693750D02*
D03*
X709000Y838750D02*
D03*
Y821750D02*
D03*
X267250Y869500D02*
D03*
Y852500D02*
D03*
X470000Y826500D02*
D03*
Y843500D02*
D03*
X361000Y790750D02*
D03*
Y807750D02*
D03*
X289000Y834250D02*
D03*
Y817250D02*
D03*
X448750Y880500D02*
D03*
Y863500D02*
D03*
X401000Y807000D02*
D03*
Y790000D02*
D03*
X427250Y807000D02*
D03*
Y790000D02*
D03*
X148000Y840250D02*
D03*
Y857250D02*
D03*
X427000Y833500D02*
D03*
Y850500D02*
D03*
X419000Y868250D02*
D03*
Y885250D02*
D03*
X194750Y839500D02*
D03*
Y856500D02*
D03*
X215750Y848000D02*
D03*
Y865000D02*
D03*
X396250Y833500D02*
D03*
Y850500D02*
D03*
X366000Y833500D02*
D03*
Y850500D02*
D03*
D12*
X707500Y791250D02*
D03*
X690500D02*
D03*
X612500Y838250D02*
D03*
X629500D02*
D03*
X265000Y710500D02*
D03*
X282000D02*
D03*
X380000Y736500D02*
D03*
X363000D02*
D03*
X388000Y767500D02*
D03*
X371000D02*
D03*
D13*
X652500Y662250D02*
D03*
X635500D02*
D03*
X559500Y741250D02*
D03*
X576500D02*
D03*
X559500Y705250D02*
D03*
X576500D02*
D03*
X559500Y775250D02*
D03*
X576500D02*
D03*
X755500Y734250D02*
D03*
X738500D02*
D03*
X194750Y642750D02*
D03*
X177750D02*
D03*
X84000Y720000D02*
D03*
X101000D02*
D03*
X41000Y740500D02*
D03*
X24000D02*
D03*
X161750Y708250D02*
D03*
X178750D02*
D03*
D14*
X663500Y819750D02*
D03*
X682500D02*
D03*
X673000Y838750D02*
D03*
D15*
X610000Y667250D02*
Y689250D01*
Y667250D02*
X615000Y662250D01*
X655000Y715250D02*
Y726250D01*
X654550Y726700D02*
X655000Y726250D01*
X654550Y726700D02*
Y739750D01*
X654500Y739800D02*
X654550Y739750D01*
X680000Y754250D02*
X690500Y764750D01*
Y791250D01*
Y817407D01*
X657050Y754250D02*
X680000D01*
X654500Y751700D02*
X657050Y754250D01*
X654500Y739800D02*
Y751700D01*
X707000Y760250D02*
Y771250D01*
X662000Y745750D02*
X692500D01*
X707000Y760250D01*
X559500Y715250D02*
X655000D01*
Y699593D02*
Y715250D01*
Y699593D02*
X660843Y693750D01*
X672000Y710750D02*
X689500D01*
X690000Y711250D01*
X721000Y775250D02*
Y799250D01*
X717000Y771250D02*
X721000Y775250D01*
X707000Y771250D02*
X717000D01*
X682500Y819750D02*
X688157D01*
X690500Y817407D01*
X559500Y705250D02*
Y715250D01*
Y741250D01*
X576500Y705250D02*
X594000D01*
X660843Y693750D02*
X672000D01*
X627000Y688250D02*
X651000D01*
X672000Y669250D02*
Y693750D01*
X594000Y705250D02*
X610000D01*
X627000Y688250D01*
X612500Y818750D02*
X613000Y818250D01*
X612500Y818750D02*
Y838250D01*
X733500Y811750D02*
X748000D01*
X721000Y799250D02*
X733500Y811750D01*
X738500Y789750D02*
X748000Y799250D01*
X738500Y734250D02*
Y789750D01*
X615000Y662250D02*
X635500D01*
X739500Y642250D02*
X749000Y651750D01*
X672000Y693750D02*
X709000D01*
X652500Y662250D02*
X665000D01*
X672000Y669250D01*
X559500Y741250D02*
Y775250D01*
X635500Y644482D02*
Y662250D01*
X637732Y642250D02*
X739500D01*
X635500Y644482D02*
X637732Y642250D01*
X298500Y710250D02*
G03*
X298250Y710500I-250J0D01*
G01*
X282000D02*
X294500D01*
X294500Y710500D01*
X298500D01*
D16*
X755500Y747518D02*
X757732Y749750D01*
X757768D02*
X760000Y751982D01*
Y815960D01*
X757732Y749750D02*
X757768D01*
X755500Y734250D02*
Y747518D01*
X752703Y823257D02*
X760000Y815960D01*
X748000Y824250D02*
X748993Y823257D01*
X752703D01*
X736000Y824250D02*
X748000D01*
X662500Y838750D02*
X673000D01*
X721500D01*
X736000Y824250D01*
X656000Y788304D02*
X662000Y782304D01*
X656000Y788304D02*
Y790250D01*
X662000Y762750D02*
Y782304D01*
X645750Y816500D02*
X656000Y806250D01*
X645750Y816500D02*
Y838250D01*
X662000D01*
X629500D02*
X645750D01*
X656000Y790250D02*
Y806250D01*
X662000Y838250D02*
X662500Y838750D01*
X709000Y807250D02*
Y821750D01*
X576500Y759750D02*
Y775250D01*
Y759750D02*
X577000Y759250D01*
X593000Y746482D02*
Y748250D01*
X587768Y741250D02*
X593000Y746482D01*
X576500Y741250D02*
X587768D01*
D17*
X282000Y759500D02*
G03*
X273500Y768000I-8500J0D01*
G01*
X161500Y692750D02*
G03*
X161750Y692500I250J0D01*
G01*
X161500Y694750D02*
G03*
X161750Y695000I0J250D01*
G01*
X280500Y850500D02*
X366000D01*
X275250Y845250D02*
X275285D01*
X273250Y811500D02*
Y843250D01*
X275250Y845250D01*
X275285D02*
X276750Y846714D01*
Y846750D02*
X280500Y850500D01*
X276750Y846714D02*
Y846750D01*
X256500Y852500D02*
X267250D01*
X256250Y852750D02*
X256500Y852500D01*
X248750Y852750D02*
X256250D01*
X267250Y852500D02*
Y854750D01*
X233250Y862750D02*
X245250D01*
X245250Y862750D01*
X248750D01*
X220000Y809000D02*
X243000Y832000D01*
X256000D01*
X220000Y799000D02*
Y809000D01*
X259000Y776000D02*
X289000D01*
X259000Y780000D02*
X280000D01*
X301250Y801250D01*
X289000Y776000D02*
X292000Y773000D01*
Y744000D02*
Y773000D01*
X282000Y772000D02*
X284000Y770000D01*
X292000Y744000D02*
X299500Y736500D01*
X259000Y772000D02*
X282000D01*
X299500Y736500D02*
X363000D01*
X230000Y770000D02*
X232000Y772000D01*
X282000Y710500D02*
Y759500D01*
X245250Y710000D02*
X245750Y710500D01*
X265000D01*
X251750Y727000D02*
X252000Y727250D01*
Y741000D01*
X240000Y732250D02*
Y741000D01*
X232500Y724750D02*
X240000Y732250D01*
X267250Y748000D02*
X272750Y742500D01*
X259000Y748000D02*
X267250D01*
X266000Y752000D02*
X271750Y757750D01*
X272000D01*
X259000Y752000D02*
X266000D01*
X273250Y799250D02*
Y811500D01*
X257500D02*
X273250D01*
X208000Y816000D02*
Y823250D01*
Y799000D02*
Y816000D01*
X196500Y810750D02*
X201750Y816000D01*
X208000D01*
X187000Y823000D02*
X194750Y830750D01*
Y839500D01*
X187000Y799250D02*
Y823000D01*
Y799250D02*
X194250Y792000D01*
X183000Y798000D02*
X193000Y788000D01*
X176000Y832000D02*
X181828D01*
X183000Y830828D01*
Y798000D02*
Y830828D01*
X208000Y725750D02*
Y741000D01*
Y716500D02*
Y725750D01*
X196000D02*
X208000D01*
X212000Y814500D02*
X233250Y835750D01*
X216000Y811250D02*
X248750Y844000D01*
X233750Y846250D02*
X234250Y846750D01*
X248750Y844000D02*
Y852500D01*
X161500Y692750D02*
Y694750D01*
X161750Y695000D02*
Y708250D01*
X217750Y642750D02*
X218000Y642500D01*
X194750Y642750D02*
X217750D01*
X282000Y710500D02*
X282000Y710500D01*
X259000Y768000D02*
X273500D01*
X388000Y767500D02*
X406500D01*
X350124Y777876D02*
X360500Y767500D01*
X371000D01*
X338750Y801250D02*
X350124Y789876D01*
Y777876D02*
Y789876D01*
X301250Y801250D02*
X338750D01*
X259000Y784000D02*
X275000D01*
X297000Y806000D01*
X259000Y788000D02*
X270000D01*
X289000Y807000D01*
X380250Y807000D02*
X401000D01*
X344750Y834250D02*
X361000Y818000D01*
X334750Y834250D02*
X344750D01*
X325500D02*
X334750D01*
X361000Y807750D02*
Y818000D01*
X323500Y832250D02*
X325500Y834250D01*
X323500Y808250D02*
Y832250D01*
X321250Y806000D02*
X323500Y808250D01*
X297000Y806000D02*
X321250D01*
X305750Y817250D02*
X305750Y817250D01*
X289000Y817250D02*
X305750D01*
X305750Y817250D02*
X312750D01*
X289000Y807000D02*
Y817250D01*
X194750Y642750D02*
Y703250D01*
X208000Y716500D01*
X49000Y775250D02*
X64500D01*
X49000Y765750D02*
X78500D01*
X78750Y765500D01*
X132500Y657000D02*
X149750Y674250D01*
X132500Y642750D02*
Y657000D01*
X149750Y674250D02*
Y732714D01*
X173036Y756000D01*
X178750Y712250D02*
Y726750D01*
X178750Y712250D02*
X178750Y712250D01*
X178750Y708250D02*
Y712250D01*
X186250Y743750D02*
X194500Y752000D01*
X201000D01*
X178750Y743750D02*
X186250D01*
X155000Y823000D02*
X171000D01*
X148000Y830000D02*
X155000Y823000D01*
X148000Y830000D02*
Y840250D01*
X131500Y834601D02*
X190101Y776000D01*
X131500Y864700D02*
X146800Y880000D01*
X131500Y834601D02*
Y864700D01*
X135500Y863750D02*
X148250Y876500D01*
X135500Y835550D02*
Y863750D01*
Y835550D02*
X191050Y780000D01*
X146800Y880000D02*
X162000D01*
X169000Y887000D01*
X171000Y876500D02*
X181500Y887000D01*
X148250Y876500D02*
X171000D01*
X194250Y792000D02*
X201000D01*
X208000Y823250D02*
X215250Y830500D01*
X216000Y799000D02*
Y811250D01*
X233250Y835750D02*
Y846750D01*
X212000Y799000D02*
Y814500D01*
X266000Y792000D02*
X273250Y799250D01*
X173036Y756000D02*
X201000D01*
X259000Y792000D02*
X266000D01*
X171000Y837000D02*
Y848000D01*
Y837000D02*
X176000Y832000D01*
X193000Y788000D02*
X201000D01*
X171000Y805000D02*
Y823000D01*
X100500Y860651D02*
Y887000D01*
Y860651D02*
X189151Y772000D01*
X88000Y868201D02*
Y887000D01*
Y868201D02*
X188201Y768000D01*
X75500Y874500D02*
Y887000D01*
Y874500D02*
X186000Y764000D01*
X201000D01*
X63000Y887000D02*
X63312Y886688D01*
Y880705D02*
X184018Y760000D01*
X201000D01*
X63312Y880705D02*
Y886688D01*
X171000Y805000D02*
X192000Y784000D01*
X189151Y772000D02*
X201000D01*
X188201Y768000D02*
X201000D01*
X190101Y776000D02*
X201000D01*
X192000Y784000D02*
X201000D01*
X191050Y780000D02*
X201000D01*
D18*
X24000Y765750D02*
D03*
X49000Y784750D02*
D03*
Y775250D02*
D03*
X24000Y784750D02*
D03*
X49000Y765750D02*
D03*
X49000Y666250D02*
D03*
Y685250D02*
D03*
X30000Y675750D02*
D03*
X57500Y850000D02*
D03*
Y831000D02*
D03*
X76500Y840500D02*
D03*
D19*
X277530Y676955D02*
D03*
D20*
X298529Y676935D02*
D03*
D21*
X217750Y642750D02*
D03*
Y665250D02*
D03*
X298500Y710500D02*
D03*
Y694500D02*
D03*
X233250Y846750D02*
D03*
Y862750D02*
D03*
D22*
X201000Y792000D02*
D03*
X259000D02*
D03*
Y788000D02*
D03*
Y784000D02*
D03*
Y780000D02*
D03*
Y776000D02*
D03*
Y772000D02*
D03*
Y768000D02*
D03*
Y764000D02*
D03*
Y760000D02*
D03*
Y756000D02*
D03*
Y752000D02*
D03*
Y748000D02*
D03*
X201000D02*
D03*
Y752000D02*
D03*
Y756000D02*
D03*
Y760000D02*
D03*
Y764000D02*
D03*
Y768000D02*
D03*
Y772000D02*
D03*
Y776000D02*
D03*
Y780000D02*
D03*
Y784000D02*
D03*
Y788000D02*
D03*
D23*
X208000Y799000D02*
D03*
X212000D02*
D03*
X216000D02*
D03*
X220000D02*
D03*
X224000D02*
D03*
X228000D02*
D03*
X232000D02*
D03*
X236000D02*
D03*
X240000D02*
D03*
X244000D02*
D03*
X248000D02*
D03*
X252000D02*
D03*
Y741000D02*
D03*
X248000D02*
D03*
X244000D02*
D03*
X240000D02*
D03*
X236000D02*
D03*
X232000D02*
D03*
X228000D02*
D03*
X224000D02*
D03*
X220000D02*
D03*
X216000D02*
D03*
X212000D02*
D03*
X208000D02*
D03*
D24*
X230000Y770000D02*
D03*
D25*
X132500Y684750D02*
D03*
Y642750D02*
D03*
X84000Y684750D02*
D03*
Y642750D02*
D03*
D26*
X248750Y862750D02*
D03*
Y852750D02*
D03*
D27*
X366000Y900250D02*
D03*
Y870250D02*
D03*
D28*
X369000Y885000D02*
D03*
D29*
X390000Y885250D02*
D03*
D30*
X336000Y885000D02*
D03*
X294000D02*
D03*
D31*
X171000Y823000D02*
D03*
Y848000D02*
D03*
D32*
X312750Y834250D02*
D03*
X334750D02*
D03*
Y817250D02*
D03*
X312750D02*
D03*
D33*
X9700Y896000D02*
D03*
Y834000D02*
D03*
D34*
Y887500D02*
D03*
Y882500D02*
D03*
Y877500D02*
D03*
Y872500D02*
D03*
Y867500D02*
D03*
Y862500D02*
D03*
Y857500D02*
D03*
Y852500D02*
D03*
Y847500D02*
D03*
Y842500D02*
D03*
X22700Y835000D02*
D03*
Y840000D02*
D03*
Y845000D02*
D03*
Y850000D02*
D03*
Y855000D02*
D03*
Y860000D02*
D03*
Y870000D02*
D03*
Y875000D02*
D03*
Y880000D02*
D03*
Y885000D02*
D03*
Y890000D02*
D03*
Y895000D02*
D03*
D35*
X329500Y858500D02*
Y859398D01*
X221750Y665250D02*
X232500D01*
X221750Y665250D02*
X221750Y665250D01*
X217750Y665250D02*
X221750D01*
X16500Y835000D02*
X22700D01*
X15500Y834000D02*
X16500Y835000D01*
X9700Y834000D02*
X15500D01*
X19200Y895000D02*
X19200Y895000D01*
X16500Y895000D02*
X19200D01*
X19200Y895000D02*
X22700D01*
X15500Y896000D02*
X16500Y895000D01*
X9700Y896000D02*
X15500D01*
X2030Y875743D02*
X3787Y877500D01*
X2030Y854227D02*
Y875743D01*
X3787Y877500D02*
X9700D01*
X2030Y854227D02*
X3757Y852500D01*
X9700D01*
X14500Y877500D02*
X17000Y880000D01*
X22700D01*
X9700Y877500D02*
X14500D01*
X17000Y850000D02*
X22700D01*
X14500Y852500D02*
X17000Y850000D01*
X9700Y852500D02*
X14500D01*
X22700Y850000D02*
X35250D01*
X103500Y642750D02*
X116500Y629750D01*
X175993D01*
X177750Y631507D02*
Y642750D01*
X175993Y629750D02*
X177750Y631507D01*
X427250Y807000D02*
X442500D01*
X440500Y850500D02*
X442500Y848500D01*
Y807000D02*
Y848500D01*
Y807000D02*
X459250D01*
X453750Y826750D02*
X454000Y826500D01*
X470000D01*
X459250Y807000D02*
X471500Y794750D01*
X401000Y807000D02*
X427250D01*
X374743Y906750D02*
X453000D01*
X470000Y843500D02*
Y889750D01*
X453000Y906750D02*
X470000Y889750D01*
X297250Y906750D02*
X357257D01*
X357757Y907250D02*
X374243D01*
X357257Y906750D02*
X357757Y907250D01*
X294000Y903500D02*
X297250Y906750D01*
X374243Y907250D02*
X374743Y906750D01*
X294000Y885000D02*
Y903500D01*
X448750Y880500D02*
Y895250D01*
X329500Y859398D02*
X336000Y865898D01*
X101000Y720000D02*
X119500D01*
X59000Y740500D02*
X59500Y741000D01*
X41000Y740500D02*
X59000D01*
X68250Y730250D02*
X78750Y740750D01*
Y748750D01*
X84000Y642750D02*
X103500D01*
X84000Y684750D02*
X132250D01*
X132500Y684500D01*
X84000Y684750D02*
Y719750D01*
X83750Y720000D02*
X84000Y719750D01*
Y669750D02*
Y684750D01*
X49000Y685250D02*
Y701750D01*
X-28000Y688250D02*
Y703000D01*
X-15500Y675750D02*
X30000D01*
X-28000Y688250D02*
X-15500Y675750D01*
X80500Y666250D02*
X84000Y669750D01*
X49000Y666250D02*
X80500D01*
X12250Y658000D02*
X27500Y642750D01*
X84000D01*
X-28000Y658000D02*
X12250D01*
X13000Y730250D02*
X68250D01*
X-16000Y759250D02*
X13000Y730250D01*
X24000Y740500D02*
Y762750D01*
X24000Y762750D02*
X24000Y762750D01*
X24000Y762750D02*
Y765750D01*
X24000Y740500D02*
X24250Y740750D01*
X427000Y850500D02*
X440500D01*
X336000Y865898D02*
Y885000D01*
X76500Y793000D02*
Y840500D01*
X68250Y784750D02*
X76500Y793000D01*
X49000Y784750D02*
X68250D01*
X43750Y831000D02*
X43750Y831000D01*
X57500D01*
X24000Y803500D02*
X35250Y814750D01*
Y850000D01*
X57500D01*
X24000Y784750D02*
Y803500D01*
X-16000Y784750D02*
X24000D01*
X390000Y885250D02*
X412000D01*
X412000Y885250D01*
X419000D01*
X396250Y850500D02*
X427000D01*
X171000Y848000D02*
X215750D01*
X252750Y912250D02*
X280000Y885000D01*
X294000D01*
X64250Y912250D02*
X252750D01*
X32000Y880000D02*
X64250Y912250D01*
X366000Y850500D02*
X396250D01*
X89250Y840500D02*
X89250Y840500D01*
X76500Y840500D02*
X89250D01*
X366000Y850500D02*
Y870250D01*
X336000Y885000D02*
X369000D01*
X22700Y880000D02*
X32000D01*
D36*
X277500Y692500D02*
X277530Y692470D01*
D37*
X298529Y676935D02*
Y690471D01*
X298500Y690500D02*
X298529Y690471D01*
X298500Y690500D02*
Y694500D01*
D38*
X367523Y642990D02*
D03*
D39*
X380491Y654336D02*
D03*
D40*
X331756Y654339D02*
D03*
D41*
X356524Y627936D02*
D03*
X403526Y627934D02*
D03*
D42*
X298024Y627936D02*
D03*
D43*
X414526Y648537D02*
D03*
D44*
X392526Y643250D02*
D03*
D45*
X345525Y643109D02*
D03*
D46*
X320523Y641136D02*
D03*
D47*
X298526Y651459D02*
D03*
D48*
X277526Y649979D02*
D03*
D49*
X749000Y689250D02*
D03*
Y664250D02*
D03*
Y676750D02*
D03*
Y651750D02*
D03*
X748000Y836750D02*
D03*
Y811750D02*
D03*
Y824250D02*
D03*
Y799250D02*
D03*
X144000Y887000D02*
D03*
X169000D02*
D03*
X156500D02*
D03*
X181500D02*
D03*
X63000D02*
D03*
X88000D02*
D03*
X75500D02*
D03*
X100500D02*
D03*
D50*
X645000Y855250D02*
D03*
X715000Y745250D02*
D03*
X685000Y730250D02*
D03*
X715000Y675250D02*
D03*
X610000Y640250D02*
D03*
X540000Y765250D02*
D03*
Y735250D02*
D03*
Y705250D02*
D03*
X594000D02*
D03*
X610000Y689250D02*
D03*
X646000Y706250D02*
D03*
X655000Y726250D02*
D03*
X588000Y788250D02*
D03*
X690000Y711250D02*
D03*
X707000Y771250D02*
D03*
X651000Y688250D02*
D03*
X613000Y818250D02*
D03*
X656000Y790250D02*
D03*
X709000Y807250D02*
D03*
X577000Y759250D02*
D03*
X593000Y748250D02*
D03*
X329500Y858500D02*
D03*
X256000Y832000D02*
D03*
X272000Y757750D02*
D03*
X257500Y811500D02*
D03*
X232500Y724750D02*
D03*
X272750Y742500D02*
D03*
X196000Y725750D02*
D03*
X251750Y727000D02*
D03*
X196500Y810750D02*
D03*
X448750Y895250D02*
D03*
X43750Y831000D02*
D03*
X89250Y840500D02*
D03*
X49000Y701750D02*
D03*
X215250Y830500D02*
D03*
X232500Y665250D02*
D03*
X245250Y710000D02*
D03*
X161750Y692500D02*
D03*
X406500Y767500D02*
D03*
X453750Y826750D02*
D03*
X119500Y720000D02*
D03*
X59500Y741000D02*
D03*
X64500Y775250D02*
D03*
D51*
X471500Y794750D02*
D03*
Y769750D02*
D03*
Y744750D02*
D03*
Y719750D02*
D03*
Y694750D02*
D03*
Y669750D02*
D03*
X247000Y897000D02*
D03*
X217000D02*
D03*
D52*
X-28000Y658000D02*
D03*
Y703000D02*
D03*
X-16000Y784750D02*
D03*
Y759250D02*
D03*
D53*
X-3000Y645500D02*
D03*
Y715500D02*
D03*
D54*
X-35000Y821800D02*
D03*
Y908200D02*
D03*
D55*
X18600Y821800D02*
D03*
Y908200D02*
D03*
D56*
X412500Y830000D02*
D03*
X380000D02*
D03*
X395000Y750000D02*
D03*
X160000Y645000D02*
D03*
X165000Y735000D02*
D03*
X5000Y800000D02*
D03*
X295000Y860000D02*
D03*
X25000Y710000D02*
D03*
X40000Y630000D02*
D03*
X55000Y650000D02*
D03*
X100000Y665000D02*
D03*
X125000D02*
D03*
X175000Y670000D02*
D03*
X220000Y695000D02*
D03*
X450000Y635000D02*
D03*
X480000D02*
D03*
Y650000D02*
D03*
X450000D02*
D03*
X420000Y730000D02*
D03*
X485000Y875000D02*
D03*
Y905000D02*
D03*
X120000Y855000D02*
D03*
X40000Y905000D02*
D03*
X45000Y860000D02*
D03*
X65000Y800000D02*
D03*
X155000Y775000D02*
D03*
X115000Y810000D02*
D03*
X90000Y805000D02*
D03*
Y825000D02*
D03*
X285000Y769000D02*
D03*
X224000Y788000D02*
D03*
X212000D02*
D03*
X224000Y776000D02*
D03*
X248000Y788000D02*
D03*
X236000D02*
D03*
X248000Y776000D02*
D03*
X236000D02*
D03*
X248000Y764000D02*
D03*
X236000D02*
D03*
X248000Y752000D02*
D03*
X236000D02*
D03*
X212000Y776000D02*
D03*
X224000Y764000D02*
D03*
X212000D02*
D03*
X224000Y752000D02*
D03*
X212000D02*
D03*
X430000Y630000D02*
D03*
Y642500D02*
D03*
Y655000D02*
D03*
Y667500D02*
D03*
Y680000D02*
D03*
Y692500D02*
D03*
X415000D02*
D03*
X400000D02*
D03*
X385000D02*
D03*
X370000D02*
D03*
X355000D02*
D03*
X337500D02*
D03*
X320000D02*
D03*
X277500D02*
D03*
X260000D02*
D03*
Y680000D02*
D03*
Y667500D02*
D03*
Y655000D02*
D03*
Y630000D02*
D03*
Y642500D02*
D03*
M02*
