M48
;Layer_Color=9474304
;FILE_FORMAT=4:4
METRIC,LZ
;TYPE=PLATED
T01F00S00C0.3000
T02F00S00C0.5000
%
T01
X0001Y00065
X00045
X00035Y001
X0001Y00135
X00135Y0014
Y00125
Y00095
Y0008
Y00065
X00065Y0001
X0018Y0002
Y00035
Y0005
Y00065
X00155
X00095Y00155
X00065Y00175
X00075Y00185
T02
X00069Y00046
X00085Y00047
X00069Y00099
X00046Y00088
X00048Y00113
X00046Y0013
X00103Y00119
X00168Y0011
Y000975
Y001535
Y00166
Y001785
X00088Y00169
X00061Y00156
M30
