G04*
G04 #@! TF.GenerationSoftware,Altium Limited,Altium Designer,23.8.1 (32)*
G04*
G04 Layer_Color=65535*
%FSLAX44Y44*%
%MOMM*%
G71*
G04*
G04 #@! TF.SameCoordinates,BD739B87-A4AA-4D6D-BF89-38DACE635197*
G04*
G04*
G04 #@! TF.FilePolarity,Positive*
G04*
G01*
G75*
%ADD10C,0.2000*%
%ADD11C,0.2540*%
%ADD12C,0.1270*%
D10*
X-116500Y103000D02*
G03*
X-116500Y103000I-30000J0D01*
G01*
X83500D02*
G03*
X83500Y103000I-30000J0D01*
G01*
X-276068Y74177D02*
G03*
X-298597Y74027I-11432J25016D01*
G01*
X-56500Y181000D02*
X-45500D01*
X-56500Y161000D02*
Y181000D01*
Y161000D02*
X-45500D01*
Y181000D01*
X-56500Y153000D02*
Y165000D01*
X-85000D02*
X-56500D01*
X-85000Y153000D02*
Y165000D01*
Y153000D02*
X-56500D01*
X-76500Y72000D02*
Y129250D01*
Y72000D02*
X-12500D01*
Y136000D01*
X-69750D02*
X-12500D01*
X-76500Y129250D02*
X-69750Y136000D01*
X41750Y52000D02*
X72250D01*
Y34000D02*
Y52000D01*
X41750Y34000D02*
X72250D01*
X41750D02*
Y52000D01*
X75750Y63000D02*
X106250D01*
Y45000D02*
Y63000D01*
X75750Y45000D02*
X106250D01*
X75750D02*
Y63000D01*
X174250Y57000D02*
Y75000D01*
Y57000D02*
X204750D01*
Y75000D01*
X174250D02*
X204750D01*
X-252500Y80000D02*
Y92000D01*
Y80000D02*
X-222500D01*
Y92000D01*
X-252500D02*
X-222500D01*
X20000Y57500D02*
X32000D01*
X20000Y29000D02*
Y57500D01*
Y29000D02*
X32000D01*
Y57500D01*
X-53750Y58000D02*
X-23250D01*
Y40000D02*
Y58000D01*
X-53750Y40000D02*
X-23250D01*
X-53750D02*
Y58000D01*
X174250Y102000D02*
X204750D01*
X174250D02*
Y120000D01*
X204750D01*
Y102000D02*
Y120000D01*
X-25000Y141750D02*
Y172250D01*
X-43000Y141750D02*
X-25000D01*
X-43000D02*
Y172250D01*
X-25000D01*
X-236500Y-37750D02*
Y2750D01*
Y-37750D02*
X-170500D01*
Y2750D01*
X-236500D02*
X-170500D01*
X-166500Y-24250D02*
Y-9750D01*
Y-31500D02*
Y-24250D01*
Y-9750D02*
Y-2500D01*
X176500Y229250D02*
Y236500D01*
Y207500D02*
Y214750D01*
Y229250D01*
X106500Y241750D02*
X172500D01*
Y201250D02*
Y241750D01*
X106500Y201250D02*
X172500D01*
X106500D02*
Y241750D01*
X-21500Y141750D02*
X-3500D01*
Y172250D01*
X-21500D02*
X-3500D01*
X-21500Y141750D02*
Y172250D01*
X12750Y41000D02*
Y59000D01*
X-17750D02*
X12750D01*
X-17750Y41000D02*
Y59000D01*
Y41000D02*
X12750D01*
X35500Y200500D02*
X67500D01*
Y229500D01*
X35500D02*
X67500D01*
X35500Y200500D02*
Y229500D01*
X-74250Y174000D02*
Y192000D01*
X-104750D02*
X-74250D01*
X-104750Y174000D02*
Y192000D01*
Y174000D02*
X-74250D01*
X-115500Y121000D02*
X-93750D01*
Y160000D01*
X-115500D02*
X-93750D01*
X-115500Y121000D02*
Y160000D01*
X-70250Y18000D02*
Y36000D01*
X-100750D02*
X-70250D01*
X-100750Y18000D02*
Y36000D01*
Y18000D02*
X-70250D01*
X122500Y63250D02*
X140500D01*
X122500Y32750D02*
Y63250D01*
Y32750D02*
X140500D01*
Y63250D01*
X125250Y89000D02*
Y107000D01*
Y89000D02*
X155750D01*
Y107000D01*
X125250D02*
X155750D01*
X204750Y12000D02*
Y30000D01*
X174250D02*
X204750D01*
X174250Y12000D02*
Y30000D01*
Y12000D02*
X204750D01*
X-39250Y202000D02*
Y220000D01*
X-69750D02*
X-39250D01*
X-69750Y202000D02*
Y220000D01*
Y202000D02*
X-39250D01*
X61500Y137000D02*
Y185000D01*
X108500D01*
X61500Y137000D02*
X108500D01*
Y185000D01*
X-60500Y8000D02*
X-30500D01*
X-60500D02*
Y20000D01*
X-30500D01*
Y8000D02*
Y20000D01*
X25750Y176000D02*
Y194000D01*
Y176000D02*
X56250D01*
Y194000D01*
X25750D02*
X56250D01*
X180500Y179250D02*
X198500D01*
X180500Y148750D02*
Y179250D01*
Y148750D02*
X198500D01*
Y179250D01*
X-202500Y68000D02*
X-172500D01*
Y56000D02*
Y68000D01*
X-202500Y56000D02*
X-172500D01*
X-202500D02*
Y68000D01*
X-58500Y-39000D02*
X-28500D01*
X-58500D02*
Y-27000D01*
X-28500D01*
Y-39000D02*
Y-27000D01*
X-62750Y-11250D02*
Y-10250D01*
Y3750D01*
X-59750D02*
X-25250D01*
Y-11250D02*
Y3750D01*
X-59750Y-11250D02*
X-25250D01*
X-59750D02*
Y3750D01*
X-230500Y26000D02*
Y56000D01*
X-218500D01*
Y26000D02*
Y56000D01*
X-230500Y26000D02*
X-218500D01*
X-128250Y-33000D02*
X-121000D01*
X-150000D02*
X-142750D01*
X-128250D01*
X-115750Y-29000D02*
Y37000D01*
X-156250Y-29000D02*
X-115750D01*
X-156250D02*
Y37000D01*
X-115750D01*
X165500Y147000D02*
Y179000D01*
X136500D02*
X165500D01*
X136500Y147000D02*
Y179000D01*
Y147000D02*
X165500D01*
X11000Y143250D02*
Y165000D01*
Y143250D02*
X50000D01*
Y165000D01*
X11000D02*
X50000D01*
X21250Y201250D02*
Y217750D01*
X18250Y220750D02*
X21250Y217750D01*
X-28250Y220750D02*
X18250D01*
X-28250Y201250D02*
X21250D01*
X-28250D02*
Y220750D01*
X-219000Y108000D02*
X-184000D01*
X-219000D02*
Y140000D01*
X-184000D01*
Y108000D02*
Y140000D01*
X-138500Y205500D02*
Y247500D01*
Y205500D02*
X-89000D01*
Y237250D01*
X-138500Y247500D02*
X-99250D01*
X-89000Y237250D01*
X-154750Y247500D02*
X-144500Y237250D01*
X-206500Y247500D02*
X-154750D01*
X-144500Y205500D02*
Y237250D01*
X-206500Y205500D02*
X-144500D01*
X-206500D02*
Y247500D01*
X-311500Y44000D02*
Y51750D01*
X-255250D01*
Y-40000D02*
Y51750D01*
X-311500Y-40000D02*
X-255250D01*
X-311500D02*
Y44000D01*
X-298597Y74027D02*
X-276318D01*
X-72330Y199498D02*
Y186502D01*
X-63666D01*
X-59334Y197332D02*
X-57168Y199498D01*
X-52836D01*
X-50670Y197332D01*
Y195166D01*
X-52836Y193000D01*
X-55002D01*
X-52836D01*
X-50670Y190834D01*
Y188668D01*
X-52836Y186502D01*
X-57168D01*
X-59334Y188668D01*
X-88830Y179498D02*
Y166502D01*
X-80166D01*
X-67170D02*
X-75834D01*
X-67170Y175166D01*
Y177332D01*
X-69336Y179498D01*
X-73668D01*
X-75834Y177332D01*
X47059Y12563D02*
Y-433D01*
X51391Y3899D01*
X55723Y-433D01*
Y12563D01*
X60055Y-433D02*
Y8231D01*
X64387Y12563D01*
X68719Y8231D01*
Y-433D01*
Y6065D01*
X60055D01*
X73051Y-433D02*
X77383D01*
X75217D01*
Y12563D01*
X73051Y10397D01*
X183988Y93878D02*
X181822Y96044D01*
X177490D01*
X175324Y93878D01*
Y85214D01*
X177490Y83048D01*
X181822D01*
X183988Y85214D01*
X188320Y83048D02*
X192652D01*
X190486D01*
Y96044D01*
X188320Y93878D01*
X199150Y83048D02*
X203482D01*
X201316D01*
Y96044D01*
X199150Y93878D01*
X13336Y73498D02*
Y60502D01*
X22000D01*
X26332D02*
X30664D01*
X28498D01*
Y73498D01*
X26332Y71332D01*
X9672Y178498D02*
X18336D01*
Y176332D01*
X9672Y167668D01*
Y165502D01*
X18336D01*
X31332Y167668D02*
Y176332D01*
X29166Y178498D01*
X24834D01*
X22668Y176332D01*
Y167668D01*
X24834Y165502D01*
X29166D01*
X27000Y169834D02*
X31332Y165502D01*
X29166D02*
X31332Y167668D01*
X44328Y165502D02*
X35664D01*
X44328Y174166D01*
Y176332D01*
X42162Y178498D01*
X37830D01*
X35664Y176332D01*
X-134998Y128838D02*
Y137502D01*
X-132832D01*
X-124168Y128838D01*
X-122002D01*
Y137502D01*
X-124168Y150498D02*
X-132832D01*
X-134998Y148332D01*
Y144000D01*
X-132832Y141834D01*
X-124168D01*
X-122002Y144000D01*
Y148332D01*
X-126334Y146166D02*
X-122002Y150498D01*
Y148332D02*
X-124168Y150498D01*
X-122002Y154830D02*
Y159162D01*
Y156996D01*
X-134998D01*
X-132832Y154830D01*
X-199080Y250748D02*
X-190416Y237752D01*
Y250748D02*
X-199080Y237752D01*
X-177420Y250748D02*
X-181752Y248582D01*
X-186084Y244250D01*
Y239918D01*
X-183918Y237752D01*
X-179586D01*
X-177420Y239918D01*
Y242084D01*
X-179586Y244250D01*
X-186084D01*
X-130080Y249498D02*
X-121416Y236502D01*
Y249498D02*
X-130080Y236502D01*
X-108420Y249498D02*
X-117084D01*
Y243000D01*
X-112752Y245166D01*
X-110586D01*
X-108420Y243000D01*
Y238668D01*
X-110586Y236502D01*
X-114918D01*
X-117084Y238668D01*
X-218502Y238780D02*
X-231498Y230116D01*
X-218502D02*
X-231498Y238780D01*
Y217120D02*
Y225784D01*
X-222834Y217120D01*
X-220668D01*
X-218502Y219286D01*
Y223618D01*
X-220668Y225784D01*
X-27164Y237498D02*
X-18500Y224502D01*
Y237498D02*
X-27164Y224502D01*
X-14168D02*
X-9836D01*
X-12002D01*
Y237498D01*
X-14168Y235332D01*
X120002Y147672D02*
X128666D01*
X132998Y152004D01*
X128666Y156336D01*
X120002D01*
Y160668D02*
Y169332D01*
Y165000D01*
X132998D01*
Y182328D02*
Y173664D01*
X124334Y182328D01*
X122168D01*
X120002Y180162D01*
Y175830D01*
X122168Y173664D01*
X35338Y245498D02*
Y236834D01*
X39670Y232502D01*
X44002Y236834D01*
Y245498D01*
X48334D02*
X56998D01*
X52666D01*
Y232502D01*
X61330D02*
X65662D01*
X63496D01*
Y245498D01*
X61330Y243332D01*
X-103828Y2498D02*
Y-6166D01*
X-99496Y-10498D01*
X-95164Y-6166D01*
Y2498D01*
X-90832D02*
Y-10498D01*
X-84334D01*
X-82168Y-8332D01*
Y332D01*
X-84334Y2498D01*
X-90832D01*
X-71338Y-10498D02*
Y2498D01*
X-77836Y-4000D01*
X-69172D01*
X-162828Y55498D02*
Y46834D01*
X-158496Y42502D01*
X-154164Y46834D01*
Y55498D01*
X-149832D02*
Y42502D01*
X-143334D01*
X-141168Y44668D01*
Y53332D01*
X-143334Y55498D01*
X-149832D01*
X-136836Y53332D02*
X-134670Y55498D01*
X-130338D01*
X-128172Y53332D01*
Y51166D01*
X-130338Y49000D01*
X-132504D01*
X-130338D01*
X-128172Y46834D01*
Y44668D01*
X-130338Y42502D01*
X-134670D01*
X-136836Y44668D01*
X-234828Y20498D02*
Y11834D01*
X-230496Y7502D01*
X-226164Y11834D01*
Y20498D01*
X-221832D02*
Y7502D01*
X-215334D01*
X-213168Y9668D01*
Y18332D01*
X-215334Y20498D01*
X-221832D01*
X-200172Y7502D02*
X-208836D01*
X-200172Y16166D01*
Y18332D01*
X-202338Y20498D01*
X-206670D01*
X-208836Y18332D01*
X89002Y210838D02*
X97666D01*
X101998Y215170D01*
X97666Y219502D01*
X89002D01*
Y223834D02*
X101998D01*
Y230332D01*
X99832Y232498D01*
X91168D01*
X89002Y230332D01*
Y223834D01*
X101998Y236830D02*
Y241162D01*
Y238996D01*
X89002D01*
X91168Y236830D01*
X-294498Y65332D02*
X-296664Y67498D01*
X-300996D01*
X-303162Y65332D01*
Y63166D01*
X-300996Y61000D01*
X-296664D01*
X-294498Y58834D01*
Y56668D01*
X-296664Y54502D01*
X-300996D01*
X-303162Y56668D01*
X-290166Y67498D02*
Y54502D01*
X-283668D01*
X-281502Y56668D01*
Y58834D01*
X-283668Y61000D01*
X-290166D01*
X-283668D01*
X-281502Y63166D01*
Y65332D01*
X-283668Y67498D01*
X-290166D01*
X-277170Y54502D02*
X-272838D01*
X-275004D01*
Y67498D01*
X-277170Y65332D01*
X-57330Y23502D02*
Y36498D01*
X-50832D01*
X-48666Y34332D01*
Y30000D01*
X-50832Y27834D01*
X-57330D01*
X-52998D02*
X-48666Y23502D01*
X-35670Y36498D02*
X-44334D01*
Y30000D01*
X-40002Y32166D01*
X-37836D01*
X-35670Y30000D01*
Y25668D01*
X-37836Y23502D01*
X-42168D01*
X-44334Y25668D01*
X-211330Y71502D02*
Y84498D01*
X-204832D01*
X-202666Y82332D01*
Y78000D01*
X-204832Y75834D01*
X-211330D01*
X-206998D02*
X-202666Y71502D01*
X-191836D02*
Y84498D01*
X-198334Y78000D01*
X-189670D01*
X-85330Y-38498D02*
Y-25502D01*
X-78832D01*
X-76666Y-27668D01*
Y-32000D01*
X-78832Y-34166D01*
X-85330D01*
X-80998D02*
X-76666Y-38498D01*
X-72334Y-27668D02*
X-70168Y-25502D01*
X-65836D01*
X-63670Y-27668D01*
Y-29834D01*
X-65836Y-32000D01*
X-68002D01*
X-65836D01*
X-63670Y-34166D01*
Y-36332D01*
X-65836Y-38498D01*
X-70168D01*
X-72334Y-36332D01*
X-234002Y33170D02*
X-246998D01*
Y39668D01*
X-244832Y41834D01*
X-240500D01*
X-238334Y39668D01*
Y33170D01*
Y37502D02*
X-234002Y41834D01*
Y54830D02*
Y46166D01*
X-242666Y54830D01*
X-244832D01*
X-246998Y52664D01*
Y48332D01*
X-244832Y46166D01*
X-249164Y96502D02*
Y109498D01*
X-242666D01*
X-240500Y107332D01*
Y103000D01*
X-242666Y100834D01*
X-249164D01*
X-244832D02*
X-240500Y96502D01*
X-236168D02*
X-231836D01*
X-234002D01*
Y109498D01*
X-236168Y107332D01*
X-304162Y142498D02*
Y129502D01*
Y136000D01*
X-295498D01*
Y142498D01*
Y129502D01*
X-291166Y142498D02*
Y129502D01*
X-282502D01*
X-278170D02*
X-273838D01*
X-276004D01*
Y142498D01*
X-278170Y140332D01*
X-94998Y70672D02*
X-82002D01*
Y77170D01*
X-84168Y79336D01*
X-92832D01*
X-94998Y77170D01*
Y70672D01*
Y83668D02*
X-82002D01*
Y90166D01*
X-84168Y92332D01*
X-92832D01*
X-94998Y90166D01*
Y83668D01*
X-92832Y96664D02*
X-94998Y98830D01*
Y103162D01*
X-92832Y105328D01*
X-90666D01*
X-88500Y103162D01*
Y100996D01*
Y103162D01*
X-86334Y105328D01*
X-84168D01*
X-82002Y103162D01*
Y98830D01*
X-84168Y96664D01*
X-223328Y157498D02*
Y144502D01*
X-216830D01*
X-214664Y146668D01*
Y155332D01*
X-216830Y157498D01*
X-223328D01*
X-210332D02*
Y144502D01*
X-203834D01*
X-201668Y146668D01*
Y155332D01*
X-203834Y157498D01*
X-210332D01*
X-188672Y144502D02*
X-197336D01*
X-188672Y153166D01*
Y155332D01*
X-190838Y157498D01*
X-195170D01*
X-197336Y155332D01*
X72838Y202498D02*
Y189502D01*
X79336D01*
X81502Y191668D01*
Y200332D01*
X79336Y202498D01*
X72838D01*
X85834D02*
Y189502D01*
X92332D01*
X94498Y191668D01*
Y200332D01*
X92332Y202498D01*
X85834D01*
X98830Y189502D02*
X103162D01*
X100996D01*
Y202498D01*
X98830Y200332D01*
X-15581Y71332D02*
X-17747Y73498D01*
X-22079D01*
X-24245Y71332D01*
Y62668D01*
X-22079Y60502D01*
X-17747D01*
X-15581Y62668D01*
X-11249Y60502D02*
X-6917D01*
X-9083D01*
Y73498D01*
X-11249Y71332D01*
X-419D02*
X1747Y73498D01*
X6079D01*
X8245Y71332D01*
Y69166D01*
X6079Y67000D01*
X8245Y64834D01*
Y62668D01*
X6079Y60502D01*
X1747D01*
X-419Y62668D01*
Y64834D01*
X1747Y67000D01*
X-419Y69166D01*
Y71332D01*
X1747Y67000D02*
X6079D01*
X81419Y77332D02*
X79253Y79498D01*
X74921D01*
X72755Y77332D01*
Y68668D01*
X74921Y66502D01*
X79253D01*
X81419Y68668D01*
X85751Y66502D02*
X90083D01*
X87917D01*
Y79498D01*
X85751Y77332D01*
X96581Y79498D02*
X105245D01*
Y77332D01*
X96581Y68668D01*
Y66502D01*
X44419Y65332D02*
X42253Y67498D01*
X37921D01*
X35755Y65332D01*
Y56668D01*
X37921Y54502D01*
X42253D01*
X44419Y56668D01*
X48751Y54502D02*
X53083D01*
X50917D01*
Y67498D01*
X48751Y65332D01*
X68245Y67498D02*
X63913Y65332D01*
X59581Y61000D01*
Y56668D01*
X61747Y54502D01*
X66079D01*
X68245Y56668D01*
Y58834D01*
X66079Y61000D01*
X59581D01*
X177919Y46332D02*
X175753Y48498D01*
X171421D01*
X169255Y46332D01*
Y37668D01*
X171421Y35502D01*
X175753D01*
X177919Y37668D01*
X182251Y35502D02*
X186583D01*
X184417D01*
Y48498D01*
X182251Y46332D01*
X201745Y48498D02*
X193081D01*
Y42000D01*
X197413Y44166D01*
X199579D01*
X201745Y42000D01*
Y37668D01*
X199579Y35502D01*
X195247D01*
X193081Y37668D01*
X131419Y120332D02*
X129253Y122498D01*
X124921D01*
X122755Y120332D01*
Y111668D01*
X124921Y109502D01*
X129253D01*
X131419Y111668D01*
X135751Y109502D02*
X140083D01*
X137917D01*
Y122498D01*
X135751Y120332D01*
X153079Y109502D02*
Y122498D01*
X146581Y116000D01*
X155245D01*
X122419Y77332D02*
X120253Y79498D01*
X115921D01*
X113755Y77332D01*
Y68668D01*
X115921Y66502D01*
X120253D01*
X122419Y68668D01*
X126751Y66502D02*
X131083D01*
X128917D01*
Y79498D01*
X126751Y77332D01*
X137581D02*
X139747Y79498D01*
X144079D01*
X146245Y77332D01*
Y75166D01*
X144079Y73000D01*
X141913D01*
X144079D01*
X146245Y70834D01*
Y68668D01*
X144079Y66502D01*
X139747D01*
X137581Y68668D01*
X-41581Y189332D02*
X-43747Y191498D01*
X-48079D01*
X-50245Y189332D01*
Y180668D01*
X-48079Y178502D01*
X-43747D01*
X-41581Y180668D01*
X-37249Y178502D02*
X-32917D01*
X-35083D01*
Y191498D01*
X-37249Y189332D01*
X-17755Y178502D02*
X-26419D01*
X-17755Y187166D01*
Y189332D01*
X-19921Y191498D01*
X-24253D01*
X-26419Y189332D01*
X-134081Y188332D02*
X-136247Y190498D01*
X-140579D01*
X-142745Y188332D01*
Y179668D01*
X-140579Y177502D01*
X-136247D01*
X-134081Y179668D01*
X-129749Y177502D02*
X-125417D01*
X-127583D01*
Y190498D01*
X-129749Y188332D01*
X-118919D02*
X-116753Y190498D01*
X-112421D01*
X-110255Y188332D01*
Y179668D01*
X-112421Y177502D01*
X-116753D01*
X-118919Y179668D01*
Y188332D01*
X184334Y136332D02*
X182168Y138498D01*
X177836D01*
X175670Y136332D01*
Y127668D01*
X177836Y125502D01*
X182168D01*
X184334Y127668D01*
X188666D02*
X190832Y125502D01*
X195164D01*
X197330Y127668D01*
Y136332D01*
X195164Y138498D01*
X190832D01*
X188666Y136332D01*
Y134166D01*
X190832Y132000D01*
X197330D01*
X-99666Y51332D02*
X-101832Y53498D01*
X-106164D01*
X-108330Y51332D01*
Y42668D01*
X-106164Y40502D01*
X-101832D01*
X-99666Y42668D01*
X-95334Y51332D02*
X-93168Y53498D01*
X-88836D01*
X-86670Y51332D01*
Y49166D01*
X-88836Y47000D01*
X-86670Y44834D01*
Y42668D01*
X-88836Y40502D01*
X-93168D01*
X-95334Y42668D01*
Y44834D01*
X-93168Y47000D01*
X-95334Y49166D01*
Y51332D01*
X-93168Y47000D02*
X-88836D01*
X-60666Y235332D02*
X-62832Y237498D01*
X-67164D01*
X-69330Y235332D01*
Y226668D01*
X-67164Y224502D01*
X-62832D01*
X-60666Y226668D01*
X-56334Y237498D02*
X-47670D01*
Y235332D01*
X-56334Y226668D01*
Y224502D01*
X-67832Y49834D02*
X-69998Y47668D01*
Y43336D01*
X-67832Y41170D01*
X-59168D01*
X-57002Y43336D01*
Y47668D01*
X-59168Y49834D01*
X-57002Y60664D02*
X-69998D01*
X-63500Y54166D01*
Y62830D01*
X-8166Y185332D02*
X-10332Y187498D01*
X-14664D01*
X-16830Y185332D01*
Y176668D01*
X-14664Y174502D01*
X-10332D01*
X-8166Y176668D01*
X-3834Y185332D02*
X-1668Y187498D01*
X2664D01*
X4830Y185332D01*
Y183166D01*
X2664Y181000D01*
X498D01*
X2664D01*
X4830Y178834D01*
Y176668D01*
X2664Y174502D01*
X-1668D01*
X-3834Y176668D01*
X187334Y194332D02*
X185168Y196498D01*
X180836D01*
X178670Y194332D01*
Y185668D01*
X180836Y183502D01*
X185168D01*
X187334Y185668D01*
X200330Y183502D02*
X191666D01*
X200330Y192166D01*
Y194332D01*
X198164Y196498D01*
X193832D01*
X191666Y194332D01*
X15000Y192332D02*
X12834Y194498D01*
X8502D01*
X6336Y192332D01*
Y183668D01*
X8502Y181502D01*
X12834D01*
X15000Y183668D01*
X19332Y181502D02*
X23664D01*
X21498D01*
Y194498D01*
X19332Y192332D01*
D11*
X33651Y198000D02*
G03*
X33651Y198000I-901J0D01*
G01*
X168901Y144250D02*
G03*
X168901Y144250I-901J0D01*
G01*
X-180439Y105000D02*
G03*
X-180439Y105000I-1061J0D01*
G01*
D12*
X-286000Y152300D02*
X-264000D01*
X-286000Y241700D02*
X-264000D01*
X-320700Y152300D02*
Y241700D01*
M02*
