G04*
G04 #@! TF.GenerationSoftware,Altium Limited,Altium Designer,23.8.1 (32)*
G04*
G04 Layer_Color=8388736*
%FSLAX44Y44*%
%MOMM*%
G71*
G04*
G04 #@! TF.SameCoordinates,BD739B87-A4AA-4D6D-BF89-38DACE635197*
G04*
G04*
G04 #@! TF.FilePolarity,Negative*
G04*
G01*
G75*
%ADD36R,3.8000X4.6000*%
%ADD37R,2.2000X6.4000*%
%ADD38R,5.9000X5.9000*%
%ADD39R,0.8000X1.1000*%
%ADD40R,0.8000X0.4000*%
%ADD41R,0.6000X0.6000*%
%ADD42R,1.0000X0.8000*%
%ADD43R,0.8000X0.7000*%
%ADD44R,0.9000X0.9000*%
%ADD45R,4.7000X4.7000*%
%ADD46R,0.5000X0.3000*%
%ADD47R,0.3000X0.5000*%
%ADD48R,1.0500X1.5000*%
%ADD49R,1.0000X0.9000*%
%ADD50R,0.9000X0.9000*%
%ADD51R,1.5000X1.0500*%
%ADD52R,2.1000X2.6000*%
%ADD53R,0.6000X0.7000*%
%ADD54R,1.9000X1.1000*%
%ADD55R,2.1000X3.1000*%
%ADD56R,0.7000X2.1000*%
%ADD57R,0.7000X1.5000*%
%ADD58R,0.9000X1.0000*%
%ADD59R,2.6000X2.1000*%
%ADD60R,0.7000X0.6000*%
%ADD61R,1.1000X1.9000*%
%ADD62O,2.7000X1.4000*%
%ADD63O,2.2000X1.1000*%
%ADD64C,1.6000*%
%ADD65C,1.0000*%
%ADD66C,1.5000*%
%ADD67C,1.8000*%
%ADD68C,0.1000*%
%ADD69C,0.8000*%
D36*
X85000Y161000D02*
D03*
D37*
X-252000Y197000D02*
D03*
D38*
X-44500Y104000D02*
D03*
D39*
X-258300Y228000D02*
D03*
Y166000D02*
D03*
D40*
Y219500D02*
D03*
Y214500D02*
D03*
Y209500D02*
D03*
Y204500D02*
D03*
Y199500D02*
D03*
Y194500D02*
D03*
Y189500D02*
D03*
Y184500D02*
D03*
Y179500D02*
D03*
Y174500D02*
D03*
X-245300Y167000D02*
D03*
Y172000D02*
D03*
Y177000D02*
D03*
Y182000D02*
D03*
Y187000D02*
D03*
Y192000D02*
D03*
Y202000D02*
D03*
Y207000D02*
D03*
Y212000D02*
D03*
Y217000D02*
D03*
Y222000D02*
D03*
Y227000D02*
D03*
D41*
X25500Y13000D02*
D03*
D42*
X4501Y13020D02*
D03*
D43*
X-51000Y176000D02*
D03*
Y166000D02*
D03*
D44*
X-62500Y159000D02*
D03*
X-78500D02*
D03*
X-53750Y-4000D02*
D03*
X-31250D02*
D03*
D45*
X-44500Y104000D02*
D03*
D46*
X-71500Y126000D02*
D03*
Y122000D02*
D03*
Y118000D02*
D03*
Y114000D02*
D03*
Y110000D02*
D03*
Y106000D02*
D03*
Y102000D02*
D03*
Y98000D02*
D03*
Y94000D02*
D03*
Y90000D02*
D03*
Y86000D02*
D03*
Y82000D02*
D03*
X-17500D02*
D03*
Y86000D02*
D03*
Y90000D02*
D03*
Y94000D02*
D03*
Y98000D02*
D03*
Y102000D02*
D03*
Y106000D02*
D03*
Y110000D02*
D03*
Y114000D02*
D03*
Y118000D02*
D03*
Y122000D02*
D03*
Y126000D02*
D03*
D47*
X-66500Y77000D02*
D03*
X-62500D02*
D03*
X-58500D02*
D03*
X-54500D02*
D03*
X-50500D02*
D03*
X-46500D02*
D03*
X-42500D02*
D03*
X-38500D02*
D03*
X-34500D02*
D03*
X-30500D02*
D03*
X-26500D02*
D03*
X-22500D02*
D03*
Y131000D02*
D03*
X-26500D02*
D03*
X-30500D02*
D03*
X-34500D02*
D03*
X-38500D02*
D03*
X-42500D02*
D03*
X-46500D02*
D03*
X-50500D02*
D03*
X-54500D02*
D03*
X-58500D02*
D03*
X-62500D02*
D03*
X-66500D02*
D03*
D48*
X65500Y43000D02*
D03*
X48500D02*
D03*
X99500Y54000D02*
D03*
X82500D02*
D03*
X181000Y66000D02*
D03*
X198000D02*
D03*
X-30000Y49000D02*
D03*
X-47000D02*
D03*
X181000Y111000D02*
D03*
X198000D02*
D03*
X6000Y50000D02*
D03*
X-11000D02*
D03*
X-81000Y183000D02*
D03*
X-98000D02*
D03*
X-77000Y27000D02*
D03*
X-94000D02*
D03*
X132000Y98000D02*
D03*
X149000D02*
D03*
X198000Y21000D02*
D03*
X181000D02*
D03*
X-46000Y211000D02*
D03*
X-63000D02*
D03*
X32500Y185000D02*
D03*
X49500D02*
D03*
D49*
X-246000Y86000D02*
D03*
X-229000D02*
D03*
X-54000Y14000D02*
D03*
X-37000D02*
D03*
X-179000Y62000D02*
D03*
X-196000D02*
D03*
X-52000Y-33000D02*
D03*
X-35000D02*
D03*
D50*
X26000Y51500D02*
D03*
Y35500D02*
D03*
D51*
X-34000Y148500D02*
D03*
Y165500D02*
D03*
X-12500Y148500D02*
D03*
Y165500D02*
D03*
X131500Y56500D02*
D03*
Y39500D02*
D03*
X189500Y172500D02*
D03*
Y155500D02*
D03*
D52*
X-224500Y-17000D02*
D03*
X-182500D02*
D03*
X160500Y222000D02*
D03*
X118500D02*
D03*
D53*
X51500Y224500D02*
D03*
X61000Y205500D02*
D03*
X42000D02*
D03*
D54*
X-104500Y153000D02*
D03*
Y128000D02*
D03*
D55*
X85000Y168000D02*
D03*
D56*
X85250Y149000D02*
D03*
D57*
X100000Y146000D02*
D03*
X70000D02*
D03*
D58*
X-224500Y49500D02*
D03*
Y32500D02*
D03*
D59*
X-135500Y-17000D02*
D03*
Y25000D02*
D03*
D60*
X141500Y163000D02*
D03*
X160500Y172500D02*
D03*
Y153500D02*
D03*
X-214000Y114500D02*
D03*
X-189000Y133500D02*
D03*
Y124000D02*
D03*
X-214000Y133500D02*
D03*
X-189000Y114500D02*
D03*
D61*
X43000Y154000D02*
D03*
X18000D02*
D03*
D62*
X-303000Y153800D02*
D03*
Y240200D02*
D03*
D63*
X-249400Y153800D02*
D03*
Y240200D02*
D03*
D64*
X-18500Y211000D02*
D03*
X11500D02*
D03*
D65*
X-110000Y224000D02*
D03*
X-122500D02*
D03*
X-178000D02*
D03*
X-190500D02*
D03*
X-165500D02*
D03*
D66*
X-294000Y-16500D02*
D03*
Y28500D02*
D03*
X-287500Y86250D02*
D03*
Y111750D02*
D03*
D67*
X-269000Y-29000D02*
D03*
Y41000D02*
D03*
D68*
X53500Y103000D02*
D03*
X-146500D02*
D03*
D69*
X200000Y-5000D02*
D03*
X180000D02*
D03*
Y-35000D02*
D03*
X200000D02*
D03*
X56000Y27000D02*
D03*
X43000D02*
D03*
X69000D02*
D03*
X145000D02*
D03*
X133000D02*
D03*
X121000D02*
D03*
X108000D02*
D03*
X82000D02*
D03*
X95000D02*
D03*
X158000Y-36000D02*
D03*
Y-24000D02*
D03*
Y-12000D02*
D03*
Y1000D02*
D03*
Y27000D02*
D03*
Y14000D02*
D03*
X-15000D02*
D03*
Y27000D02*
D03*
Y1000D02*
D03*
Y-12000D02*
D03*
Y-24000D02*
D03*
X-71000Y142000D02*
D03*
X-5500Y103000D02*
D03*
X160500Y137000D02*
D03*
X200000Y-20000D02*
D03*
X180000D02*
D03*
X195000Y220000D02*
D03*
Y240000D02*
D03*
X215000D02*
D03*
Y220000D02*
D03*
Y200000D02*
D03*
Y180000D02*
D03*
Y160000D02*
D03*
Y140000D02*
D03*
Y120000D02*
D03*
Y100000D02*
D03*
Y80000D02*
D03*
X215133Y63014D02*
D03*
X215213Y43608D02*
D03*
X215000Y25000D02*
D03*
Y5000D02*
D03*
X214890Y-10082D02*
D03*
X215000Y-25000D02*
D03*
X5000Y27000D02*
D03*
X-15000Y-36000D02*
D03*
X-81500Y223000D02*
D03*
X-110000Y50000D02*
D03*
X-180000Y40000D02*
D03*
X168500Y88000D02*
D03*
X-36500Y193000D02*
D03*
X-61500D02*
D03*
X-141500Y3000D02*
D03*
X-81500Y-17000D02*
D03*
X-106500Y-7000D02*
D03*
X-180000Y10000D02*
D03*
X-296500Y8000D02*
D03*
X-266500D02*
D03*
X-130000Y60000D02*
D03*
X-110000Y75000D02*
D03*
X-155000Y60000D02*
D03*
X-220000Y65000D02*
D03*
X-250000D02*
D03*
Y135000D02*
D03*
X-146500Y143000D02*
D03*
X-156500Y158000D02*
D03*
X-181500D02*
D03*
X-171500Y173000D02*
D03*
X-196500D02*
D03*
X-186500Y188000D02*
D03*
X-201500Y198000D02*
D03*
X-50500Y98000D02*
D03*
X-38500D02*
D03*
Y110000D02*
D03*
X-50500D02*
D03*
X-62500D02*
D03*
Y98000D02*
D03*
Y86000D02*
D03*
X-50500D02*
D03*
X-38500D02*
D03*
X-26500D02*
D03*
Y98000D02*
D03*
Y110000D02*
D03*
Y122000D02*
D03*
X-38500D02*
D03*
X-50500D02*
D03*
X-62500D02*
D03*
X-229500Y227000D02*
D03*
X-230500Y167000D02*
D03*
X-83500Y83000D02*
D03*
X-6500Y136000D02*
D03*
X-12500Y186000D02*
D03*
X-169500Y133000D02*
D03*
X74500Y205000D02*
D03*
X-52500Y-21000D02*
D03*
X-93500Y62000D02*
D03*
Y116000D02*
D03*
X51500Y237000D02*
D03*
M02*
