G04*
G04 #@! TF.GenerationSoftware,Altium Limited,Altium Designer,23.8.1 (32)*
G04*
G04 Layer_Color=16711935*
%FSLAX44Y44*%
%MOMM*%
G71*
G04*
G04 #@! TF.SameCoordinates,BD739B87-A4AA-4D6D-BF89-38DACE635197*
G04*
G04*
G04 #@! TF.FilePolarity,Negative*
G04*
G01*
G75*
%ADD62O,2.7000X1.4000*%
%ADD63O,2.2000X1.1000*%
%ADD64C,1.6000*%
%ADD65C,1.0000*%
%ADD66C,1.5000*%
%ADD67C,1.8000*%
%ADD68C,0.1000*%
%ADD69C,0.8000*%
D62*
X-303000Y153800D02*
D03*
Y240200D02*
D03*
D63*
X-249400Y153800D02*
D03*
Y240200D02*
D03*
D64*
X-18500Y211000D02*
D03*
X11500D02*
D03*
D65*
X-110000Y224000D02*
D03*
X-122500D02*
D03*
X-178000D02*
D03*
X-190500D02*
D03*
X-165500D02*
D03*
D66*
X-294000Y-16500D02*
D03*
Y28500D02*
D03*
X-287500Y86250D02*
D03*
Y111750D02*
D03*
D67*
X-269000Y-29000D02*
D03*
Y41000D02*
D03*
D68*
X53500Y103000D02*
D03*
X-146500D02*
D03*
D69*
X200000Y-5000D02*
D03*
X180000D02*
D03*
Y-35000D02*
D03*
X200000D02*
D03*
X56000Y27000D02*
D03*
X43000D02*
D03*
X69000D02*
D03*
X145000D02*
D03*
X133000D02*
D03*
X121000D02*
D03*
X108000D02*
D03*
X82000D02*
D03*
X95000D02*
D03*
X158000Y-36000D02*
D03*
Y-24000D02*
D03*
Y-12000D02*
D03*
Y1000D02*
D03*
Y27000D02*
D03*
Y14000D02*
D03*
X-15000D02*
D03*
Y27000D02*
D03*
Y1000D02*
D03*
Y-12000D02*
D03*
Y-24000D02*
D03*
X-71000Y142000D02*
D03*
X-5500Y103000D02*
D03*
X160500Y137000D02*
D03*
X200000Y-20000D02*
D03*
X180000D02*
D03*
X195000Y220000D02*
D03*
Y240000D02*
D03*
X215000D02*
D03*
Y220000D02*
D03*
Y200000D02*
D03*
Y180000D02*
D03*
Y160000D02*
D03*
Y140000D02*
D03*
Y120000D02*
D03*
Y100000D02*
D03*
Y80000D02*
D03*
X215133Y63014D02*
D03*
X215213Y43608D02*
D03*
X215000Y25000D02*
D03*
Y5000D02*
D03*
X214890Y-10082D02*
D03*
X215000Y-25000D02*
D03*
X5000Y27000D02*
D03*
X-15000Y-36000D02*
D03*
X-81500Y223000D02*
D03*
X-110000Y50000D02*
D03*
X-180000Y40000D02*
D03*
X168500Y88000D02*
D03*
X-36500Y193000D02*
D03*
X-61500D02*
D03*
X-141500Y3000D02*
D03*
X-81500Y-17000D02*
D03*
X-106500Y-7000D02*
D03*
X-180000Y10000D02*
D03*
X-296500Y8000D02*
D03*
X-266500D02*
D03*
X-130000Y60000D02*
D03*
X-110000Y75000D02*
D03*
X-155000Y60000D02*
D03*
X-220000Y65000D02*
D03*
X-250000D02*
D03*
Y135000D02*
D03*
X-146500Y143000D02*
D03*
X-156500Y158000D02*
D03*
X-181500D02*
D03*
X-171500Y173000D02*
D03*
X-196500D02*
D03*
X-186500Y188000D02*
D03*
X-201500Y198000D02*
D03*
X-50500Y98000D02*
D03*
X-38500D02*
D03*
Y110000D02*
D03*
X-50500D02*
D03*
X-62500D02*
D03*
Y98000D02*
D03*
Y86000D02*
D03*
X-50500D02*
D03*
X-38500D02*
D03*
X-26500D02*
D03*
Y98000D02*
D03*
Y110000D02*
D03*
Y122000D02*
D03*
X-38500D02*
D03*
X-50500D02*
D03*
X-62500D02*
D03*
X-229500Y227000D02*
D03*
X-230500Y167000D02*
D03*
X-83500Y83000D02*
D03*
X-6500Y136000D02*
D03*
X-12500Y186000D02*
D03*
X-169500Y133000D02*
D03*
X74500Y205000D02*
D03*
X-52500Y-21000D02*
D03*
X-93500Y62000D02*
D03*
Y116000D02*
D03*
X51500Y237000D02*
D03*
M02*
