M48
;Layer_Color=9474304
;FILE_FORMAT=4:4
METRIC,LZ
;TYPE=PLATED
T01F00S00C0.3000
T02F00S00C0.5000
T04F00S00C0.9000
T05F00S00C1.0000
T06F00S00C1.3000
%
T01
X-002965Y00008
X-002665
X-0025Y00065
X-0022
X-0018Y0004
Y0001
X-001415Y00003
X-001065Y-00007
X-000815Y-00017
X-000525Y-00021
X-00015Y-00024
Y-00012
Y00001
Y00014
Y00027
X00005
X00043
X00056
X00069
X00082
X00095
X00108
X00121
X00133
X00145
X00158
Y00014
Y00001
Y-00012
Y-00024
Y-00036
X0018Y-00035
Y-0002
Y-00005
X002
Y-0002
Y-00035
X00215Y-00025
X0021489Y-00010082
X00215Y00005
Y00025
X00215213Y00043608
X00215133Y00063014
X00215Y0008
X001685Y00088
X-000265Y00086
X-000385
X-000505
X-000625
X-000835Y00083
X-000935Y00062
X-0011Y0005
Y00075
X-0013Y0006
X-00155
X-00015Y-00036
X-000265Y00098
X-000385
X-000505
Y0011
Y00122
X-000385
Y0011
X-000265
Y00122
X-000065Y00136
X-000055Y00103
X-000625Y00098
Y0011
Y00122
X-00071Y00142
X-000935Y00116
X-001465Y00143
X-001565Y00158
X-001715Y00173
X-001695Y00133
X-000615Y00193
X-000365
X-000125Y00186
X-000815Y00223
X000515Y00237
X000745Y00205
X00195Y0022
Y0024
X00215
Y0022
Y002
Y0018
Y0016
Y0014
Y0012
Y001
X001605Y00137
X-001815Y00158
X-001965Y00173
X-001865Y00188
X-002015Y00198
X-002295Y00227
X-002305Y00167
X-0025Y00135
T02
X-00178Y00224
X-001655
X-001225
X-0011
X-001905
T04
X-002875Y0008625
Y0011175
T05
X-00294Y-000165
Y000285
X-000185Y00211
X000115
T06
X-00269Y-00029
Y00041
M30
