G04*
G04 #@! TF.GenerationSoftware,Altium Limited,Altium Designer,23.8.1 (32)*
G04*
G04 Layer_Color=16711935*
%FSLAX44Y44*%
%MOMM*%
G71*
G04*
G04 #@! TF.SameCoordinates,7BD4B443-AC8F-467E-A65E-793A9AF9F4B1*
G04*
G04*
G04 #@! TF.FilePolarity,Negative*
G04*
G01*
G75*
%ADD51C,1.5000*%
%ADD82C,1.0000*%
%ADD83C,0.1000*%
%ADD84C,1.2000*%
%ADD85C,1.6000*%
%ADD86C,1.8000*%
%ADD87O,2.7000X1.4000*%
%ADD88O,2.2000X1.1000*%
%ADD89C,0.8000*%
%ADD90R,1.0000X4.5500*%
%ADD91R,0.9000X0.7000*%
%ADD92R,0.9000X0.5000*%
%ADD93R,1.6000X2.5000*%
D51*
X-28000Y658000D02*
D03*
Y703000D02*
D03*
X-16000Y784750D02*
D03*
Y759250D02*
D03*
D82*
X749000Y689250D02*
D03*
Y664250D02*
D03*
Y676750D02*
D03*
Y651750D02*
D03*
X748000Y836750D02*
D03*
Y811750D02*
D03*
Y824250D02*
D03*
Y799250D02*
D03*
X144000Y887000D02*
D03*
X169000D02*
D03*
X156500D02*
D03*
X181500D02*
D03*
X63000D02*
D03*
X88000D02*
D03*
X75500D02*
D03*
X100500D02*
D03*
D83*
X565000Y830250D02*
D03*
Y660250D02*
D03*
X320000Y770000D02*
D03*
X120000D02*
D03*
D84*
X645000Y855250D02*
D03*
X715000Y745250D02*
D03*
X685000Y730250D02*
D03*
X715000Y675250D02*
D03*
X610000Y640250D02*
D03*
X540000Y765250D02*
D03*
Y735250D02*
D03*
Y705250D02*
D03*
X594000D02*
D03*
X610000Y689250D02*
D03*
X646000Y706250D02*
D03*
X655000Y726250D02*
D03*
X588000Y788250D02*
D03*
X690000Y711250D02*
D03*
X707000Y771250D02*
D03*
X651000Y688250D02*
D03*
X613000Y818250D02*
D03*
X656000Y790250D02*
D03*
X709000Y807250D02*
D03*
X577000Y759250D02*
D03*
X593000Y748250D02*
D03*
X329500Y858500D02*
D03*
X256000Y832000D02*
D03*
X272000Y757750D02*
D03*
X257500Y811500D02*
D03*
X232500Y724750D02*
D03*
X272750Y742500D02*
D03*
X196000Y725750D02*
D03*
X251750Y727000D02*
D03*
X196500Y810750D02*
D03*
X448750Y895250D02*
D03*
X43750Y831000D02*
D03*
X89250Y840500D02*
D03*
X49000Y701750D02*
D03*
X215250Y830500D02*
D03*
X232500Y665250D02*
D03*
X245250Y710000D02*
D03*
X161750Y692500D02*
D03*
X406500Y767500D02*
D03*
X453750Y826750D02*
D03*
X119500Y720000D02*
D03*
X59500Y741000D02*
D03*
X64500Y775250D02*
D03*
D85*
X471500Y794750D02*
D03*
Y769750D02*
D03*
Y744750D02*
D03*
Y719750D02*
D03*
Y694750D02*
D03*
Y669750D02*
D03*
X247000Y897000D02*
D03*
X217000D02*
D03*
D86*
X-3000Y645500D02*
D03*
Y715500D02*
D03*
D87*
X-35000Y821800D02*
D03*
Y908200D02*
D03*
D88*
X18600Y821800D02*
D03*
Y908200D02*
D03*
D89*
X412500Y830000D02*
D03*
X380000D02*
D03*
X395000Y750000D02*
D03*
X160000Y645000D02*
D03*
X165000Y735000D02*
D03*
X5000Y800000D02*
D03*
X295000Y860000D02*
D03*
X25000Y710000D02*
D03*
X40000Y630000D02*
D03*
X55000Y650000D02*
D03*
X100000Y665000D02*
D03*
X125000D02*
D03*
X175000Y670000D02*
D03*
X220000Y695000D02*
D03*
X450000Y635000D02*
D03*
X480000D02*
D03*
Y650000D02*
D03*
X450000D02*
D03*
X420000Y730000D02*
D03*
X485000Y875000D02*
D03*
Y905000D02*
D03*
X120000Y855000D02*
D03*
X40000Y905000D02*
D03*
X45000Y860000D02*
D03*
X65000Y800000D02*
D03*
X155000Y775000D02*
D03*
X115000Y810000D02*
D03*
X90000Y805000D02*
D03*
Y825000D02*
D03*
X285000Y769000D02*
D03*
X224000Y788000D02*
D03*
X212000D02*
D03*
X224000Y776000D02*
D03*
X248000Y788000D02*
D03*
X236000D02*
D03*
X248000Y776000D02*
D03*
X236000D02*
D03*
X248000Y764000D02*
D03*
X236000D02*
D03*
X248000Y752000D02*
D03*
X236000D02*
D03*
X212000Y776000D02*
D03*
X224000Y764000D02*
D03*
X212000D02*
D03*
X224000Y752000D02*
D03*
X212000D02*
D03*
X430000Y630000D02*
D03*
Y642500D02*
D03*
Y655000D02*
D03*
Y667500D02*
D03*
Y680000D02*
D03*
Y692500D02*
D03*
X415000D02*
D03*
X400000D02*
D03*
X385000D02*
D03*
X370000D02*
D03*
X355000D02*
D03*
X337500D02*
D03*
X320000D02*
D03*
X277500D02*
D03*
X260000D02*
D03*
Y680000D02*
D03*
Y667500D02*
D03*
Y655000D02*
D03*
Y630000D02*
D03*
Y642500D02*
D03*
D90*
X632000Y724250D02*
D03*
X610000Y724250D02*
D03*
D91*
X610000Y705500D02*
D03*
Y713000D02*
D03*
Y720500D02*
D03*
Y728000D02*
D03*
Y735500D02*
D03*
Y743000D02*
D03*
X632000Y705500D02*
D03*
Y713000D02*
D03*
Y720500D02*
D03*
Y728000D02*
D03*
Y735500D02*
D03*
Y743000D02*
D03*
D92*
X605500Y791250D02*
D03*
Y781250D02*
D03*
Y771250D02*
D03*
X634500Y791250D02*
D03*
Y781250D02*
D03*
Y771250D02*
D03*
D93*
X620000Y781250D02*
D03*
M02*
