M48
;Layer_Color=9474304
;FILE_FORMAT=4:4
METRIC,LZ
;TYPE=PLATED
T01F00S00C0.3000
T02F00S00C0.5000
T04F00S00C0.9000
T05F00S00C1.0000
T06F00S00C1.3000
%
T01
X0004Y0063
X00055Y0065
X001Y00665
X00125
X00025Y0071
X00005Y008
X00065
X0009Y00805
Y00825
X00115Y0081
X0012Y00855
X00045Y0086
X0004Y00905
X00155Y00775
X00165Y00735
X00212Y00752
Y00764
Y00776
Y00788
X00224
Y00776
X00236
Y00788
X00248
Y00776
Y00764
X00236
Y00752
X00248
X00224
Y00764
X00285Y00769
X002775Y006925
X0026
Y0068
Y006675
Y00655
Y006425
Y0063
X0022Y00695
X00175Y0067
X0016Y00645
X0032Y006925
X003375
X00355
X0037
X00385
X004
X00415
X0043
Y0068
Y006675
Y00655
Y006425
Y0063
X0045Y00635
Y0065
X0048
Y00635
X0042Y0073
X00395Y0075
X0038Y0083
X004125
X00485Y00875
Y00905
X00295Y0086
T02
X00049Y0070175
X000595Y00741
X000645Y0077525
X0004375Y00831
X0008925Y008405
X00088Y00887
X000755
X00063
X001005
X001195Y0072
X0016175Y006925
X00196Y0072575
X002325Y0072475
X0025175Y00727
X0024525Y0071
X002325Y0066525
X0027275Y007425
X00272Y0075775
X002575Y008115
X00256Y00832
X0021525Y008305
X001965Y0081075
X001815Y00887
X00169
X001565
X00144
X003295Y008585
X0045375Y0082675
X0044875Y0089525
X004065Y007675
X0054Y0076525
Y0073525
Y0070525
X00594
X0061Y0068925
X00651Y0068825
X00646Y0070625
X00655Y0072625
X00685Y0073025
X0069Y0071125
X00715Y0074525
X00707Y0077125
X00709Y0080725
X00748Y0081175
Y0082425
Y0083675
Y0079925
X00656Y0079025
X00588Y0078825
X00577Y0075925
X00593Y0074825
X00613Y0081825
X00645Y0085525
X0061Y0064025
X00715Y0067525
X00749Y0067675
Y0068925
Y0066425
Y0065175
T04
X-00016Y0075925
Y0078475
T05
X-00028Y00658
Y00703
X00217Y00897
X00247
X004715Y0079475
Y0076975
Y0074475
Y0071975
Y0069475
Y0066975
T06
X-00003Y006455
Y007155
M30
