G04*
G04 #@! TF.GenerationSoftware,Altium Limited,Altium Designer,23.8.1 (32)*
G04*
G04 Layer_Physical_Order=1*
G04 Layer_Color=255*
%FSLAX44Y44*%
%MOMM*%
G71*
G04*
G04 #@! TF.SameCoordinates,643DEE84-9218-40C6-A46F-D78355EBE29C*
G04*
G04*
G04 #@! TF.FilePolarity,Positive*
G04*
G01*
G75*
%ADD10C,0.2000*%
%ADD12R,0.8000X0.9000*%
%ADD13R,0.9000X0.8000*%
%ADD14R,0.9500X1.4000*%
%ADD22C,0.9000*%
%ADD23C,0.7000*%
%ADD24C,1.1000*%
G36*
X194392Y5608D02*
X55000D01*
Y57000D01*
X5608D01*
Y145000D01*
X55000D01*
Y194392D01*
X194392D01*
Y5608D01*
D02*
G37*
%LPC*%
G36*
X88922Y176000D02*
X87078D01*
X85298Y175523D01*
X83702Y174601D01*
X82399Y173298D01*
X81477Y171702D01*
X81000Y169922D01*
Y168078D01*
X81477Y166298D01*
X82399Y164702D01*
X83702Y163399D01*
X85298Y162477D01*
X87078Y162000D01*
X88922D01*
X90702Y162477D01*
X92298Y163399D01*
X93601Y164702D01*
X94317Y165941D01*
X96000D01*
Y163000D01*
X109000D01*
Y175000D01*
X96000D01*
Y172059D01*
X94317D01*
X93601Y173298D01*
X92298Y174601D01*
X90702Y175523D01*
X88922Y176000D01*
D02*
G37*
G36*
X168856Y185000D02*
X167144D01*
X165491Y184557D01*
X164009Y183701D01*
X162799Y182491D01*
X161943Y181009D01*
X161500Y179356D01*
Y177644D01*
X161943Y175991D01*
X162799Y174509D01*
X164009Y173299D01*
X164555Y172983D01*
Y171517D01*
X164009Y171201D01*
X162799Y169991D01*
X161943Y168509D01*
X161500Y166856D01*
Y165144D01*
X161943Y163491D01*
X162799Y162009D01*
X164009Y160799D01*
X164555Y160483D01*
Y159017D01*
X164009Y158701D01*
X162799Y157491D01*
X161943Y156009D01*
X161500Y154356D01*
Y152644D01*
X161943Y150991D01*
X162799Y149509D01*
X164009Y148299D01*
X165491Y147443D01*
X167144Y147000D01*
X168856D01*
X170509Y147443D01*
X171991Y148299D01*
X173201Y149509D01*
X174057Y150991D01*
X174500Y152644D01*
Y154356D01*
X174057Y156009D01*
X173201Y157491D01*
X171991Y158701D01*
X171445Y159017D01*
Y160483D01*
X171991Y160799D01*
X173201Y162009D01*
X174057Y163491D01*
X174500Y165144D01*
Y166856D01*
X174057Y168509D01*
X173201Y169991D01*
X171991Y171201D01*
X171445Y171517D01*
Y172983D01*
X171991Y173299D01*
X173201Y174509D01*
X174057Y175991D01*
X174500Y177644D01*
Y179356D01*
X174057Y181009D01*
X173201Y182491D01*
X171991Y183701D01*
X170509Y184557D01*
X168856Y185000D01*
D02*
G37*
G36*
Y116500D02*
X167144D01*
X165491Y116057D01*
X164009Y115201D01*
X162799Y113991D01*
X161943Y112509D01*
X161500Y110856D01*
Y109144D01*
X161943Y107491D01*
X162799Y106009D01*
X164009Y104799D01*
X164555Y104483D01*
Y103017D01*
X164009Y102701D01*
X162799Y101491D01*
X162260Y100559D01*
X157500D01*
X157500Y100559D01*
X156329Y100326D01*
X155337Y99663D01*
X155337Y99663D01*
X145337Y89663D01*
X144674Y88671D01*
X144441Y87500D01*
X144441Y87500D01*
Y33000D01*
X141000D01*
Y21000D01*
X154000D01*
Y33000D01*
X150559D01*
Y86233D01*
X158767Y94441D01*
X162260D01*
X162799Y93509D01*
X164009Y92299D01*
X165491Y91443D01*
X167144Y91000D01*
X168856D01*
X170509Y91443D01*
X171991Y92299D01*
X173201Y93509D01*
X174057Y94991D01*
X174500Y96644D01*
Y98356D01*
X174057Y100009D01*
X173201Y101491D01*
X171991Y102701D01*
X171445Y103017D01*
Y104483D01*
X171991Y104799D01*
X173201Y106009D01*
X174057Y107491D01*
X174500Y109144D01*
Y110856D01*
X174057Y112509D01*
X173201Y113991D01*
X171991Y115201D01*
X170509Y116057D01*
X168856Y116500D01*
D02*
G37*
G36*
X46922Y95000D02*
X45078D01*
X43298Y94523D01*
X41702Y93601D01*
X40399Y92298D01*
X39477Y90702D01*
X39439Y90559D01*
X37000D01*
Y94000D01*
X25000D01*
Y81000D01*
X37000D01*
Y84441D01*
X39972D01*
X40399Y83702D01*
X41702Y82399D01*
X43298Y81477D01*
X45078Y81000D01*
X46922D01*
X48702Y81477D01*
X50298Y82399D01*
X51601Y83702D01*
X52523Y85298D01*
X53000Y87078D01*
Y88922D01*
X52523Y90702D01*
X51601Y92298D01*
X50298Y93601D01*
X48702Y94523D01*
X46922Y95000D01*
D02*
G37*
G36*
X126000Y175000D02*
X113000D01*
Y163000D01*
X116441D01*
Y100000D01*
X113000D01*
Y88000D01*
X116441D01*
Y70000D01*
X112750D01*
X112057Y70983D01*
X111913Y71198D01*
X111913Y71199D01*
X96381Y86730D01*
X96907Y88000D01*
X109000D01*
Y100000D01*
X105559D01*
Y112439D01*
X105702Y112477D01*
X107298Y113399D01*
X108601Y114702D01*
X109523Y116298D01*
X110000Y118078D01*
Y119922D01*
X109523Y121702D01*
X108601Y123298D01*
X107298Y124601D01*
X105702Y125523D01*
X103922Y126000D01*
X102078D01*
X100298Y125523D01*
X98702Y124601D01*
X97399Y123298D01*
X96477Y121702D01*
X96000Y119922D01*
Y118078D01*
X96477Y116298D01*
X97399Y114702D01*
X98702Y113399D01*
X99441Y112972D01*
Y100000D01*
X96000D01*
Y88907D01*
X94730Y88381D01*
X79948Y103163D01*
X78956Y103826D01*
X77786Y104059D01*
X77785Y104059D01*
X73841D01*
X73298Y104601D01*
X71702Y105523D01*
X69922Y106000D01*
X68326D01*
X59950Y114376D01*
Y119109D01*
X59950Y119109D01*
X59717Y120279D01*
X59054Y121272D01*
X59054Y121272D01*
X52630Y127696D01*
X53000Y129078D01*
Y130922D01*
X52523Y132702D01*
X51601Y134298D01*
X50298Y135601D01*
X48702Y136523D01*
X46922Y137000D01*
X45078D01*
X43298Y136523D01*
X41702Y135601D01*
X40399Y134298D01*
X39477Y132702D01*
X39439Y132559D01*
X37000D01*
Y136000D01*
X25000D01*
Y132559D01*
X20250D01*
X19080Y132326D01*
X18087Y131663D01*
X18087Y131663D01*
X15837Y129413D01*
X15174Y128420D01*
X14941Y127250D01*
X14941Y127250D01*
Y74000D01*
X14941Y74000D01*
X15174Y72829D01*
X15837Y71837D01*
X19337Y68337D01*
X19337Y68337D01*
X20329Y67674D01*
X21500Y67441D01*
X25000D01*
Y64000D01*
X37000D01*
Y77000D01*
X25000D01*
Y73559D01*
X22767D01*
X21059Y75267D01*
Y125983D01*
X21517Y126441D01*
X25000D01*
Y123000D01*
X37000D01*
Y126441D01*
X39972D01*
X40399Y125702D01*
X41702Y124399D01*
X43298Y123477D01*
X45078Y123000D01*
X46922D01*
X48304Y123370D01*
X50886Y120788D01*
X50228Y119650D01*
X48922Y120000D01*
X47078D01*
X45298Y119523D01*
X43702Y118601D01*
X42399Y117298D01*
X41477Y115702D01*
X41439Y115559D01*
X37000D01*
Y119000D01*
X25000D01*
Y106000D01*
X37000D01*
Y109441D01*
X41972D01*
X42399Y108702D01*
X43702Y107399D01*
X45298Y106477D01*
X47078Y106000D01*
X48922D01*
X50702Y106477D01*
X52298Y107399D01*
X53601Y108702D01*
X54178Y109700D01*
X55580Y109988D01*
X55730Y109944D01*
X63024Y102650D01*
X62477Y101702D01*
X62000Y99922D01*
Y98078D01*
X62477Y96298D01*
X63399Y94702D01*
X64702Y93399D01*
X66298Y92477D01*
X68078Y92000D01*
X69922D01*
X71702Y92477D01*
X73298Y93399D01*
X74601Y94702D01*
X75523Y96298D01*
X75701Y96963D01*
X77118Y97342D01*
X102786Y71673D01*
X102300Y70500D01*
X95250D01*
Y62250D01*
X102500D01*
Y61000D01*
X103750D01*
Y51500D01*
X109750D01*
Y56879D01*
X110922Y57941D01*
X110922Y57941D01*
X112750D01*
Y52000D01*
X116441D01*
Y46500D01*
X116441Y46500D01*
X116674Y45329D01*
X117337Y44337D01*
X127404Y34270D01*
X127352Y33000D01*
X124000D01*
Y30059D01*
X109250D01*
Y36000D01*
X95750D01*
Y18000D01*
X109250D01*
Y23941D01*
X124000D01*
Y21000D01*
X137000D01*
Y33000D01*
X133559D01*
Y35500D01*
X133559Y35500D01*
X133326Y36671D01*
X132663Y37663D01*
X122559Y47767D01*
Y52000D01*
X126250D01*
Y70000D01*
X122559D01*
Y88000D01*
X126000D01*
Y100000D01*
X122559D01*
Y163000D01*
X126000D01*
Y175000D01*
D02*
G37*
G36*
X101250Y59750D02*
X95250D01*
Y51500D01*
X101250D01*
Y59750D01*
D02*
G37*
G36*
X69922Y53000D02*
X68078D01*
X66298Y52523D01*
X64702Y51601D01*
X63399Y50298D01*
X62477Y48702D01*
X62000Y46922D01*
Y45078D01*
X62477Y43298D01*
X63399Y41702D01*
X64702Y40399D01*
X65941Y39683D01*
Y33000D01*
X65941Y33000D01*
X66174Y31830D01*
X66837Y30837D01*
X72837Y24837D01*
X72837Y24837D01*
X73829Y24174D01*
X75000Y23941D01*
X78750D01*
Y18000D01*
X92250D01*
Y36000D01*
X78750D01*
Y30059D01*
X76267D01*
X72059Y34267D01*
Y39683D01*
X73298Y40399D01*
X74601Y41702D01*
X75523Y43298D01*
X76000Y45078D01*
Y46922D01*
X75523Y48702D01*
X74601Y50298D01*
X73298Y51601D01*
X71702Y52523D01*
X69922Y53000D01*
D02*
G37*
%LPD*%
D10*
X102500Y118500D02*
X103000Y119000D01*
X102500Y94000D02*
Y118500D01*
X69000Y99000D02*
Y101000D01*
X88000Y169000D02*
X102500D01*
X18000Y127250D02*
X20250Y129500D01*
X18000Y74000D02*
Y127250D01*
X20250Y129500D02*
X45500D01*
X18000Y74000D02*
X21500Y70500D01*
X31000D01*
X69000Y101000D02*
X77786D01*
X109750Y69036D01*
X56891Y113109D02*
X69000Y101000D01*
X110922Y61000D02*
X119500D01*
X109750Y62172D02*
X110922Y61000D01*
X109750Y62172D02*
Y69036D01*
X119500Y61000D02*
Y68000D01*
X56891Y113109D02*
Y119109D01*
X46000Y130000D02*
X56891Y119109D01*
X75000Y27000D02*
X85500Y27000D01*
X69000Y33000D02*
Y46000D01*
Y33000D02*
X75000Y27000D01*
X119500Y94000D02*
Y169000D01*
Y68000D02*
Y94000D01*
X119500Y68000D02*
X119500Y68000D01*
X119500Y46500D02*
X130500Y35500D01*
Y27000D02*
Y35500D01*
X119500Y46500D02*
Y61000D01*
X102500Y27000D02*
X130500D01*
X147500D02*
Y87500D01*
X157500Y97500D02*
X168000D01*
X147500Y87500D02*
X157500Y97500D01*
X47500Y112500D02*
X48000Y113000D01*
X31000Y112500D02*
X47500D01*
X45500Y129500D02*
X46000Y130000D01*
X45500Y87500D02*
X46000Y88000D01*
X31000Y87500D02*
X45500D01*
D12*
X31000D02*
D03*
Y70500D02*
D03*
Y129500D02*
D03*
Y112500D02*
D03*
D13*
X102500Y169000D02*
D03*
X119500D02*
D03*
X102500Y94000D02*
D03*
X119500D02*
D03*
X130500Y27000D02*
D03*
X147500D02*
D03*
D14*
X102500D02*
D03*
X85500D02*
D03*
X119500Y61000D02*
D03*
X102500D02*
D03*
D22*
X168000Y97500D02*
D03*
Y110000D02*
D03*
Y166000D02*
D03*
Y178500D02*
D03*
Y153500D02*
D03*
D23*
X35000Y100000D02*
D03*
X10000Y135000D02*
D03*
Y65000D02*
D03*
X155000D02*
D03*
X95000Y155000D02*
D03*
X65000Y175000D02*
D03*
X135000Y65000D02*
D03*
Y80000D02*
D03*
Y95000D02*
D03*
Y125000D02*
D03*
Y140000D02*
D03*
X75000Y185000D02*
D03*
X45000Y65000D02*
D03*
X65000Y10000D02*
D03*
X180000Y20000D02*
D03*
Y35000D02*
D03*
Y50000D02*
D03*
Y65000D02*
D03*
D24*
X85000Y47000D02*
D03*
X103000Y119000D02*
D03*
X69000Y99000D02*
D03*
X88000Y169000D02*
D03*
X61000Y156000D02*
D03*
X48000Y113000D02*
D03*
X46000Y130000D02*
D03*
Y88000D02*
D03*
X69000Y46000D02*
D03*
M02*
