G04*
G04 #@! TF.GenerationSoftware,Altium Limited,Altium Designer,23.8.1 (32)*
G04*
G04 Layer_Color=16711935*
%FSLAX44Y44*%
%MOMM*%
G71*
G04*
G04 #@! TF.SameCoordinates,643DEE84-9218-40C6-A46F-D78355EBE29C*
G04*
G04*
G04 #@! TF.FilePolarity,Negative*
G04*
G01*
G75*
%ADD18C,0.1000*%
%ADD19C,1.0000*%
%ADD20C,0.8000*%
%ADD21C,1.2000*%
%ADD28R,0.7500X0.4000*%
%ADD29R,0.5000X0.7000*%
%ADD30R,2.5000X1.6000*%
D18*
X30000Y30000D02*
D03*
Y170000D02*
D03*
D19*
X168000Y97500D02*
D03*
Y110000D02*
D03*
Y166000D02*
D03*
Y178500D02*
D03*
Y153500D02*
D03*
D20*
X35000Y100000D02*
D03*
X10000Y135000D02*
D03*
Y65000D02*
D03*
X155000D02*
D03*
X95000Y155000D02*
D03*
X65000Y175000D02*
D03*
X135000Y65000D02*
D03*
Y80000D02*
D03*
Y95000D02*
D03*
Y125000D02*
D03*
Y140000D02*
D03*
X75000Y185000D02*
D03*
X45000Y65000D02*
D03*
X65000Y10000D02*
D03*
X180000Y20000D02*
D03*
Y35000D02*
D03*
Y50000D02*
D03*
Y65000D02*
D03*
D21*
X85000Y47000D02*
D03*
X103000Y119000D02*
D03*
X69000Y99000D02*
D03*
X88000Y169000D02*
D03*
X61000Y156000D02*
D03*
X48000Y113000D02*
D03*
X46000Y130000D02*
D03*
Y88000D02*
D03*
X69000Y46000D02*
D03*
D28*
X61000Y142500D02*
D03*
Y136000D02*
D03*
Y129500D02*
D03*
X79000Y142500D02*
D03*
Y136000D02*
D03*
Y129500D02*
D03*
D29*
X79000Y60500D02*
D03*
X69000D02*
D03*
X59000D02*
D03*
X79000Y87500D02*
D03*
X69000D02*
D03*
X59000D02*
D03*
D30*
X69000Y74000D02*
D03*
M02*
